M48
INCH
T950C0.047
T949C0.024
T948C0.012
T947C0.032
T946C0.135
T945C0.047
T944C0.050
T943C0.118
T942C0.039
%
T948
X026381Y025489
X027000Y026120
X026670Y023430
X025740Y022160
X026160Y022880
X025740Y025350
T949
X029390Y026290
X028290Y024760
X031390Y023350
X029550Y023850
X028000Y022050
X022160Y026720
X022680Y022820
X020500Y023400
X020420Y021660
X014940Y023440
X030860Y025750
T947
X025150Y026000
T942
X012355Y023299
X012355Y022319
X011375Y023299
X011375Y022319
T950
X019500Y024600
X019710Y020650
X017440Y027230
T945
X024400Y020200
X023400Y020200
X023400Y021200
X031985Y024004
X022400Y021200
X022400Y020200
X031985Y022823
X031985Y021642
X030804Y024004
X030804Y022823
X030804Y021642
X024400Y021200
T944
X013657Y015651
X013657Y017751
T943
X010305Y025179
X010305Y020439
T946
X033680Y022820
M30
