G04 start of page 7 for group -4063 idx -4063 *
G04 Title: (unknown), componentmask *
G04 Creator: pcb 20110918 *
G04 CreationDate: Tue Mar 20 15:17:37 2012 UTC *
G04 For: mldelibero *
G04 Format: Gerber/RS-274X *
G04 PCB-Dimensions: 600000 500000 *
G04 PCB-Coordinate-Origin: lower left *
%MOIN*%
%FSLAX25Y25*%
%LNTOPMASK*%
%ADD486R,0.0220X0.0220*%
%ADD485C,0.0220*%
%ADD484R,0.0750X0.0750*%
%ADD483R,0.1280X0.1280*%
%ADD482R,0.0620X0.0620*%
%ADD481R,0.1340X0.1340*%
%ADD480R,0.0572X0.0572*%
%ADD479R,0.0230X0.0230*%
%ADD478C,0.0697*%
%ADD477C,0.1560*%
%ADD476C,0.2210*%
%ADD475C,0.0610*%
%ADD474C,0.0850*%
%ADD473C,0.1450*%
%ADD472C,0.0847*%
%ADD471C,0.0010*%
G54D471*X104900Y134000D02*X320800D01*
Y134500D02*X346800Y160500D01*
X346700Y258500D02*X321200Y284000D01*
X346700Y258500D02*Y160500D01*
X105000Y284000D02*X90900Y269900D01*
Y148000D01*
X320700Y284000D02*X105000D01*
X90900Y148000D02*X104900Y134000D01*
G54D472*X308035Y216420D03*
Y228231D03*
Y240042D03*
X319846D03*
Y228231D03*
Y216420D03*
G54D473*X336800Y228200D03*
G54D474*X269300Y152300D03*
Y173300D03*
G54D472*X215500Y208700D03*
Y218700D03*
G54D475*X123550Y223190D03*
Y232990D03*
X113750D03*
Y223190D03*
G54D476*X103050Y251790D03*
G54D477*Y204390D03*
G54D472*X205500Y208700D03*
Y218700D03*
G54D478*X195500D03*
G54D472*Y208700D03*
G54D474*X192900Y269500D03*
Y248500D03*
G54D479*X252697Y209159D02*X257303D01*
X252697Y211718D02*X257303D01*
X252697Y214276D02*X257303D01*
X252697Y216835D02*X257303D01*
X290411Y206562D02*X295017D01*
X290411Y209121D02*X295017D01*
X290411Y211679D02*X295017D01*
X290411Y214238D02*X295017D01*
X267183D02*X271789D01*
X267183Y211679D02*X271789D01*
X267183Y209121D02*X271789D01*
X267183Y206562D02*X271789D01*
X252697Y219394D02*X257303D01*
X252697Y221953D02*X257303D01*
X252697Y224512D02*X257303D01*
G54D480*X248507Y250286D02*X249293D01*
X248507Y243200D02*X249293D01*
X255607Y159914D02*X256393D01*
X255607Y167000D02*X256393D01*
G54D481*X239300Y151200D02*Y150700D01*
Y176600D02*Y176100D01*
X216800Y176600D02*Y176100D01*
Y151200D02*Y150700D01*
G54D479*X252697Y201482D02*X257303D01*
X252697Y204041D02*X257303D01*
X252697Y206600D02*X257303D01*
G54D482*X221600Y247700D02*Y241100D01*
X230600Y247700D02*Y241100D01*
G54D483*X226100Y268800D02*X235100D01*
G54D482*X239700Y247700D02*Y241100D01*
G54D484*X336900Y184500D02*X338100D01*
X336900Y195500D02*X338100D01*
X299300Y177500D02*X300500D01*
G54D480*X311457Y177293D02*Y176507D01*
X318543Y177293D02*Y176507D01*
G54D484*X299300Y188500D02*X300500D01*
G54D480*X325043Y184893D02*Y184107D01*
X317957Y184893D02*Y184107D01*
X307086Y276393D02*Y275607D01*
X300000Y276393D02*Y275607D01*
G54D484*X307000Y259600D02*Y258400D01*
X318000Y259600D02*Y258400D01*
G54D480*X272843Y263193D02*Y262407D01*
X265757Y263193D02*Y262407D01*
G54D484*X280000Y261100D02*Y259900D01*
X291000Y261100D02*Y259900D01*
G54D479*X281052Y247079D02*Y242473D01*
X278493Y247079D02*Y242473D01*
X275935Y247079D02*Y242473D01*
X273376Y247079D02*Y242473D01*
Y223851D02*Y219245D01*
X275935Y223851D02*Y219245D01*
X278493Y223851D02*Y219245D01*
X281052Y223851D02*Y219245D01*
G54D480*X293200Y221193D02*Y220407D01*
X286114Y221193D02*Y220407D01*
X267907Y245400D02*X268693D01*
X267907Y238314D02*X268693D01*
G54D479*X229469Y216835D02*X234075D01*
X229469Y214276D02*X234075D01*
X229469Y211718D02*X234075D01*
X229469Y209159D02*X234075D01*
X229469Y224512D02*X234075D01*
X229469Y221953D02*X234075D01*
X229469Y219394D02*X234075D01*
X229469Y206600D02*X234075D01*
X229469Y201482D02*X234075D01*
G54D480*X223914Y234393D02*Y233607D01*
X231000Y234393D02*Y233607D01*
X156607Y244543D02*X157393D01*
X156607Y237457D02*X157393D01*
X156607Y257586D02*X157393D01*
X156607Y250500D02*X157393D01*
X143607Y257086D02*X144393D01*
X143607Y250000D02*X144393D01*
X143907Y241700D02*X144693D01*
X143907Y234614D02*X144693D01*
X170607Y262500D02*X171393D01*
X170664Y248914D02*X171450D01*
X170664Y256000D02*X171450D01*
X170607Y269586D02*X171393D01*
G54D485*X183000Y228700D02*Y226500D01*
G54D486*X180400Y228700D02*Y226500D01*
X177900Y228700D02*Y226500D01*
X175300Y228700D02*Y226500D01*
X172700Y228700D02*Y226500D01*
X170200Y228700D02*Y226500D01*
X167600Y228700D02*Y226500D01*
X165100Y228700D02*Y226500D01*
X162500Y228700D02*Y226500D01*
X159900Y228700D02*Y226500D01*
X157400Y228700D02*Y226500D01*
X154800Y228700D02*Y226500D01*
X152300Y228700D02*Y226500D01*
X149700Y228700D02*Y226500D01*
G54D479*X229469Y204041D02*X234075D01*
G54D480*X156086Y186979D02*Y186193D01*
X149000Y186979D02*Y186193D01*
X172086Y186893D02*Y186107D01*
X165000Y186893D02*Y186107D01*
G54D486*X149600Y199600D02*Y197400D01*
X152200Y199600D02*Y197400D01*
X154700Y199600D02*Y197400D01*
X157300Y199600D02*Y197400D01*
X159900Y199600D02*Y197400D01*
X162400Y199600D02*Y197400D01*
X165000Y199600D02*Y197400D01*
G54D480*X164086Y177893D02*Y177107D01*
X157000Y177893D02*Y177107D01*
G54D486*X167500Y199600D02*Y197400D01*
X170100Y199600D02*Y197400D01*
X172700Y199600D02*Y197400D01*
X175200Y199600D02*Y197400D01*
X177800Y199600D02*Y197400D01*
X180300Y199600D02*Y197400D01*
X182900Y199600D02*Y197400D01*
M02*
