G04 start of page 2 for group 0 idx 0 *
G04 Title: (unknown), component *
G04 Creator: pcb 20110918 *
G04 CreationDate: Tue Mar 20 15:17:37 2012 UTC *
G04 For: mldelibero *
G04 Format: Gerber/RS-274X *
G04 PCB-Dimensions: 600000 500000 *
G04 PCB-Coordinate-Origin: lower left *
%MOIN*%
%FSLAX25Y25*%
%LNTOP*%
%ADD424C,0.1181*%
%ADD423C,0.0393*%
%ADD422C,0.1350*%
%ADD421C,0.0472*%
%ADD420C,0.0350*%
%ADD419C,0.0236*%
%ADD418C,0.0600*%
%ADD417R,0.0160X0.0160*%
%ADD416C,0.0160*%
%ADD415R,0.0690X0.0690*%
%ADD414R,0.1220X0.1220*%
%ADD413R,0.0560X0.0560*%
%ADD412R,0.1240X0.1240*%
%ADD411R,0.0512X0.0512*%
%ADD410R,0.0130X0.0130*%
%ADD409C,0.0637*%
%ADD408C,0.1500*%
%ADD407C,0.2150*%
%ADD406C,0.0550*%
%ADD405C,0.0790*%
%ADD404C,0.1390*%
%ADD403C,0.0787*%
%ADD402C,0.0450*%
%ADD401C,0.0370*%
%ADD400C,0.0500*%
%ADD399C,0.0400*%
%ADD398C,0.0130*%
%ADD397C,0.0010*%
G54D397*X104900Y134000D02*X320800D01*
Y134500D02*X346800Y160500D01*
X346700Y258500D02*X321200Y284000D01*
X346700Y258500D02*Y160500D01*
X105000Y284000D02*X90900Y269900D01*
Y148000D01*
X320700Y284000D02*X105000D01*
X90900Y148000D02*X104900Y134000D01*
G54D398*X273376Y218128D02*X269486Y214238D01*
X271674Y216426D02*X266147Y221953D01*
X264300Y210430D02*Y217700D01*
X262606Y219394D01*
X252697Y224512D02*X254685Y226500D01*
X266147Y221953D02*X255000D01*
X262606Y219394D02*X255000D01*
X250100Y235044D02*Y217700D01*
X250965Y216835D01*
X255000D01*
X267183Y209121D02*X265609D01*
X264300Y210430D01*
X267183Y206562D02*X263738D01*
X261000Y209300D01*
Y209594D01*
X258794Y211800D01*
X258466Y204012D02*X258438Y204041D01*
X255000D01*
X254718Y212000D02*X255000Y211718D01*
X260959Y204041D02*X257041D01*
X258794Y211800D02*X258712Y211718D01*
X255000D01*
X248000Y207000D02*X250159Y209159D01*
G54D399*X275000Y202000D02*X263000D01*
X262000Y203000D01*
G54D398*X260959Y204041D01*
G54D400*X243000Y187000D02*X248000Y192000D01*
Y207000D01*
G54D398*X256000Y195000D02*X257000Y196000D01*
X256000Y195000D02*Y201482D01*
X244000Y212000D02*X254718D01*
G54D399*X240650Y152300D02*X269300D01*
X270000D02*X263614D01*
X269000D02*X283000Y166300D01*
X263614Y152300D02*X256000Y159914D01*
X269300Y173300D02*X262300D01*
X256000Y167000D01*
X262000Y173300D02*X242350D01*
X283000Y166300D02*Y208000D01*
X281000Y210000D01*
G54D400*X216800Y176600D02*X227200Y187000D01*
X243000D01*
G54D399*X216800Y150950D02*X239300D01*
X240650Y152300D01*
X242350Y173300D02*X239300Y176350D01*
G54D398*X254685Y226500D02*X274700D01*
X229469Y221953D02*X224047D01*
X217000Y229000D01*
X220672Y229398D02*X218070Y232000D01*
X250159Y209159D02*X255000D01*
X247724Y215276D02*X247000Y216000D01*
X255000Y214276D02*X248724D01*
X247000Y216000D01*
X240000Y210000D02*X238282Y211718D01*
X231772D01*
Y201482D02*X229290Y199000D01*
X225000D01*
X306600Y238400D02*X308200Y240000D01*
X288900Y246189D02*X313911D01*
X319900Y240200D01*
G54D399*X319800Y257200D02*Y240300D01*
G54D398*X284950Y239850D02*X308050D01*
X281611Y239900D02*X288400Y246689D01*
X281606Y239895D02*X280488D01*
X280394D02*X279606D01*
X278500Y241000D01*
X305803Y233900D02*X316800D01*
X319800Y230900D01*
Y228100D01*
X281052Y219245D02*X286114D01*
X293200Y221900D02*X280400Y234700D01*
X298100Y226197D02*X305803Y233900D01*
X281052Y223851D02*Y228582D01*
X293000Y228000D02*X293200Y227800D01*
X300800Y221300D02*X307800Y228300D01*
G54D401*X301000Y209000D02*X300000Y210000D01*
G54D398*X293200Y227800D02*Y220300D01*
Y214238D02*Y223400D01*
Y221193D02*Y221900D01*
X296590Y211679D02*X298100Y213189D01*
Y226197D01*
X297285Y209121D02*X300800Y212636D01*
Y221300D01*
X290411Y211679D02*X296590D01*
X290411Y209121D02*X297285D01*
G54D399*X291000Y202000D02*X294000Y205000D01*
X290000D01*
X297500Y269000D02*X291000Y262500D01*
Y260500D01*
X300000Y276000D02*X270500D01*
X280000Y260500D02*X277700Y262800D01*
X272843D01*
X270500Y276000D02*X265957Y271457D01*
Y263000D01*
X307086Y276000D02*X307000Y275914D01*
X318000Y259000D02*X319800Y257200D01*
X307000Y275914D02*Y259000D01*
X319800Y227500D02*X331300Y216000D01*
X337000Y196000D02*X337500Y195500D01*
Y184500D02*X325043D01*
G54D401*X337000Y196000D02*X337250Y195750D01*
G54D399*X331300Y216000D02*X336500Y215000D01*
G54D401*X337000Y196000D01*
X299900Y177500D02*X310857D01*
X311457Y176900D01*
X318543D02*Y183914D01*
G54D402*X308500Y216500D02*Y193957D01*
X317957Y184500D01*
G54D401*X318543Y183914D02*X316457Y186000D01*
X299900Y188500D02*X301000Y189600D01*
Y209000D01*
G54D400*X216800Y176600D02*X206400Y187000D01*
X186000D01*
X180000Y193000D01*
G54D398*X181000Y192000D02*X180300Y192700D01*
Y198500D01*
X177800D02*X175200D01*
X175500Y195500D02*Y198500D01*
X231772Y206600D02*X226600D01*
X215500Y208700D02*X231313D01*
X231772Y209159D01*
X226600Y206600D02*X220000Y200000D01*
X214200D01*
X205500Y208700D01*
X159500Y205000D02*X157300Y202800D01*
X166000Y205000D02*X165000Y204000D01*
Y198500D01*
X159500Y205000D02*X173500D01*
X162400Y199600D02*Y195967D01*
X154700Y199600D02*Y204700D01*
X173500Y205000D02*X176500Y202000D01*
Y197267D02*Y202000D01*
X157300Y198500D02*X157450Y198650D01*
X162400Y195967D02*X159433Y193000D01*
G54D400*X156565Y186500D02*X165000D01*
X172086Y186893D02*X171500Y187479D01*
Y191500D01*
G54D398*X175500Y195500D01*
G54D399*X164086Y177893D02*X167893D01*
X172086Y182086D01*
Y186500D01*
X159433Y193000D02*X147000D01*
G54D400*X149000Y186979D02*X148000Y187979D01*
Y193000D01*
G54D399*X149000Y186979D02*X148750Y186729D01*
G54D398*X149600Y199900D02*Y198500D01*
G54D400*X156086Y186979D02*X156565Y186500D01*
G54D399*X157000Y177893D02*X151607D01*
X149000Y180500D01*
X148750Y186729D02*Y180750D01*
G54D398*X217000Y225000D02*X211800D01*
X205500Y218700D01*
G54D399*X221600Y236314D02*X223914Y234000D01*
X230600Y234400D02*X231000Y234000D01*
X230600Y234400D02*Y268800D01*
G54D398*X231772Y214276D02*X219924D01*
X215500Y218700D01*
X232724Y214276D02*X241724D01*
X244000Y212000D01*
G54D399*X241000Y215276D02*Y227000D01*
X237000Y234000D02*X243000Y228000D01*
X231000Y234000D02*X237000D01*
G54D398*X231772Y219394D02*X222606D01*
X217000Y225000D01*
X231772Y224512D02*X231488D01*
X231772D02*X226886Y229398D01*
X220672D01*
G54D399*X239700Y247700D02*X244200Y243200D01*
G54D398*X157300Y202800D02*Y198500D01*
G54D400*X152000Y213500D02*Y209500D01*
G54D398*X152200Y209300D01*
Y198500D01*
G54D399*X147000Y193000D02*X123500Y216500D01*
G54D400*X131000Y221000D02*X145500Y206500D01*
Y204000D01*
G54D398*X149600Y199900D01*
X154700Y204700D02*X161000Y211000D01*
X217000Y229000D02*X194000D01*
X188570Y232070D02*X218000D01*
X194000Y229000D02*X189000Y224000D01*
X173867D01*
X183000Y226500D02*X188570Y232070D01*
X173867Y224000D02*X172700Y225167D01*
Y227600D01*
X167600D02*Y233000D01*
X175500Y233500D02*X175300Y233300D01*
Y227600D01*
G54D399*X123500Y216500D02*Y223000D01*
G54D400*Y233000D02*X132500D01*
G54D398*X113500D02*X118500Y228000D01*
X127000D01*
G54D400*X132500Y233000D02*X152000Y213500D01*
G54D398*X127000Y228000D02*X131000Y224000D01*
Y221000D01*
X143907Y241700D02*X144000Y241793D01*
Y250000D01*
X149700Y228700D02*X144300Y234100D01*
Y234614D01*
X154800Y228700D02*Y235257D01*
X157000Y237457D01*
X156607Y244543D02*X157000Y244936D01*
Y250500D01*
X156607Y257586D02*X156107Y257086D01*
X144000D01*
G54D399*X192900Y269500D02*X229900D01*
X230600Y268800D01*
G54D398*X192900Y269500D02*X192814Y269586D01*
X171000D01*
X170607Y262500D02*X171057Y262050D01*
Y256000D01*
X170664Y248914D02*X171078Y248500D01*
X192900D01*
G54D399*X221600Y244400D02*Y236314D01*
Y247700D02*X220800Y248500D01*
X192900D01*
G54D398*X281052Y247079D02*Y248652D01*
X279904Y249800D01*
X271800D01*
X278493Y247079D02*X278500Y247072D01*
X282100Y237000D02*X284950Y239850D01*
X278500Y247072D02*Y241000D01*
X278690Y240810D01*
Y240703D01*
X275935Y247079D02*Y240205D01*
X274279Y211679D02*X269486D01*
X274974Y209121D02*X269486D01*
X275667Y206562D02*X269486D01*
X278493Y223851D02*Y212640D01*
X275935Y213335D02*Y225424D01*
X274859Y226500D01*
X273376Y223851D02*Y218128D01*
X275935Y213335D02*X274279Y211679D01*
X278493Y212640D02*X274974Y209121D01*
X281052Y211947D02*X275667Y206562D01*
X281052Y211947D02*X281043Y211956D01*
Y219245D01*
X275935Y240205D02*X279140Y237000D01*
X278487Y234400D02*X273376Y239511D01*
X281052Y228582D02*X272900Y236734D01*
X272834Y236800D02*X271320Y238314D01*
X268300D01*
X279140Y237000D02*X282100D01*
X280700Y234400D02*X278487D01*
X273376Y239511D02*Y244776D01*
X267907Y245400D02*X268531Y244776D01*
X273376D01*
X271900Y249800D02*X264856D01*
G54D399*X244200Y243200D02*X248900D01*
X248507Y250286D02*X248721Y250500D01*
X255500D01*
X245500Y236500D02*X242500Y239500D01*
Y243200D01*
G54D398*X264856Y249800D02*X250100Y235044D01*
X260500Y238500D02*X267400Y245400D01*
X268300D01*
G54D399*X265757Y262800D02*X256500Y253543D01*
Y250500D01*
G54D403*X308035Y216420D03*
Y228231D03*
Y240042D03*
X319846D03*
Y228231D03*
Y216420D03*
G54D404*X336800Y228200D03*
G54D405*X269300Y152300D03*
Y173300D03*
G54D403*X215500Y208700D03*
Y218700D03*
G54D406*X123550Y223190D03*
Y232990D03*
X113750D03*
Y223190D03*
G54D407*X103050Y251790D03*
G54D408*Y204390D03*
G54D403*X205500Y208700D03*
Y218700D03*
G54D409*X195500D03*
G54D403*Y208700D03*
G54D405*X192900Y269500D03*
Y248500D03*
G54D410*X252697Y209159D02*X257303D01*
X252697Y211718D02*X257303D01*
X252697Y214276D02*X257303D01*
X252697Y216835D02*X257303D01*
X290411Y206562D02*X295017D01*
X290411Y209121D02*X295017D01*
X290411Y211679D02*X295017D01*
X290411Y214238D02*X295017D01*
X267183D02*X271789D01*
X267183Y211679D02*X271789D01*
X267183Y209121D02*X271789D01*
X267183Y206562D02*X271789D01*
X252697Y219394D02*X257303D01*
X252697Y221953D02*X257303D01*
X252697Y224512D02*X257303D01*
G54D411*X248507Y250286D02*X249293D01*
X248507Y243200D02*X249293D01*
X255607Y159914D02*X256393D01*
X255607Y167000D02*X256393D01*
G54D412*X239300Y151200D02*Y150700D01*
Y176600D02*Y176100D01*
X216800Y176600D02*Y176100D01*
Y151200D02*Y150700D01*
G54D410*X252697Y201482D02*X257303D01*
X252697Y204041D02*X257303D01*
X252697Y206600D02*X257303D01*
G54D413*X221600Y247700D02*Y241100D01*
X230600Y247700D02*Y241100D01*
G54D414*X226100Y268800D02*X235100D01*
G54D413*X239700Y247700D02*Y241100D01*
G54D415*X336900Y184500D02*X338100D01*
X336900Y195500D02*X338100D01*
X299300Y177500D02*X300500D01*
G54D411*X311457Y177293D02*Y176507D01*
X318543Y177293D02*Y176507D01*
G54D415*X299300Y188500D02*X300500D01*
G54D411*X325043Y184893D02*Y184107D01*
X317957Y184893D02*Y184107D01*
X307086Y276393D02*Y275607D01*
X300000Y276393D02*Y275607D01*
G54D415*X307000Y259600D02*Y258400D01*
X318000Y259600D02*Y258400D01*
G54D411*X272843Y263193D02*Y262407D01*
X265757Y263193D02*Y262407D01*
G54D415*X280000Y261100D02*Y259900D01*
X291000Y261100D02*Y259900D01*
G54D410*X281052Y247079D02*Y242473D01*
X278493Y247079D02*Y242473D01*
X275935Y247079D02*Y242473D01*
X273376Y247079D02*Y242473D01*
Y223851D02*Y219245D01*
X275935Y223851D02*Y219245D01*
X278493Y223851D02*Y219245D01*
X281052Y223851D02*Y219245D01*
G54D411*X293200Y221193D02*Y220407D01*
X286114Y221193D02*Y220407D01*
X267907Y245400D02*X268693D01*
X267907Y238314D02*X268693D01*
G54D410*X229469Y216835D02*X234075D01*
X229469Y214276D02*X234075D01*
X229469Y211718D02*X234075D01*
X229469Y209159D02*X234075D01*
X229469Y224512D02*X234075D01*
X229469Y221953D02*X234075D01*
X229469Y219394D02*X234075D01*
X229469Y206600D02*X234075D01*
X229469Y201482D02*X234075D01*
G54D411*X223914Y234393D02*Y233607D01*
X231000Y234393D02*Y233607D01*
X156607Y244543D02*X157393D01*
X156607Y237457D02*X157393D01*
X156607Y257586D02*X157393D01*
X156607Y250500D02*X157393D01*
X143607Y257086D02*X144393D01*
X143607Y250000D02*X144393D01*
X143907Y241700D02*X144693D01*
X143907Y234614D02*X144693D01*
X170607Y262500D02*X171393D01*
X170664Y248914D02*X171450D01*
X170664Y256000D02*X171450D01*
X170607Y269586D02*X171393D01*
G54D416*X183000Y228700D02*Y226500D01*
G54D417*X180400Y228700D02*Y226500D01*
X177900Y228700D02*Y226500D01*
X175300Y228700D02*Y226500D01*
X172700Y228700D02*Y226500D01*
X170200Y228700D02*Y226500D01*
X167600Y228700D02*Y226500D01*
X165100Y228700D02*Y226500D01*
X162500Y228700D02*Y226500D01*
X159900Y228700D02*Y226500D01*
X157400Y228700D02*Y226500D01*
X154800Y228700D02*Y226500D01*
X152300Y228700D02*Y226500D01*
X149700Y228700D02*Y226500D01*
G54D410*X229469Y204041D02*X234075D01*
G54D411*X156086Y186979D02*Y186193D01*
X149000Y186979D02*Y186193D01*
X172086Y186893D02*Y186107D01*
X165000Y186893D02*Y186107D01*
G54D417*X149600Y199600D02*Y197400D01*
X152200Y199600D02*Y197400D01*
X154700Y199600D02*Y197400D01*
X157300Y199600D02*Y197400D01*
X159900Y199600D02*Y197400D01*
X162400Y199600D02*Y197400D01*
X165000Y199600D02*Y197400D01*
G54D411*X164086Y177893D02*Y177107D01*
X157000Y177893D02*Y177107D01*
G54D417*X167500Y199600D02*Y197400D01*
X170100Y199600D02*Y197400D01*
X172700Y199600D02*Y197400D01*
X175200Y199600D02*Y197400D01*
X177800Y199600D02*Y197400D01*
X180300Y199600D02*Y197400D01*
X182900Y199600D02*Y197400D01*
G54D400*X246500Y216000D03*
X245500Y236500D03*
X256500Y250500D03*
X260500Y239000D03*
X240000Y209500D03*
X275000Y202000D03*
X290500D03*
X293000Y229000D03*
X297500Y269000D03*
G54D418*X336500Y215000D03*
G54D400*X256500Y195500D03*
X150500Y257500D03*
X167600Y233000D03*
X175500Y233500D03*
X161500Y212000D03*
X165000Y205000D03*
X225500Y199000D03*
G54D419*G54D420*G54D419*G54D421*G54D422*G54D400*G54D421*G54D423*G54D424*G54D421*G54D400*M02*
