M48
INCH
T228C0.012
T227C0.032
T226C0.024
T225C0.047
T224C0.118
T223C0.047
T222C0.050
T221C0.118
T220C0.039
%
T228
X026150Y023100
X027000Y026120
X026670Y023430
X026381Y025489
X025740Y025350
X025800Y022800
T226
X029550Y026400
X022050Y022720
X028290Y024760
X028000Y022050
X029550Y023850
X020420Y021660
X017690Y022060
X018700Y021610
X031390Y023350
X030860Y025750
X022160Y026720
X014940Y023440
X020500Y023400
T227
X025150Y026000
T220
X011375Y023299
X012355Y022319
X012355Y023299
X011375Y022319
T225
X015230Y016290
X018700Y017400
X019500Y020500
X019500Y024600
T223
X031970Y022818
X031970Y024000
X031970Y021637
X030789Y024000
X030789Y022818
X030789Y021637
X024400Y021200
X024400Y020200
X023400Y020200
X023400Y021200
X022400Y020200
X022400Y021200
T222
X013657Y017751
X013657Y015651
T221
X010305Y020439
X010305Y025179
T224
X033671Y022818
M30
