M48
INCH
T217C0.012
T216C0.032
T215C0.024
T214C0.047
T213C0.118
T212C0.047
T211C0.050
T210C0.118
T209C0.039
%
T217
X027000Y026120
X026150Y025500
X026670Y023430
X025800Y022800
X026150Y023100
X025800Y025400
T215
X022700Y025400
X027850Y025100
X027700Y022500
X022800Y023950
X029550Y023850
X020420Y021660
X020500Y023400
X018700Y021610
X031390Y023350
X030860Y025750
X029550Y026400
X017140Y024170
X017690Y022060
T216
X025150Y026000
T209
X012355Y022319
X011375Y023299
X012355Y023299
X011375Y022319
T214
X018700Y017400
X016400Y016900
X019500Y020500
X019500Y024600
T212
X031970Y022818
X031970Y024000
X030789Y024000
X030789Y022818
X031970Y021637
X030789Y021637
X024400Y021200
X024400Y020200
X023400Y020200
X023400Y021200
X022400Y020200
X022400Y021200
T211
X013657Y017751
X013657Y015651
T210
X010305Y020439
X010305Y025179
T213
X033671Y022818
M30
