M48
INCH
T214C0.047
T213C0.024
T212C0.012
T211C0.032
T210C0.135
T209C0.047
T208C0.050
T207C0.118
T206C0.039
%
T212
X026381Y025489
X027000Y026120
X026670Y023430
X025740Y022160
X026160Y022880
X025740Y025350
T213
X014940Y023440
X030860Y025750
X028290Y024760
X031390Y023350
X029550Y023850
X028000Y022050
X022160Y026720
X016200Y020480
X022680Y022820
X020500Y023400
X020420Y021660
X029390Y026290
T211
X025150Y026000
T206
X011375Y022319
X012355Y023299
X011375Y023299
X012355Y022319
T214
X018700Y017400
X019500Y020500
X019500Y024600
T209
X024400Y020200
X023400Y020200
X023400Y021200
X031985Y022823
X022400Y021200
X022400Y020200
X031985Y024004
X031985Y021642
X030804Y024004
X030804Y022823
X030804Y021642
X024400Y021200
T208
X013657Y015651
X013657Y017751
T207
X010305Y020439
X010305Y025179
T210
X033680Y022820
M30
