M48
INCH
T207C0.012
T206C0.024
T205C0.032
T204C0.047
T203C0.118
T202C0.047
T201C0.050
T200C0.118
T199C0.039
%
T207
X027000Y026120
X026670Y023430
X025800Y022800
X026150Y025500
X025800Y025400
X026150Y023100
T206
X022700Y025400
X027700Y022500
X027850Y025100
X022800Y023950
X020420Y021660
X020500Y023400
X029550Y026400
X029550Y023850
T205
X017180Y022050
X025150Y026000
T199
X011375Y023299
X011375Y022319
X012355Y022319
X012355Y023299
T204
X019500Y020500
X019500Y024600
X016400Y016900
X018700Y017400
T202
X030789Y022818
X022400Y021200
X022400Y020200
X023400Y021200
X023400Y020200
X024400Y020200
X024400Y021200
X030789Y021637
X030789Y024000
X031970Y021637
X031970Y024000
X031970Y022818
T201
X013657Y017751
X013657Y015651
T200
X010305Y020439
X010305Y025179
T203
X033671Y022818
M30
