G04 start of page 3 for group 1 idx 1 *
G04 Title: (unknown), solder *
G04 Creator: pcb 20110918 *
G04 CreationDate: Sat Feb 25 23:37:01 2012 UTC *
G04 For: mldelibero *
G04 Format: Gerber/RS-274X *
G04 PCB-Dimensions: 600000 500000 *
G04 PCB-Coordinate-Origin: lower left *
%MOIN*%
%FSLAX25Y25*%
%LNBOTTOM*%
%ADD90C,0.1350*%
%ADD89C,0.0472*%
%ADD88C,0.1181*%
%ADD87C,0.0393*%
%ADD86C,0.0472*%
%ADD85C,0.0236*%
%ADD84C,0.0118*%
%ADD83C,0.0315*%
%ADD82C,0.0600*%
%ADD81C,0.0300*%
%ADD80C,0.0240*%
%ADD79C,0.0290*%
%ADD78C,0.0400*%
%ADD77R,0.0512X0.0512*%
%ADD76C,0.1390*%
%ADD75C,0.0038*%
%ADD74C,0.0537*%
%ADD73C,0.0787*%
%ADD72C,0.0540*%
%ADD71C,0.1500*%
%ADD70C,0.1250*%
%ADD69C,0.0080*%
%ADD68C,0.0550*%
%ADD67C,0.0650*%
%ADD66C,0.0450*%
%ADD65C,0.0430*%
%ADD64C,0.0130*%
%ADD63C,0.0150*%
%ADD62C,0.0500*%
%ADD61C,0.0001*%
%ADD60C,0.0010*%
G54D60*X91000Y284000D02*X346800Y284500D01*
Y134500D02*X91000Y134000D01*
Y284000D01*
X346800Y284500D02*Y134500D01*
G54D61*G36*
X113745Y239600D02*X118700D01*
Y228500D01*
X113745D01*
Y229480D01*
X113750Y229479D01*
X114299Y229522D01*
X114835Y229651D01*
X115344Y229862D01*
X115814Y230150D01*
X116233Y230507D01*
X116590Y230926D01*
X116878Y231396D01*
X117089Y231905D01*
X117218Y232441D01*
X117250Y232990D01*
X117218Y233539D01*
X117089Y234075D01*
X116878Y234584D01*
X116590Y235054D01*
X116233Y235473D01*
X115814Y235830D01*
X115344Y236118D01*
X114835Y236329D01*
X114299Y236458D01*
X113750Y236501D01*
X113745Y236500D01*
Y239600D01*
G37*
G36*
X103600D02*X113745D01*
Y236500D01*
X113201Y236458D01*
X112665Y236329D01*
X112156Y236118D01*
X111686Y235830D01*
X111267Y235473D01*
X110910Y235054D01*
X110622Y234584D01*
X110411Y234075D01*
X110282Y233539D01*
X110239Y232990D01*
X110282Y232441D01*
X110411Y231905D01*
X110622Y231396D01*
X110910Y230926D01*
X111267Y230507D01*
X111686Y230150D01*
X112156Y229862D01*
X112665Y229651D01*
X113201Y229522D01*
X113745Y229480D01*
Y228500D01*
X103600D01*
Y239600D01*
G37*
G36*
X306604Y202500D02*X292000D01*
Y219300D01*
X304010D01*
X303623Y218668D01*
X303325Y217950D01*
X303144Y217195D01*
X303083Y216420D01*
X303144Y215645D01*
X303325Y214890D01*
X303623Y214172D01*
X304029Y213509D01*
X304533Y212918D01*
X305124Y212414D01*
X305787Y212008D01*
X306505Y211710D01*
X307260Y211529D01*
X308035Y211468D01*
X308810Y211529D01*
X309565Y211710D01*
X309700Y211766D01*
Y209947D01*
X307284Y209943D01*
X307131Y209906D01*
X306986Y209846D01*
X306851Y209764D01*
X306732Y209661D01*
X306629Y209542D01*
X306547Y209407D01*
X306487Y209262D01*
X306450Y209109D01*
X306441Y208952D01*
X306450Y202891D01*
X306487Y202738D01*
X306547Y202593D01*
X306604Y202500D01*
G37*
G36*
X222000Y231800D02*X232800D01*
Y224600D01*
X222000D01*
Y231800D01*
G37*
G54D62*X187000Y174000D02*X186970Y174030D01*
X180486Y170030D01*
X159430D02*X173400D01*
X134490Y156510D02*X139180Y161200D01*
X136570Y156510D02*X158110D01*
X159930Y163930D01*
X158900Y162900D02*X159430Y170030D01*
X139180Y161200D02*X155100D01*
X158400Y164500D01*
X166100D01*
X163900Y166700D01*
Y170030D01*
X167230Y166700D01*
X170500D01*
X251500Y260000D02*X258286D01*
X259601Y258685D01*
G54D63*X263806Y256680D01*
G54D64*Y254794D02*X261500Y249100D01*
G54D62*X234000Y202000D02*Y199000D01*
X227000Y192000D01*
X223000D01*
X210000Y205000D01*
Y209000D01*
X213000Y212000D01*
X244000Y202000D02*X250900D01*
Y195700D01*
X243800D01*
Y202000D01*
Y199000D02*X250900D01*
G54D64*X234000Y212000D02*Y215500D01*
G54D62*X214323Y259605D02*X220323Y265605D01*
G54D64*X221659Y266941D02*Y264241D01*
G54D65*X234000Y215500D02*X226800Y228200D01*
G54D62*X213000Y212000D02*X214323Y259605D01*
G54D64*X204600Y237200D02*X205200D01*
X207600Y234800D01*
G54D62*X204200Y216600D02*Y233200D01*
X205000Y234000D01*
G54D64*X201400D01*
X201000Y233600D01*
X204600Y237200D01*
G54D62*X252600Y233400D02*Y250700D01*
X254300Y252400D01*
G54D64*X257400Y253500D02*X254450Y254000D01*
X257500Y253500D02*X254400Y250300D01*
X252600D01*
G54D62*Y226400D02*Y232900D01*
G54D66*X260300Y249800D02*Y236300D01*
G54D64*X258100Y230700D02*X258300Y230900D01*
Y230800D01*
X259600Y229500D01*
G54D67*X257400Y221600D02*X252600Y226400D01*
G54D64*X258500Y228800D02*X258300Y228600D01*
X258200Y227600D02*X258100Y227500D01*
X261600Y228500D02*X260400Y229700D01*
X260300Y235600D01*
X261600Y228800D02*X261500Y236800D01*
X261600Y228800D02*X258500D01*
X263500Y227600D02*X258200D01*
X259600Y229500D02*X262300D01*
X263300Y227600D02*Y227800D01*
X261950Y229150D01*
X258300Y228600D02*Y230900D01*
X258100Y227500D02*Y230700D01*
X258300Y230900D02*X263400D01*
Y227700D01*
X263500Y227600D01*
X262300Y229500D02*X262600Y229800D01*
X261600Y228800D01*
G54D62*X295500Y228768D02*X307894Y216374D01*
X303900Y206000D02*Y216200D01*
X270000Y259600D02*Y237300D01*
Y237700D02*Y241000D01*
X266500Y234200D02*X270000Y237700D01*
X307200Y203500D02*X304300Y206400D01*
G54D64*X295500Y238500D02*X293900Y240100D01*
G54D62*X295500Y261300D02*Y238500D01*
X293900Y262900D02*X295500Y261300D01*
G54D63*X263806Y256680D02*Y254894D01*
G54D62*X280000Y220500D02*X281400Y246100D01*
X282900Y247600D01*
X319705Y216374D02*X321000Y215079D01*
Y205100D01*
X323900Y212179D02*Y204100D01*
X326500Y214400D02*Y204200D01*
X319705Y216374D02*X323900Y212179D01*
X319900Y217200D02*X323700D01*
X326500Y214400D01*
X319705Y216374D02*Y208619D01*
X317086Y206000D01*
X308134Y208259D02*Y216134D01*
X319705Y216374D02*X316900Y213569D01*
Y209600D01*
X323200Y201500D02*X317000D01*
X316200Y201700D02*X317100Y202600D01*
Y208400D01*
X319846Y246254D02*X308600Y257500D01*
X326800Y224200D02*X327100Y223900D01*
X324285D01*
X320000Y228185D01*
X323885D01*
X322450Y224050D02*X322600Y223900D01*
X317900D01*
X319885Y228185D02*X326800Y235100D01*
Y224200D01*
X323885Y228185D02*X323900Y228200D01*
X322000Y231200D02*X322450Y230750D01*
Y224050D01*
G54D64*X324600Y233500D02*X324900Y233200D01*
G54D62*X323900Y228200D02*X319400D01*
G54D64*X316800Y233700D02*Y233500D01*
G54D62*X319846Y240042D02*Y246254D01*
X319705Y228185D02*X319885D01*
X319400Y228200D02*X316500Y225300D01*
G54D68*Y230500D01*
G54D62*X317900Y223900D02*X316500Y225300D01*
G54D64*X315000Y232000D02*X314600Y231600D01*
G54D62*X315800Y231200D02*X322000D01*
G54D64*X313900Y233500D02*X324600D01*
X314600Y232400D02*X313800Y233200D01*
G54D66*X316500Y230500D02*X315800Y231200D01*
G54D64*X316100Y233500D02*X314900D01*
X314200Y236300D02*Y235400D01*
X316100Y233500D01*
X314900D02*X313000Y235400D01*
X313400Y236300D02*X314200D01*
X316800Y233700D01*
X311800Y233100D02*X312500Y232400D01*
X314600D01*
G54D69*Y231600D02*X312900D01*
G54D64*X313000Y235400D02*Y234300D01*
G54D69*X311800Y233100D01*
G54D64*X313800Y233200D02*X311900D01*
X311800Y233300D01*
Y234700D01*
X313400Y236300D01*
G54D62*X113750Y223190D02*Y217804D01*
X115364Y216190D01*
X112300Y234440D02*Y237000D01*
G54D64*X113750Y232990D02*X108840Y237900D01*
X105200D01*
G54D62*X113750Y232990D02*X112440Y234300D01*
X107900D01*
X112300Y234440D02*X115020Y231720D01*
X113750Y232990D02*X115660Y234900D01*
X116600D01*
X113750Y232990D02*X112000Y231240D01*
X113750Y223190D02*X108500D01*
X113750D02*X108860Y218300D01*
X111203Y215797D02*X106800Y220200D01*
X113750Y218400D02*X109900Y222250D01*
X115364Y216583D02*Y223100D01*
Y215797D02*X111203D01*
X123550Y223190D02*X125800Y220940D01*
X123550Y223190D02*Y217290D01*
X122450Y216190D01*
X122300Y212900D02*Y223370D01*
X124800D01*
X123550Y223190D02*X129900D01*
Y214500D01*
X129300Y212900D02*X122300D01*
X125800Y220940D02*Y215600D01*
X123550Y223190D02*X129300Y217440D01*
Y214800D01*
X103050Y251790D02*X92100D01*
X99340Y255500D02*X93200D01*
X99260Y248000D02*X92200D01*
X96800Y246290D02*Y226100D01*
X104500Y218400D01*
X113750D01*
X109900Y222250D02*X100650D01*
X107360Y256100D02*X112500D01*
X103240Y251600D02*X113300D01*
X108140Y246700D02*X113100D01*
X108140D02*X102900Y251940D01*
X103050Y251790D02*X105600Y249240D01*
X99260Y248000D02*X107360Y256100D01*
X99340Y255500D02*X103240Y251600D01*
X102900Y251940D02*Y258100D01*
X103050Y251790D02*X102400Y251140D01*
X102300Y251790D02*X96800Y246290D01*
X113900Y258400D02*X113200Y259100D01*
X94200D01*
X195000Y205000D02*Y246000D01*
G54D64*X194750Y234950D02*X195000Y235200D01*
G54D62*Y246000D02*X194500Y245500D01*
X182043D01*
X184400Y243143D02*X182043Y245500D01*
X186800Y240600D02*X192700Y245400D01*
X190500Y240100D02*X189100D01*
G54D64*X185400Y242700D02*X184700Y242000D01*
X184800Y240800D02*X186700Y242700D01*
X185600Y240400D02*X187200Y242000D01*
X184600Y239800D02*Y239900D01*
G54D62*X184400Y239100D02*Y243143D01*
Y240600D02*X186800D01*
X189100Y240100D02*X185700Y236700D01*
X188300Y233700D02*X190350Y235750D01*
Y244150D01*
G54D64*X185400Y245500D02*Y242700D01*
X183400Y246800D02*X186300Y248600D01*
X182300Y248700D01*
G54D62*X181800Y250000D02*X197400D01*
X198600Y248800D01*
Y241500D01*
X196700Y239600D01*
X195000D01*
X174957Y245893D02*X171800Y242736D01*
X171182Y242118D02*X174000Y244936D01*
Y251000D01*
X167500Y244500D01*
X162800Y246200D02*X169000Y252400D01*
X174000D01*
X167500Y244500D02*Y235000D01*
X170100Y237600D01*
X174300D01*
X174957Y238257D01*
Y245500D01*
X175600Y233400D02*X164000D01*
X162400Y235000D01*
X164200Y233400D02*X162800Y234800D01*
Y246200D01*
X149400Y234400D02*X149500Y234500D01*
X167500D01*
X149400Y234400D02*X145600D01*
X153100D01*
X158100Y239400D01*
X159800Y237200D02*X160000D01*
X159500Y248100D02*Y242300D01*
X159800Y242000D01*
G54D62*X123550Y223190D03*
Y232990D03*
X113750D03*
G54D66*Y223190D03*
G54D70*X103050Y251790D03*
G54D71*Y204390D03*
G54D72*X136570Y156510D03*
Y177510D03*
G54D73*X224000Y212000D03*
Y202000D03*
X234000Y212000D03*
Y202000D03*
G54D74*X244000D03*
G54D73*Y212000D03*
X308035Y216420D03*
G54D75*X305744Y219582D02*X304968Y220358D01*
X308848D01*
Y221037D02*Y219582D01*
G54D73*X308035Y228231D03*
Y240042D03*
X319846Y216420D03*
Y240042D03*
G54D75*X319204Y243204D02*X316779Y245144D01*
X319204Y245629D02*Y243204D01*
X316779Y245144D02*X320659D01*
G54D73*X319846Y228231D03*
G54D76*X336800Y228200D03*
G54D77*X115364Y216583D02*Y215797D01*
X122450Y216583D02*Y215797D01*
X174957Y245893D02*Y245107D01*
X182043Y245893D02*Y245107D01*
X173400Y170423D02*Y169637D01*
X180486Y170423D02*Y169637D01*
X310000Y206393D02*Y205607D01*
X317086Y206393D02*Y205607D01*
G54D78*X251500Y260000D03*
G54D79*X263806Y254894D03*
X257400Y253500D03*
G54D80*X270000Y261200D03*
G54D78*X221600Y267200D03*
X282900Y247600D03*
G54D80*X266700Y234300D03*
G54D78*X280000Y220500D03*
G54D81*X308600Y257500D03*
G54D78*X293900Y262900D03*
G54D81*X295500Y238500D03*
X313900Y233500D03*
G54D78*X226800Y228200D03*
G54D80*X261600Y228800D03*
X257400Y221600D03*
G54D68*X187000Y174000D03*
G54D82*X195000Y205000D03*
G54D78*X204200Y216600D03*
X149400Y234400D03*
X162000Y204800D03*
X205000Y234000D03*
G54D82*X195000Y246000D03*
G54D83*G54D84*G54D85*G54D84*G54D85*G54D84*G54D86*G54D85*G54D86*G54D87*G54D88*G54D62*G54D89*G54D90*M02*
