M48
INCH
T179C0.012
T178C0.024
T177C0.032
T176C0.047
T175C0.118
T174C0.047
T173C0.050
T172C0.118
T171C0.039
%
T179
X027000Y026120
X026670Y023430
X025800Y022800
X026150Y025500
X025800Y025400
X026150Y023100
T178
X022700Y025400
X027700Y022500
X027850Y025100
X022800Y023950
X020420Y021660
X020500Y023400
X029550Y026400
X029550Y023850
T177
X017180Y022050
X025150Y026000
T171
X011375Y023299
X011375Y022319
X012355Y022319
X012355Y023299
T176
X019500Y020500
X019500Y024600
X016400Y016900
X018700Y017400
T174
X030789Y022818
X022400Y021200
X022400Y020200
X023400Y021200
X023400Y020200
X024400Y020200
X024400Y021200
X030789Y021637
X030789Y024000
X031970Y021637
X031970Y024000
X031970Y022818
T173
X013657Y017751
X013657Y015651
T172
X010305Y020439
X010305Y025179
T175
X033671Y022818
M30
