M48
INCH
T347C0.047
T346C0.024
T345C0.135
T344C0.050
T343C0.118
T342C0.039
T341C0.047
%
T346
X026800Y017400
X026600Y014000
X024860Y021290
X027200Y020000
X024600Y020750
X027700Y021910
X028650Y021950
X025190Y022450
X020900Y022500
X021940Y020630
X015200Y020600
X015770Y019980
X018380Y024150
X023080Y023930
X022830Y020600
X014100Y023100
X025880Y015210
T342
X012355Y022319
X011375Y023299
X011375Y022319
X012355Y023299
T347
X017970Y019490
T341
X031985Y022823
X021910Y027280
X022910Y026280
X022910Y025280
X021910Y026280
X021910Y025280
X030804Y021642
X030804Y022823
X030804Y024004
X031985Y021642
X031985Y024004
X022910Y027280
T344
X032590Y018470
X032590Y016370
T343
X010305Y020439
X010305Y025179
T345
X033680Y022820
M30
