M48
INCH
T174C0.047
T173C0.024
T172C0.012
T171C0.032
T170C0.118
T169C0.047
T168C0.050
T167C0.118
T166C0.039
%
T172
X026500Y025950
X026500Y023350
X026150Y023100
X025800Y022800
X026150Y025500
X025800Y025400
T173
X020700Y021900
X022700Y025400
X020500Y023400
X027850Y025100
X022800Y023950
X029550Y026400
X029550Y023850
X027700Y022500
T171
X025150Y026000
X017180Y022050
T166
X012355Y022319
X012355Y023299
X011375Y023299
X011375Y022319
T174
X019500Y020500
X016400Y016900
X018700Y017400
X019500Y024600
T169
X030789Y022818
X022400Y021200
X022400Y020200
X023400Y021200
X023400Y020200
X024400Y020200
X024400Y021200
X030789Y021637
X030789Y024000
X031970Y021637
X031970Y024000
X031970Y022818
T168
X013657Y017751
X013657Y015651
T167
X010305Y020439
X010305Y025179
T170
X033671Y022818
M30
