G04 start of page 2 for group 0 idx 0 *
G04 Title: (unknown), component *
G04 Creator: pcb 20110918 *
G04 CreationDate: Wed Mar  7 19:55:20 2012 UTC *
G04 For: mldelibero *
G04 Format: Gerber/RS-274X *
G04 PCB-Dimensions: 600000 500000 *
G04 PCB-Coordinate-Origin: lower left *
%MOIN*%
%FSLAX25Y25*%
%LNTOP*%
%ADD40C,0.1350*%
%ADD39C,0.1181*%
%ADD38C,0.0393*%
%ADD37C,0.0472*%
%ADD36C,0.0472*%
%ADD35C,0.0236*%
%ADD34C,0.0600*%
%ADD33C,0.0210*%
%ADD32R,0.0210X0.0210*%
%ADD31R,0.0180X0.0180*%
%ADD30R,0.1220X0.1220*%
%ADD29R,0.0560X0.0560*%
%ADD28R,0.0512X0.0512*%
%ADD27R,0.1240X0.1240*%
%ADD26C,0.1390*%
%ADD25C,0.0540*%
%ADD24C,0.0537*%
%ADD23C,0.1500*%
%ADD22C,0.2150*%
%ADD21C,0.0787*%
%ADD20C,0.0380*%
%ADD19C,0.2200*%
%ADD18C,0.0350*%
%ADD17C,0.0180*%
%ADD16C,0.0450*%
%ADD15C,0.0400*%
%ADD14C,0.0500*%
%ADD13C,0.0130*%
%ADD12C,0.0001*%
%ADD11C,0.0010*%
G54D11*X104900Y134000D02*X320800D01*
Y134500D02*X346800Y160500D01*
X346700Y258500D02*X321200Y284000D01*
X346700Y258500D02*Y160500D01*
X105000Y284000D02*X90900Y269900D01*
Y148000D01*
X320700Y284000D02*X105000D01*
X90900Y148000D02*X104900Y134000D01*
G54D12*G36*
X292800Y177100D02*X332300D01*
Y158400D01*
X301594D01*
X301600Y158500D01*
X301584Y170967D01*
X301522Y171227D01*
X301419Y171474D01*
X301280Y171702D01*
X301106Y171906D01*
X300902Y172080D01*
X300674Y172219D01*
X300427Y172322D01*
X300167Y172384D01*
X299900Y172400D01*
X292800Y172395D01*
Y177100D01*
G37*
G54D13*X223700Y165500D02*X223950Y165250D01*
X223700Y190400D02*X216467D01*
X219400Y206300D02*X223500Y210400D01*
X218000Y223121D03*
X223000Y230000D02*X221500Y228500D01*
X218589Y228497D02*X219662D01*
G54D14*X223400Y210500D02*Y214000D01*
G54D13*X237211Y218262D02*X236138D01*
X232300Y214424D01*
X228300Y215400D02*X225400Y218300D01*
X225362Y218262D01*
X228300Y206000D02*Y215400D01*
G54D14*X225200Y190700D02*X233800Y199300D01*
Y206600D01*
X232900Y214800D02*Y209600D01*
X227900Y194600D02*X227300Y194000D01*
G54D13*X260786Y181614D02*X268100D01*
X268000Y174000D02*X268386Y174386D01*
Y181614D01*
G54D14*X259700Y181900D02*X248800Y192800D01*
X259800Y181900D02*X252200D01*
X251900Y182000D02*X243600Y190300D01*
X248800Y192800D02*X243400D01*
G54D13*X246300Y191000D02*X255200Y182100D01*
G54D14*X268400Y181700D02*X268000Y182100D01*
Y181800D02*X268200Y181600D01*
Y174200D01*
X268000Y182100D02*X260800D01*
X250100Y161200D02*X250000Y161300D01*
X220100D01*
X249800Y139500D02*X144100D01*
X256600Y149300D02*X167200D01*
G54D13*X246200Y165500D02*X247100Y164600D01*
X255100Y182000D02*X260400D01*
X260786Y181614D01*
G54D14*X250000Y166300D02*X250100Y166400D01*
Y169800D01*
X249800Y170100D01*
X220000D01*
X220300Y166200D02*X251200D01*
X259700Y174800D02*X255000Y170100D01*
X259700Y174500D02*X260900Y173300D01*
Y167700D01*
X260200Y168400D01*
X258500D01*
X255000Y170100D02*X245500D01*
X249600Y161200D02*X249700Y161100D01*
X283800D01*
X283100Y165000D02*X282200Y165900D01*
X250300D01*
G54D13*X272000Y200000D02*X268100Y196100D01*
X272000Y200000D02*X280200Y191800D01*
G54D14*X280300D02*X272200Y199900D01*
X268200Y195900D01*
X277300Y192800D02*X271900D01*
Y198900D01*
G54D13*X268100Y196100D02*Y188700D01*
G54D14*X280500Y189000D02*Y191400D01*
X280300Y190200D02*Y191800D01*
X268200Y195900D02*Y188500D01*
X269200Y189500D01*
X280600D01*
X277300Y192800D01*
X266400Y139900D02*X265400Y138900D01*
X250400D01*
X249800Y139500D01*
X259100Y151800D02*X256600Y149300D01*
X144100Y139500D02*X116200Y167400D01*
Y211300D01*
X167200Y149300D02*X130200Y186300D01*
Y216000D01*
X123200Y223000D01*
G54D13*X261983Y229079D02*X267662D01*
X270721Y232138D01*
X268357Y226521D02*X273279Y231443D01*
X269051Y223962D02*X275838Y230749D01*
X270721Y232138D02*Y240386D01*
X273279Y231443D02*Y240386D01*
X275838Y230749D02*Y240386D01*
X261983Y231638D02*X268162Y237817D01*
X267300Y245900D02*X255338Y233938D01*
X278427Y237400D02*X281157D01*
X281600Y230500D02*X282738Y231638D01*
X313000Y234000D02*X302000D01*
G54D14*X308100Y228200D02*X305700Y225800D01*
X296000D01*
X301900Y234000D02*X299700Y231800D01*
X296500D01*
G54D13*X295879Y226521D02*X296500Y225900D01*
G54D14*X319000Y228000D02*X313000Y234000D01*
X312728D01*
G54D13*X285211Y226521D02*X295879D01*
X289817Y229079D02*X292779D01*
X295900Y232200D01*
X288243Y237793D02*X287900Y237450D01*
X288000Y231629D01*
X282738Y231638D02*X287514D01*
X268162Y237817D02*Y240386D01*
G54D14*X236700Y238700D02*X261300Y263300D01*
Y267600D01*
X264000Y270300D01*
G54D13*X272600Y253543D02*X283757Y251143D01*
X283457Y251343D02*X288600Y248900D01*
X275217Y258300D02*X304900D01*
X274629Y255635D02*X292442D01*
X304900Y258300D02*X319846Y243354D01*
X292442Y255635D02*X308035Y240042D01*
X319846Y243354D02*Y240042D01*
G54D14*X320100Y240000D02*Y243000D01*
X304800Y258300D01*
X308000Y240100D02*X295400Y252700D01*
G54D13*X275838Y242689D02*X278427Y237400D01*
X280807Y244057D02*X275838Y241188D01*
Y240438D01*
X288900Y248700D02*X288800Y237775D01*
X272600Y253543D02*X268162Y257981D01*
Y263614D01*
X273279Y260238D02*X275217Y258300D01*
X270721Y259543D02*X274629Y255635D01*
X273279Y265917D02*Y260238D01*
X270721Y265917D02*Y259543D01*
X273600Y269600D02*X265700D01*
X265862D02*X274138D01*
X275838Y267900D01*
Y265438D01*
X270721Y242689D02*Y244800D01*
X269621Y245900D01*
X267300D01*
G54D14*X264000Y270300D02*X273700D01*
G54D13*X261983Y231638D02*X243446D01*
X261983Y226521D02*X260817D01*
X258000Y229338D01*
X246000D01*
X243446Y231638D02*X242864Y231056D01*
X239514D01*
X255338Y233938D02*X239514D01*
X246000Y229338D02*X245159Y228497D01*
X239514D01*
X261983Y223962D02*X258842Y220821D01*
X239514D01*
X240635Y224500D02*X251900D01*
X237211Y225938D02*X235562D01*
X233200Y228300D01*
Y233236D01*
X236015Y236051D01*
Y239752D01*
X248600Y212900D02*X248356Y213144D01*
X244117D01*
X237211D02*X245544D01*
X246000Y207500D02*X242915Y210585D01*
X239514D01*
G54D14*X173000Y214000D02*X190000D01*
X192200Y211800D01*
G54D15*X199000D01*
G54D14*X198107Y218143D02*X194250Y222000D01*
X181000D01*
G54D13*X176100Y236600D02*Y238900D01*
X176000Y239000D01*
G54D14*X181000Y222000D02*X176000Y227000D01*
G54D13*X175750Y229750D02*X176000Y230000D01*
Y236750D01*
G54D14*Y227000D02*X175750Y229750D01*
G54D13*X181200Y234400D02*Y233067D01*
X183267Y231000D01*
X191500Y236600D02*X194100Y234000D01*
X191500Y234400D02*X191900Y234000D01*
X195000D01*
X194000Y235000D01*
X192000D01*
X213983Y220821D02*X209821D01*
G54D14*X207000Y218000D02*X197000D01*
D03*
Y225820D01*
G54D13*X204543Y225000D02*X204643Y224900D01*
X209821Y220821D02*X207000Y218000D01*
X204543Y225393D02*X204936Y225000D01*
X209000D01*
X210879Y223121D01*
X218000D01*
X183267Y231000D02*X218000D01*
X194100Y234000D02*X217000D01*
G54D14*X194000Y236000D02*X214000D01*
G54D13*X217000Y234000D02*X216000Y235000D01*
Y236000D01*
X239514Y223379D02*X240635Y224500D01*
X238179Y220821D02*X227179D01*
X224621Y223379D01*
X216286D01*
X219662Y228497D02*X216286D01*
X221500Y228500D02*X216100D01*
X219662Y228497D02*X222200Y231035D01*
X222097Y215703D02*X216286D01*
X225362Y218262D02*X216286D01*
G54D14*X225000Y234000D02*Y232000D01*
X223000Y230000D01*
G54D13*X222200Y231035D02*X221800Y231435D01*
Y234000D01*
X206000Y210957D02*X205600Y210557D01*
X206100Y210600D02*X204800Y209300D01*
X211543Y206299D02*Y205000D01*
X211200Y205900D02*X215800Y210500D01*
X218400D01*
X214900D02*X211300Y206900D01*
Y205600D01*
X188800Y203967D02*Y206400D01*
X173500Y203867D02*Y206400D01*
G54D14*X169200Y211800D02*X171000D01*
Y212000D02*X173000Y214000D01*
G54D13*X171050Y211750D02*Y205000D01*
G54D15*X185200Y200500D02*Y202418D01*
G54D16*X172600Y200200D02*X185200D01*
G54D14*X170500Y195600D02*X184800D01*
G54D15*X185100Y204500D02*Y205800D01*
G54D13*X188800Y203200D02*Y207300D01*
X167500Y242500D02*X169000Y244000D01*
G54D17*X183800Y235500D02*Y241500D01*
G54D13*X177000Y241000D02*X176000Y240000D01*
Y237803D01*
X162400Y242529D02*X160900Y244029D01*
X161100Y243700D02*X158200Y240800D01*
X156900Y241700D02*X157200Y241400D01*
X158700D01*
X158400Y241700D01*
X157000D01*
X168607Y251086D02*X169000Y251479D01*
X168607Y264315D02*X168550Y264258D01*
G54D14*X161000Y264800D02*X169300D01*
X169000Y257400D02*Y251100D01*
G54D13*X158200Y240800D02*Y234300D01*
X157300Y234500D02*X156900Y234900D01*
Y241700D01*
G54D14*X141000Y231000D02*X150000D01*
X126000Y233000D02*X124000D01*
G54D13*X168400Y243400D02*X163300Y238300D01*
Y234900D01*
G54D14*X175007Y264000D02*X169000D01*
X177000Y265000D02*Y241000D01*
G54D13*X170343Y195493D02*X170171Y195665D01*
X170343Y195493D02*X170171Y195321D01*
G54D14*X163257Y195493D02*X163250Y195500D01*
X152000Y206000D02*X156400D01*
G54D13*X160700Y205300D02*Y210300D01*
X170700Y207400D02*X170800Y207300D01*
X163250Y201469D02*X163200Y201518D01*
Y207600D01*
X165800Y205300D02*Y203900D01*
G54D14*X163257Y194707D02*X159776D01*
X157700Y196783D01*
Y198900D01*
X158000Y199600D02*X157700Y199900D01*
X157900Y199700D01*
X162900D01*
G54D18*X163250Y195500D02*Y201469D01*
G54D13*X165800Y203900D02*X171100Y198600D01*
G54D14*X170343Y195493D02*Y198700D01*
X172831Y201188D01*
X170900Y195800D02*X171200Y195500D01*
X150000Y231000D02*X169200Y211800D01*
G54D13*X171000D02*X171050Y211750D01*
X160700Y210300D02*X159000Y212000D01*
G54D14*X154000Y217000D01*
X142000D01*
X126000Y233000D01*
X116200Y211300D02*X114000Y213500D01*
Y223000D01*
G54D13*X160507Y251115D02*X160900Y251508D01*
G54D19*X103000Y252000D02*X115258Y264258D01*
G54D14*X160742D01*
X160900Y264700D02*X161000Y264800D01*
X160900Y257600D02*Y251300D01*
G54D13*X190900Y273593D02*X191493Y273000D01*
X204103Y273593D02*X204696Y273000D01*
G54D14*X183814Y272807D02*X175007Y264000D01*
X190950Y273130D02*X196730D01*
X190900Y272807D02*X190955Y272862D01*
X204103Y273593D03*
X218607Y273393D01*
X229000Y273000D02*X239500Y262500D01*
Y252400D01*
X230700Y243600D01*
Y239300D01*
X218607Y273393D02*X220000Y272000D01*
X219000Y263000D02*X211000Y255000D01*
Y246000D01*
X213000D01*
X225000Y234000D01*
G54D15*X185400Y195600D02*Y202100D01*
G54D14*X201900Y190100D02*X193000Y199000D01*
G54D13*X188800Y203200D01*
G54D14*X221900Y190100D02*X201900D01*
X227300Y194000D02*X202500D01*
X204100Y195600D01*
X227700D01*
G54D20*X205000Y209300D02*Y203500D01*
G54D13*X334607Y191000D02*X328007Y184400D01*
X325800D01*
X325314Y183914D01*
X306686D01*
G54D14*X324500Y183500D02*X306200D01*
X315000Y190800D02*X314700Y191100D01*
Y197400D01*
G54D13*X334607Y198086D02*X334521Y198000D01*
X322086D01*
G54D14*X321900Y198200D02*X322200Y198500D01*
X335200D01*
X335000Y190600D02*X329000Y184600D01*
X325600D01*
X324500Y183500D01*
G54D13*X281600Y209000D02*Y230500D01*
X272800Y208800D02*Y227711D01*
X285211Y223962D02*X286500Y222673D01*
Y219500D01*
X277000Y219100D02*X281600D01*
X268500Y226664D02*X268357Y226521D01*
X264286D01*
X268538Y223962D02*X264286D01*
X315000Y211000D02*X320000Y216000D01*
X315000Y211000D02*Y191000D01*
G54D14*X307600Y216100D02*X301800Y210300D01*
X319700Y217100D02*X314800Y212200D01*
Y197900D01*
G54D13*X289300Y192300D02*X272800Y208800D01*
X280200Y191800D02*Y189000D01*
G54D14*X301800Y210300D02*X283200D01*
X298000Y195900D02*X286200Y207700D01*
X289300Y186300D02*Y164400D01*
X291100Y171800D02*X300500D01*
Y160900D01*
X294800Y174700D02*X290200D01*
G54D13*X281600Y209000D02*X306686Y183914D01*
G54D14*X288800Y186800D02*X289300Y186300D01*
X306200Y183500D02*X298000Y191700D01*
Y195900D01*
G54D21*X229100Y272800D03*
X219100D03*
X229100Y262800D03*
Y252800D03*
G54D14*X123550Y223190D03*
Y232990D03*
X113750D03*
G54D16*Y223190D03*
G54D22*X103050Y251790D03*
G54D23*Y204390D03*
G54D21*X219100Y262800D03*
G54D24*Y252800D03*
G54D25*X325900Y163700D03*
Y184700D03*
G54D21*X308035Y216420D03*
Y228231D03*
Y240042D03*
X319846Y216420D03*
Y240042D03*
Y228231D03*
G54D26*X336800Y228200D03*
G54D27*X246200Y165500D02*Y165000D01*
Y190900D02*Y190400D01*
G54D28*X260007Y174914D02*X260793D01*
X260007Y182000D02*X260793D01*
X314607Y183914D02*X315393D01*
X314607Y191000D02*X315393D01*
X322086Y198393D02*Y197607D01*
X315000Y198393D02*Y197607D01*
X334607Y191000D02*X335393D01*
X334607Y198086D02*X335393D01*
G54D29*X298300Y192300D02*Y185700D01*
X289300Y192300D02*Y185700D01*
X280200Y192300D02*Y185700D01*
G54D30*X284800Y164600D02*X293800D01*
G54D28*X267707Y181614D02*X268493D01*
X267707Y188700D02*X268493D01*
X288243Y237793D02*Y237007D01*
G54D31*X261983Y231638D02*X266589D01*
X261983Y229079D02*X266589D01*
X261983Y226521D02*X266589D01*
X261983Y223962D02*X266589D01*
G54D28*X280807Y251143D02*X281593D01*
X280807Y244057D02*X281593D01*
X281157Y237793D02*Y237007D01*
G54D31*X275838Y265917D02*Y261311D01*
X273279Y265917D02*Y261311D01*
X270721Y265917D02*Y261311D01*
X268162Y265917D02*Y261311D01*
Y242689D02*Y238083D01*
X270721Y242689D02*Y238083D01*
X273279Y242689D02*Y238083D01*
X275838Y242689D02*Y238083D01*
X285211Y223962D02*X289817D01*
X285211Y226521D02*X289817D01*
X285211Y229079D02*X289817D01*
X285211Y231638D02*X289817D01*
X237211Y225938D02*X241817D01*
X237211Y228497D02*X241817D01*
X237211Y231056D02*X241817D01*
X237211Y233615D02*X241817D01*
X237211Y210585D02*X241817D01*
X237211Y213144D02*X241817D01*
X237211Y215703D02*X241817D01*
X237211Y218262D02*X241817D01*
X237211Y220821D02*X241817D01*
X237211Y223379D02*X241817D01*
G54D27*X223700Y190900D02*Y190400D01*
Y165500D02*Y165000D01*
G54D31*X213983Y223379D02*X218589D01*
X213983Y220821D02*X218589D01*
X213983Y218262D02*X218589D01*
X213983Y215703D02*X218589D01*
X213983Y213144D02*X218589D01*
X213983Y210585D02*X218589D01*
X213983Y233615D02*X218589D01*
X213983Y231056D02*X218589D01*
X213983Y228497D02*X218589D01*
X213983Y225938D02*X218589D01*
G54D32*X181200Y236600D02*Y234400D01*
X178700Y236600D02*Y234400D01*
X176100Y236600D02*Y234400D01*
X173600Y236600D02*Y234400D01*
G54D33*X191500Y236600D02*Y234400D01*
G54D32*X188900Y236600D02*Y234400D01*
X186400Y236600D02*Y234400D01*
X183800Y236600D02*Y234400D01*
G54D28*X168607Y244000D02*X169393D01*
X160507Y244029D02*X161293D01*
G54D32*X163300Y236600D02*Y234400D01*
X160800Y236600D02*Y234400D01*
X168400Y236600D02*Y234400D01*
X165900Y236600D02*Y234400D01*
X171000Y236600D02*Y234400D01*
X158200Y236600D02*Y234400D01*
G54D28*X183814Y273593D02*Y272807D01*
X190900Y273593D02*Y272807D01*
X197017Y273593D02*Y272807D01*
X204103Y273593D02*Y272807D01*
X168607Y251086D02*X169393D01*
X168607Y264315D02*X169393D01*
X168607Y257229D02*X169393D01*
X160507Y264258D02*X161293D01*
X160507Y257172D02*X161293D01*
X160507Y251115D02*X161293D01*
X197457Y225393D02*Y224607D01*
X198107Y218143D02*X198893D01*
X198107Y211057D02*X198893D01*
X204543Y225393D02*Y224607D01*
X205607Y218043D02*X206393D01*
X205607Y210957D02*X206393D01*
X204457Y205393D02*Y204607D01*
X211543Y205393D02*Y204607D01*
X170343Y195493D02*Y194707D01*
X163257Y195493D02*Y194707D01*
G54D32*X163200Y207500D02*Y205300D01*
X165800Y207500D02*Y205300D01*
X168400Y207500D02*Y205300D01*
X170900Y207500D02*Y205300D01*
X178600Y207500D02*Y205300D01*
X181200Y207500D02*Y205300D01*
X183700Y207500D02*Y205300D01*
X186300Y207500D02*Y205300D01*
X188800Y207500D02*Y205300D01*
X191400Y207500D02*Y205300D01*
X173500Y207500D02*Y205300D01*
X176000Y207500D02*Y205300D01*
X158100Y207500D02*Y205300D01*
X160700Y207500D02*Y205300D01*
G54D15*X268000Y174000D03*
X258800Y152100D03*
X266000Y140000D03*
X286500Y219500D03*
X248600Y212900D03*
X272000Y200000D03*
X246000Y207500D03*
X277000Y219100D03*
X251900Y224500D03*
X209000Y225000D03*
X219400Y206300D03*
X152000Y206000D03*
X157700Y199800D03*
G54D34*X179700Y194900D03*
G54D15*X230800Y239300D03*
X183800Y241500D03*
X141000Y231000D03*
X228300Y206000D03*
G54D35*G54D36*G54D35*G54D37*G54D38*G54D39*G54D37*G54D14*G54D37*G54D40*M02*
