M48
INCH
T221C0.047
T220C0.024
T219C0.012
T218C0.032
T217C0.135
T216C0.047
T215C0.050
T214C0.118
T213C0.039
%
T219
X025740Y025350
X025740Y022160
X026160Y022880
X026670Y023430
X027000Y026120
X026381Y025489
T220
X020500Y023400
X014940Y023440
X020420Y021660
X028290Y024760
X022160Y026720
X022680Y022820
X031390Y023350
X029550Y023850
X029390Y026290
X030860Y025750
X028000Y022050
X016200Y020480
T218
X025150Y026000
T213
X012355Y023299
X011375Y023299
X011375Y022319
X012355Y022319
T221
X019500Y024600
X018700Y017400
X019500Y020500
T216
X031985Y022823
X031985Y021642
X030804Y024004
X030804Y022823
X030804Y021642
X024400Y021200
X024400Y020200
X023400Y020200
X023400Y021200
X022400Y020200
X022400Y021200
X031985Y024004
T215
X013657Y017751
X013657Y015651
T214
X010305Y020439
X010305Y025179
T217
X033680Y022820
M30
