G04 start of page 3 for group 1 idx 1 *
G04 Title: (unknown), solder *
G04 Creator: pcb 20110918 *
G04 CreationDate: Wed Mar  7 21:15:41 2012 UTC *
G04 For: mldelibero *
G04 Format: Gerber/RS-274X *
G04 PCB-Dimensions: 600000 500000 *
G04 PCB-Coordinate-Origin: lower left *
%MOIN*%
%FSLAX25Y25*%
%LNBOTTOM*%
%ADD253C,0.1350*%
%ADD252C,0.1181*%
%ADD251C,0.0393*%
%ADD250C,0.0472*%
%ADD249C,0.0472*%
%ADD248C,0.0236*%
%ADD247C,0.0600*%
%ADD246C,0.0400*%
%ADD245R,0.0512X0.0512*%
%ADD244C,0.1390*%
%ADD243C,0.0540*%
%ADD242C,0.0537*%
%ADD241C,0.1500*%
%ADD240C,0.2150*%
%ADD239C,0.0450*%
%ADD238C,0.0787*%
%ADD237C,0.0500*%
%ADD236C,0.0130*%
%ADD235C,0.0010*%
G54D235*X104900Y134000D02*X320800D01*
Y134500D02*X346800Y160500D01*
X346700Y258500D02*X321200Y284000D01*
X346700Y258500D02*Y160500D01*
X105000Y284000D02*X90900Y269900D01*
Y148000D01*
X320700Y284000D02*X105000D01*
X90900Y148000D02*X104900Y134000D01*
G54D236*X266000Y140000D02*X268000Y142000D01*
G54D237*X268100Y174600D02*Y141700D01*
X266400Y140000D01*
X258900Y194100D02*Y152200D01*
X258700Y152000D01*
X268100Y174000D02*X269900Y175800D01*
X322200D01*
X326100Y179700D01*
Y184600D01*
X325700Y185000D01*
G54D236*X114000Y214914D02*X114914Y214000D01*
G54D237*X113500Y223200D02*Y215414D01*
X114757Y214157D01*
X124000Y223000D02*X122000Y221000D01*
X114000Y233000D02*X120000Y239000D01*
X152000Y232000D02*Y206000D01*
X157600Y200100D02*X183800Y226300D01*
Y241600D01*
Y241500D02*X183600Y241300D01*
X145000Y239000D02*X152000Y232000D01*
X122000Y221000D02*Y214000D01*
X124000Y223000D02*X127000D01*
X135000Y231000D01*
X141000D01*
X120000Y239000D02*X145000D01*
G54D236*X206500Y268500D02*X210800Y272800D01*
X219100D01*
G54D237*X209000Y225000D02*X205000Y229000D01*
Y265000D01*
X213000Y273000D01*
X220000D01*
G54D236*X229100Y262800D02*X223500Y257200D01*
Y246600D01*
G54D237*X228700Y253200D02*X239000Y242900D01*
X223500Y246600D02*Y211500D01*
X230700Y208300D02*Y238900D01*
X239000Y242900D02*Y209800D01*
G54D236*X223500Y210400D02*X219400Y206300D01*
G54D237*X228300Y205900D02*X230700Y208300D01*
X239000Y209800D02*X241400Y207400D01*
X246100D01*
X219200Y206100D02*Y207300D01*
X223700Y211800D01*
X248700Y212900D02*X269700D01*
X274600Y208000D01*
X282900D01*
X277500Y219200D02*X259400D01*
X251900Y224600D02*X257300Y219200D01*
X261200D01*
X282900Y208000D02*X286400Y211500D01*
X319400Y216300D02*X303200Y200100D01*
X272300D01*
X271600Y199800D02*X264600D01*
X258900Y194100D01*
X286400Y211500D02*Y218800D01*
X277600Y219100D02*X277500Y219200D01*
G54D238*X229100Y272800D03*
X219100D03*
X229100Y262800D03*
Y252800D03*
G54D237*X123550Y223190D03*
Y232990D03*
X113750D03*
G54D239*Y223190D03*
G54D240*X103050Y251790D03*
G54D241*Y204390D03*
G54D238*X219100Y262800D03*
G54D242*Y252800D03*
G54D243*X325900Y163700D03*
Y184700D03*
G54D238*X308035Y216420D03*
Y228231D03*
Y240042D03*
X319846Y216420D03*
Y240042D03*
Y228231D03*
G54D244*X336800Y228200D03*
G54D245*X114914Y214393D02*Y213607D01*
X122000Y214393D02*Y213607D01*
G54D246*X268000Y174000D03*
X258800Y152100D03*
X266000Y140000D03*
X248600Y212900D03*
X272000Y200000D03*
X246000Y207500D03*
X277000Y219100D03*
G54D237*X286500Y219500D03*
G54D246*X251900Y224500D03*
X209000Y225000D03*
X219400Y206300D03*
X152000Y206000D03*
X157700Y199800D03*
G54D247*X179700Y194900D03*
G54D246*X230800Y239300D03*
X183800Y241500D03*
X141000Y231000D03*
X228300Y206000D03*
G54D248*G54D249*G54D248*G54D250*G54D251*G54D252*G54D250*G54D237*G54D250*G54D253*M02*
