M48
INCH
T470C0.035
T469C0.024
T468C0.118
T467C0.039
T466C0.050
T465C0.135
T464C0.047
%
T469
X015050Y025750
X025650Y019550
X024650Y021600
X024550Y023650
X025650Y025050
X026050Y023900
X024000Y020950
X027500Y020200
X029050Y020200
X029300Y022900
X029750Y026900
X017550Y023350
X016760Y023300
X016150Y021200
X022550Y019900
X016500Y020500
T470
X033650Y021500
T467
X012355Y023299
X011375Y023299
X011375Y022319
X012355Y022319
T464
X019550Y020870
X030804Y022823
X030804Y024004
X031985Y024004
X031985Y022823
X031985Y021642
X021550Y020870
X021550Y021870
X020550Y020870
X020550Y021870
X019550Y021870
X030804Y021642
T466
X026930Y017330
X026930Y015230
X019290Y026950
X019290Y024850
T468
X010305Y025179
X010305Y020439
T465
X033680Y022820
M30
