G04 start of page 2 for group 0 idx 0 *
G04 Title: (unknown), component *
G04 Creator: pcb 20110918 *
G04 CreationDate: Sun Feb 26 01:47:26 2012 UTC *
G04 For: mldelibero *
G04 Format: Gerber/RS-274X *
G04 PCB-Dimensions: 600000 500000 *
G04 PCB-Coordinate-Origin: lower left *
%MOIN*%
%FSLAX25Y25*%
%LNTOP*%
%ADD58C,0.1350*%
%ADD57C,0.0472*%
%ADD56C,0.1181*%
%ADD55C,0.0393*%
%ADD54C,0.0472*%
%ADD53C,0.0236*%
%ADD52C,0.0118*%
%ADD51C,0.0315*%
%ADD50C,0.0600*%
%ADD49C,0.0550*%
%ADD48C,0.0240*%
%ADD47C,0.0290*%
%ADD46R,0.0180X0.0180*%
%ADD45R,0.0560X0.0560*%
%ADD44R,0.1220X0.1220*%
%ADD43C,0.0160*%
%ADD42R,0.0160X0.0160*%
%ADD41R,0.0780X0.0780*%
%ADD40R,0.0512X0.0512*%
%ADD39R,0.0130X0.0130*%
%ADD38C,0.1390*%
%ADD37C,0.0537*%
%ADD36C,0.0787*%
%ADD35C,0.0540*%
%ADD34C,0.1500*%
%ADD33C,0.1250*%
%ADD32C,0.0850*%
%ADD31C,0.0530*%
%ADD30C,0.0330*%
%ADD29C,0.0380*%
%ADD28C,0.0430*%
%ADD27C,0.0230*%
%ADD26C,0.0280*%
%ADD25C,0.0350*%
%ADD24C,0.0050*%
%ADD23C,0.0080*%
%ADD22C,0.0400*%
%ADD21C,0.0450*%
%ADD20C,0.0180*%
%ADD19C,0.0100*%
%ADD18C,0.0250*%
%ADD17C,0.0300*%
%ADD16C,0.0150*%
%ADD15C,0.0200*%
%ADD14C,0.0130*%
%ADD13C,0.0500*%
%ADD12C,0.0001*%
%ADD11C,0.0010*%
G54D11*X105500Y134500D02*X332800D01*
X346800Y148500D01*
X105000Y284000D02*X90900Y269900D01*
Y148000D01*
X104900Y134000D01*
X105000D01*
X105500Y134500D01*
X346800Y148500D02*Y270500D01*
X332800Y284500D01*
X332300Y284000D01*
X105000D01*
G54D12*G36*
X159600Y147900D02*Y153010D01*
X159613D01*
X159614Y152285D01*
X159669Y152055D01*
X159759Y151837D01*
X159883Y151636D01*
X160036Y151456D01*
X160216Y151303D01*
X160417Y151179D01*
X160635Y151089D01*
X160865Y151034D01*
X161100Y151020D01*
X171700Y151027D01*
Y147900D01*
X159600D01*
G37*
G36*
X191053Y172600D02*X190479D01*
X190577Y172838D01*
X190715Y173412D01*
X190750Y174000D01*
X190715Y174588D01*
X190577Y175162D01*
X190500Y175349D01*
Y176720D01*
X190468Y177269D01*
X190339Y177805D01*
X190128Y178314D01*
X189840Y178784D01*
X189483Y179203D01*
X189064Y179560D01*
X188594Y179848D01*
X188085Y180059D01*
X187549Y180188D01*
X187088Y180224D01*
X187328Y180616D01*
X187539Y181125D01*
X187668Y181661D01*
X187700Y182210D01*
Y184280D01*
X187839Y184615D01*
X187968Y185151D01*
X188011Y185700D01*
X187968Y186249D01*
X187839Y186785D01*
X187671Y187190D01*
X187668Y187249D01*
X187539Y187785D01*
X187328Y188294D01*
X187040Y188764D01*
X186683Y189183D01*
X186662Y189200D01*
X198700D01*
Y176309D01*
X198661Y176354D01*
X198542Y176457D01*
X198407Y176539D01*
X198262Y176599D01*
X198109Y176636D01*
X197952Y176645D01*
X191891Y176636D01*
X191738Y176599D01*
X191593Y176539D01*
X191458Y176457D01*
X191339Y176354D01*
X191236Y176235D01*
X191154Y176100D01*
X191094Y175955D01*
X191057Y175802D01*
X191048Y175645D01*
X191053Y172600D01*
G37*
G36*
X152500Y193600D02*X165400D01*
Y190620D01*
X159565Y190606D01*
X159335Y190551D01*
X159117Y190461D01*
X158916Y190337D01*
X158736Y190184D01*
X158583Y190004D01*
X158459Y189803D01*
X158369Y189585D01*
X158314Y189355D01*
X158300Y189120D01*
X158309Y181029D01*
X156363Y180612D01*
X156640Y180936D01*
X156928Y181406D01*
X157139Y181915D01*
X157268Y182451D01*
X157311Y183000D01*
X157268Y183549D01*
X157139Y184085D01*
X156928Y184594D01*
X156640Y185064D01*
X156283Y185483D01*
X155864Y185840D01*
X155394Y186128D01*
X154885Y186339D01*
X154349Y186468D01*
X153800Y186500D01*
X153471D01*
X153468Y186549D01*
X153339Y187085D01*
X153128Y187594D01*
X152840Y188064D01*
X152500Y188462D01*
Y193600D01*
G37*
G36*
X185500Y147800D02*X180400D01*
Y151033D01*
X180817Y151033D01*
X181325Y150525D01*
X181736Y150160D01*
X182206Y149872D01*
X182715Y149661D01*
X183251Y149532D01*
X183800Y149489D01*
X184349Y149532D01*
X184885Y149661D01*
X185394Y149872D01*
X185500Y149937D01*
Y147800D01*
G37*
G54D13*X171700Y186320D02*Y158620D01*
X178180D02*X171700D01*
Y185000D02*Y198650D01*
X162600Y179720D02*X160880Y178000D01*
X176100Y198700D02*Y195200D01*
X171700Y190800D01*
G54D14*X162600Y183020D02*X164600Y185020D01*
Y191900D01*
G54D13*X171700Y165500D02*X165800Y159600D01*
X195000Y153000D02*X177320D01*
X171700Y158620D01*
X183800Y153000D02*X178180Y158620D01*
X189700Y195500D02*X186900Y198300D01*
X136570Y156510D02*X171700D01*
X159900Y159600D02*X159300D01*
X155900Y161800D01*
X165800Y159600D02*X160600D01*
X128000Y183710D02*Y156312D01*
X171650Y198700D02*X183250D01*
X183350Y198600D01*
X184700Y198700D02*X188700D01*
X195000Y205000D01*
X194500Y204500D02*X197000Y202000D01*
X193400Y198700D02*X196700Y202000D01*
X197700Y199900D02*X199800Y202000D01*
X224000D02*X201100D01*
X194600Y195500D01*
X128000Y156312D02*X144312Y140000D01*
X243461D01*
X161400Y151800D02*X178900D01*
X188800Y162500D02*X199900D01*
X195000Y166200D02*X199600D01*
Y159800D01*
X195000D01*
X160880Y178000D02*X151543Y176000D01*
X159500Y184000D02*X155300Y179800D01*
X144457Y176393D02*X143574Y175510D01*
X136570Y177510D01*
X141418Y191000D02*X146543Y196125D01*
X146500Y196168D01*
X150000Y186000D02*X147710Y183710D01*
X159500Y191600D02*Y184000D01*
X151543Y176393D02*X152043Y183957D01*
X150000Y186000D01*
X152099Y184800D02*Y187099D01*
X154300Y189300D01*
X152099Y183000D02*X153800D01*
X155800Y185000D01*
X195000Y173086D02*X187000D01*
X195000Y166000D02*Y160086D01*
Y165200D02*X189800D01*
X195000Y159900D02*X189900D01*
X188800Y165200D02*Y159900D01*
X185790Y182210D02*X191900Y176100D01*
X196100D01*
X188300Y198700D02*X193400D01*
X191700Y185700D02*X184500D01*
X180700Y183020D02*X187000Y176720D01*
Y174000D01*
X181510Y182210D02*X185790D01*
X184200D02*Y186700D01*
X184500Y185700D02*X184200Y185400D01*
X196600Y195500D02*X189700D01*
X197700D02*Y199900D01*
X171700Y198650D02*X171650Y198700D01*
X158540Y214000D02*X165600Y221060D01*
G54D15*X168750Y227560D02*Y224139D01*
G54D16*X163650Y227560D02*Y229650D01*
G54D17*X164500Y230500D02*X170000D01*
G54D18*X171350Y229150D01*
Y228775D01*
G54D19*X158550Y227560D02*X157550Y221000D01*
G54D16*X168750Y224139D02*X165892Y221281D01*
G54D14*X159400Y221880D02*Y223110D01*
X158600Y223910D01*
G54D20*X171350Y223050D02*Y226460D01*
G54D13*X162000Y204800D02*X169200Y212000D01*
X123550Y232990D02*X135040Y221000D01*
X113750Y232990D02*X119760Y239000D01*
X129000D01*
X123550Y223190D02*X132740Y214000D01*
X113750Y223190D02*Y209798D01*
X132548Y191000D01*
X141418D01*
X139457Y199893D02*X139000Y200350D01*
Y206914D01*
X146500Y196168D02*Y206957D01*
X147710Y183710D02*X128000D01*
G54D21*X154800Y182120D02*Y213780D01*
G54D16*X242102Y247118D02*X238882D01*
X242102Y244560D02*X237904D01*
G54D22*X225982Y247118D02*X233484D01*
G54D13*X232514Y248614D02*X233100Y249200D01*
G54D16*X237904Y244560D02*X232000Y249000D01*
G54D14*X235767Y245533D02*X233200Y244800D01*
X237600Y244560D01*
X235767Y245333D01*
G54D23*Y246167D01*
G54D20*X238100Y241700D02*X244104D01*
G54D14*X244405Y242001D01*
Y252236D02*X244841Y251800D01*
G54D22*X233100Y249200D02*Y256800D01*
G54D17*X238643Y248457D02*Y264000D01*
G54D13*X237543D02*X245643Y272100D01*
G54D16*X225236Y252236D02*X221177D01*
G54D14*Y254795D02*X221132Y254750D01*
X214340D01*
X216200D02*X217100Y253850D01*
X217225Y253725D02*X215800Y252300D01*
X221600Y267200D02*Y263100D01*
G54D17*X227000Y254000D02*X225236Y252236D01*
G54D22*X233100Y256800D02*X230457Y259443D01*
G54D21*Y264000D01*
G54D14*X221600Y263100D02*X226200Y258500D01*
Y254600D01*
X226900Y253900D01*
G54D13*X147607Y263086D02*X151375D01*
X138607D02*Y265607D01*
X143000Y270000D01*
X152946D01*
G54D22*X161000Y261946D01*
G54D24*X161150Y261796D01*
G54D13*X151375Y263086D02*X154000Y260461D01*
X103050Y251790D02*X124594D01*
G54D17*X156050Y258411D02*X154230Y260230D01*
G54D15*X161150Y261796D02*Y255560D01*
G54D14*X155000Y256510D02*X153570Y257940D01*
G54D13*X135040Y221000D02*X157000D01*
X129000Y239000D02*X140500Y227500D01*
X154000D01*
X138607Y241914D02*X148000D01*
G54D25*X134470D02*X139086D01*
G54D13*X132740Y214000D02*X158540D01*
G54D16*X156050Y256660D02*Y258411D01*
G54D13*X138607Y256000D02*Y249000D01*
X147607Y256000D02*Y249000D01*
X124594Y251790D02*X132540Y243844D01*
G54D19*X132692Y243692D02*X134470Y241914D01*
G54D14*X155200Y256510D02*X155000D01*
G54D16*X163650Y229650D02*X164500Y230500D01*
G54D17*X170500D02*X173950Y233950D01*
G54D15*X181650Y265829D02*Y255560D01*
G54D16*X181586Y265500D02*Y267414D01*
G54D13*X182020Y265459D02*Y268441D01*
X177421Y273040D01*
X181586Y264750D02*X181650Y264686D01*
G54D18*X189350Y256660D02*X190044Y257354D01*
G54D16*X181586Y265893D02*X181650Y265829D01*
G54D13*X177421Y273040D02*X171579D01*
X167750Y269211D01*
Y261695D01*
X181650Y264686D02*Y260450D01*
G54D19*X166250Y255560D02*X161050Y250360D01*
G54D14*X166000Y256220D02*Y251535D01*
X166250Y255560D02*Y251825D01*
X164820Y257020D02*Y252610D01*
G54D26*X173950Y254850D02*Y251310D01*
G54D14*X163750Y255560D02*Y251120D01*
G54D16*X174500Y265893D02*X173950Y265343D01*
G54D18*Y255560D01*
G54D16*X166000Y255810D02*X166250Y255560D01*
G54D13*X167750Y261695D02*X166898Y260842D01*
G54D27*X166250Y256660D02*Y258170D01*
G54D20*X167750Y259670D01*
G54D14*X164820Y257000D02*X165563Y257743D01*
Y259507D01*
X164820Y257280D02*X164470Y257630D01*
Y259590D01*
G54D13*X183090Y231000D02*X182600D01*
G54D28*X182900Y231030D02*Y226500D01*
G54D14*X177100Y238200D02*X174185D01*
G54D13*X171400Y241700D02*X182150D01*
X179145Y233655D02*X171100Y241700D01*
X177600D01*
X182150D02*X188600Y235250D01*
X185745Y233655D02*X179145D01*
X177600Y241700D02*X183000Y236300D01*
G54D14*X181550Y226460D02*Y224370D01*
X179500Y220900D02*X184300Y225700D01*
X186650Y222700D02*Y225886D01*
G54D13*X186000Y212250D02*X188800Y215050D01*
Y220000D01*
X187350Y213600D02*X185600Y215350D01*
Y220000D01*
X187200Y213450D02*Y213600D01*
X193600Y220000D01*
X174300Y212250D02*Y218500D01*
X169200Y212000D02*X174300D01*
G54D20*Y220100D02*X171350Y223050D01*
G54D13*X174200Y219200D02*X178200D01*
G54D21*X179500Y220500D01*
G54D14*Y220900D01*
G54D22*X195000Y246000D02*X212000D01*
G54D13*X213000Y247000D01*
G54D16*X212118Y247118D02*X211000Y246000D01*
G54D13*X214340Y254750D02*X198360D01*
X218270Y261510D02*X193790D01*
G54D14*X216300Y254750D02*X217000Y255450D01*
X217075Y255525D02*X215700Y256900D01*
G54D13*X198360Y254750D02*X196210Y252600D01*
X193790Y261510D02*X190980Y258700D01*
G54D14*X190570Y258290D02*X189350Y257070D01*
X190840Y255900D02*X190750Y255810D01*
X190700D01*
G54D27*X189350Y257070D02*Y255560D01*
G54D14*X221177Y257354D02*Y258603D01*
G54D29*X218270Y261510D01*
G54D14*X219160D02*X219560Y261110D01*
G54D26*Y258140D01*
G54D14*X219700Y258280D01*
X220480D01*
X219600Y233057D02*X214143Y227600D01*
G54D16*X158500Y225500D02*Y220000D01*
G54D14*X161050Y227560D02*Y228993D01*
X159043Y231000D01*
G54D13*X159160Y232150D02*Y245690D01*
X165180Y251710D01*
X174185Y234185D02*Y250400D01*
X196210Y252600D02*X193980D01*
G54D18*X191400Y250020D01*
G54D17*X180420D01*
G54D14*X179050Y255560D02*Y252260D01*
G54D26*X181290Y250020D01*
G54D13*X197410Y235250D02*X187340D01*
X183090Y231000D01*
X195000Y227000D02*Y234720D01*
G54D14*X197850Y221450D02*X198250Y221850D01*
G54D27*X195350Y222350D02*X199050Y221850D01*
G54D20*X186650Y222350D02*X195350D01*
G54D16*X218874Y247118D02*X225568D01*
G54D20*X221177Y244560D02*X216200D01*
G54D15*X215028Y239200D02*X215913Y240085D01*
G54D27*X214964Y239136D02*Y236764D01*
G54D30*X212600Y234700D01*
G54D20*X213040Y241400D02*X210810D01*
G54D16*X219882Y247118D02*X212118D01*
X218874Y242001D02*X217662D01*
X214500Y239200D02*X215028D01*
G54D14*X216200Y244560D02*X213040Y241400D01*
G54D15*X217462Y241601D02*X216847Y240986D01*
G54D14*X221235Y239500D02*X221177Y239442D01*
G54D16*X224000Y212000D02*X214000D01*
G54D13*X223800D02*X214000D01*
G54D16*X204200Y216600D01*
G54D13*X214000Y212000D02*X204450Y216350D01*
G54D27*X208700Y222200D02*X213600Y221400D01*
G54D20*X230600D01*
G54D14*X210810Y241400D02*X209980Y240570D01*
G54D21*X209910Y240500D01*
X202660D01*
X197410Y235250D01*
G54D13*X212600Y234700D02*X205700D01*
X205000Y234000D01*
G54D27*X198600Y222200D02*X208700D01*
G54D14*X206400Y227600D02*X203400D01*
G54D13*X202143D02*X207000D01*
G54D14*X219600Y233600D02*X213000Y227000D01*
X214143Y228743D02*Y227600D01*
X214800Y228257D01*
Y229400D01*
X219600Y234200D02*Y233600D01*
Y234200D02*X214143Y228743D01*
X219600Y234200D02*Y233057D01*
X230600Y221400D02*X231000Y221800D01*
G54D20*X233700D01*
X236800Y224900D01*
G54D27*Y240400D01*
G54D20*X238100Y241700D01*
G54D31*X226800Y228200D02*X230100Y229700D01*
X229900Y230700D01*
G54D29*Y237300D01*
G54D30*X227700Y239500D01*
G54D20*X221235D01*
G54D19*X295221Y243469D02*Y249689D01*
X294221Y243469D02*Y249689D01*
X293221Y243469D02*Y249689D01*
X292390D02*Y243469D01*
G54D13*X282900Y247600D02*X278500Y262629D01*
G54D16*X281589Y246289D02*X282900Y247600D01*
G54D14*X280811Y249689D01*
X283017Y247200D02*X282817Y247400D01*
G54D13*X278500Y262629D02*X279371Y263500D01*
X286457D02*X293300D01*
X294600Y262200D01*
X294100Y261700D01*
Y259200D01*
G54D19*X297221Y243469D02*Y249689D01*
X292390Y252248D02*X298752D01*
X296221Y243469D02*Y249469D01*
G54D21*X301500Y246390D02*Y249716D01*
G54D19*X298752Y252248D02*X301500Y249500D01*
G54D14*X303000Y253800D02*X302200Y254600D01*
X300300Y251600D02*X299400Y252500D01*
X301595Y246295D02*X302600Y245290D01*
G54D13*X308600Y257500D02*X319846Y246254D01*
G54D14*X298900Y255600D02*X305900D01*
X306000Y255700D01*
X299200Y256500D02*X305800D01*
X306700Y255600D01*
X298106Y254806D02*X299800Y256500D01*
X299400Y252500D02*X297900D01*
X294693Y254806D02*X298106D01*
G54D13*X319705Y228185D02*X313890Y234000D01*
G54D16*X297841Y231341D02*X300900Y234400D01*
G54D15*X313890Y234000D02*X301000D01*
G54D13*X307894Y228185D02*X300842D01*
G54D14*X302500Y232600D02*X300400D01*
X300000Y233000D01*
G54D13*X307894Y239996D02*X301500Y246390D01*
G54D14*X304100Y238100D02*X301595Y240605D01*
Y246295D01*
X302600Y245290D02*Y241200D01*
X305600Y238200D01*
Y238100D01*
G54D13*X295500Y238500D02*X294500Y237500D01*
Y235500D01*
G54D14*Y233500D02*X294700D01*
X298200Y237000D01*
Y238400D01*
X296800Y239800D01*
G54D22*X287721Y227721D02*X286021Y238369D01*
G54D14*X308395Y239495D02*X307000Y238100D01*
X304100D01*
G54D13*X319846Y246254D02*Y240042D01*
X291233Y224233D02*X294500D01*
X290733D02*X289767D01*
X287000Y227000D01*
G54D16*X300405Y228412D02*X294500D01*
G54D19*X292197Y230941D02*X297941D01*
G54D13*X286086Y211300D02*X307268Y217000D01*
X307894Y216374D01*
X243461Y140000D02*X319705Y216244D01*
G54D25*X286021Y238369D02*X262521D01*
G54D13*X287000Y227000D02*X287721Y227721D01*
G54D16*X271272Y230941D02*X271213Y231000D01*
X261600Y228800D01*
X261350Y229050D01*
G54D13*X279000Y211300D02*X278000D01*
X271000Y224000D01*
X280000Y220500D02*X279000D01*
X273000Y222000D01*
X261100Y237800D02*X259500Y235100D01*
G54D15*X295521Y242469D02*X263121Y242269D01*
G54D16*X242102Y254795D02*X253795D01*
G54D14*X248900Y255600D02*X253300D01*
Y255900D01*
X248900D01*
X248700Y255700D01*
G54D16*X256500Y257400D02*X256635Y257365D01*
G54D18*X253795Y255295D02*X256500Y257900D01*
G54D14*X250000Y258300D02*X246500D01*
X245500Y257300D01*
G54D22*X259100Y244700D02*X256700Y241100D01*
X253100D01*
G54D14*X255500Y249500D02*X254500D01*
G54D26*X254100Y249300D02*X250500Y245700D01*
G54D27*X249100Y251800D02*X250000Y250900D01*
G54D14*X251300Y252300D02*X256500D01*
G54D20*X250100Y250800D02*X251400Y252100D01*
G54D26*X248900Y244500D02*X250200Y245800D01*
G54D14*X244841Y251800D02*X249100D01*
G54D16*X242102Y257354D02*X244948Y260200D01*
G54D14*X243800Y257600D02*X245500Y259300D01*
X244700Y261400D02*X241800Y258500D01*
X243800Y257200D02*Y257600D01*
X244500Y257200D02*X245700Y258400D01*
G54D16*X244948Y260200D02*X251700D01*
G54D14*X245500Y259300D02*X250200D01*
X245700Y258400D02*X250100D01*
X250200Y258500D01*
X250000Y258300D01*
X251200Y261300D02*X251800Y260700D01*
X251200Y261100D02*X251900Y260400D01*
X250700Y262100D02*X252000Y260800D01*
X245000Y261100D02*X251200D01*
X244900Y262100D02*X250700D01*
X244700Y262000D02*Y261400D01*
G54D13*X245100Y271557D02*X253343Y279800D01*
G54D16*X244404Y242000D02*X244405Y242001D01*
G54D14*X246100Y239500D02*X251000D01*
X252300Y240800D01*
X249300Y240200D02*X251300Y242200D01*
Y240900D01*
X250600Y240200D01*
X248000Y240000D02*X249700D01*
G54D20*X246100Y244500D02*X248900D01*
G54D14*X246800Y237100D02*X246900Y237000D01*
X247100Y236600D02*X248900D01*
X246900Y237000D02*X250300D01*
G54D20*X246800Y236900D02*X247100Y236600D01*
G54D15*X269162Y249689D02*X255689D01*
G54D13*X262800Y245000D02*X262600Y244800D01*
X261900Y244700D02*X259100D01*
G54D27*X255900Y252100D02*X257400Y253600D01*
G54D15*Y253500D02*Y251748D01*
G54D14*X260100Y251900D02*X257400Y253500D01*
X259900Y252000D02*X256000D01*
X255700Y252300D01*
X260200Y251841D02*X260607Y252248D01*
X271465D01*
G54D16*X256635Y257365D02*X271465Y257565D01*
X263806Y254894D02*X264000Y254700D01*
X271465Y254806D01*
G54D14*X257000Y258700D02*X269700Y258800D01*
X256300Y259400D02*X271700Y258900D01*
G54D16*X270000Y259500D02*Y257465D01*
G54D14*X269700Y258800D02*X269800Y258900D01*
X271700D02*X273800Y257900D01*
X272400Y258200D02*X270500Y258300D01*
X256100Y260500D02*X271100Y260000D01*
X273800Y258400D01*
G54D13*X253272Y279728D02*X288972D01*
X293900Y274800D01*
Y262900D01*
G54D14*X280811Y249689D02*X271465D01*
X272700Y248500D02*X279600D01*
X282817Y247400D02*X272600D01*
X272000Y248000D02*X272100Y247900D01*
Y247400D01*
X271465Y249689D02*X272554Y248600D01*
X272600D01*
X272700Y248500D01*
X272600Y247400D02*X270311Y249689D01*
X270000D01*
X269900Y249589D01*
X270400Y248000D02*X272000D01*
X269900Y249589D02*Y247500D01*
G54D13*X244000Y212000D02*Y232000D01*
G54D14*X245800Y233100D02*X245600Y233300D01*
X242000D01*
X245600Y232400D02*X246700Y233500D01*
Y234000D02*X245800Y233100D01*
X246700Y233500D02*Y234000D01*
X248100Y235900D02*X248600Y235400D01*
X249000D01*
G54D13*X259500Y235100D02*X250900D01*
G54D14*X270200Y233200D02*X267500D01*
X270100Y234100D02*X269900Y234300D01*
X266900Y234400D02*X272700D01*
X267500Y233200D02*X266500Y234200D01*
X269900Y234300D02*X266800D01*
X266900Y234400D01*
X266700Y234300D02*X267600Y233400D01*
X272900D01*
X271272Y228383D02*X268483D01*
X269100D02*X268583D01*
X269400D02*X268583D01*
X264700Y224500D01*
X263300Y228200D02*X262700Y227600D01*
X260900D01*
X260000Y228500D01*
X264200Y227500D02*X259600D01*
G54D13*X263300Y223100D02*X261800Y221600D01*
G54D32*X257400D01*
G54D14*X261900Y228869D02*X260800Y229969D01*
Y230200D01*
X260000Y229200D02*X262200Y231400D01*
X260700Y231100D02*Y229900D01*
X260800Y230200D02*X263300D01*
Y228200D01*
X262200Y231400D02*X263000D01*
X264200Y230200D01*
Y227500D01*
X259600D02*X258500Y228600D01*
Y228900D01*
X260000Y228500D02*Y229200D01*
X258500Y228900D02*X260700Y231100D01*
Y229900D02*X258950Y228150D01*
G54D13*X123550Y223190D03*
Y232990D03*
X113750D03*
G54D21*Y223190D03*
G54D33*X103050Y251790D03*
G54D34*Y204390D03*
G54D35*X136570Y156510D03*
Y177510D03*
G54D36*X224000Y212000D03*
Y202000D03*
X234000Y212000D03*
Y202000D03*
G54D37*X244000D03*
G54D36*Y212000D03*
X308035Y216420D03*
Y228231D03*
Y240042D03*
X319846Y216420D03*
Y240042D03*
Y228231D03*
G54D38*X336800Y228200D03*
G54D39*X218874Y257354D02*X223480D01*
X218874Y254795D02*X223480D01*
X218874Y252236D02*X223480D01*
X218874Y249677D02*X223480D01*
X218874Y247118D02*X223480D01*
X218874Y244560D02*X223480D01*
X218874Y242001D02*X223480D01*
X218874Y239442D02*X223480D01*
X218874Y236883D02*X223480D01*
X218874Y234324D02*X223480D01*
X242102D02*X246708D01*
X242102Y236883D02*X246708D01*
X242102Y239442D02*X246708D01*
X242102Y242001D02*X246708D01*
X242102Y244560D02*X246708D01*
X242102Y247118D02*X246708D01*
X242102Y249677D02*X246708D01*
X242102Y252236D02*X246708D01*
X242102Y254795D02*X246708D01*
X242102Y257354D02*X246708D01*
X292390Y249689D02*X296996D01*
X292390Y252248D02*X296996D01*
X292390Y254806D02*X296996D01*
X292390Y257365D02*X296996D01*
X269162D02*X273768D01*
X269162Y254806D02*X273768D01*
X269162Y252248D02*X273768D01*
X269162Y249689D02*X273768D01*
G54D40*X146107Y206957D02*X146893D01*
X146107Y214043D02*X146893D01*
X138607Y206914D02*X139393D01*
X138607Y214000D02*X139393D01*
G54D41*X185950Y212250D02*X186050D01*
X174250D02*X174350D01*
G54D42*X155950Y227560D02*Y225360D01*
G54D40*X138607Y241914D02*X139393D01*
X138607Y249000D02*X139393D01*
X147607Y241914D02*X148393D01*
X147607Y249000D02*X148393D01*
G54D42*X158550Y227560D02*Y225360D01*
X161050Y227560D02*Y225360D01*
X163650Y227560D02*Y225360D01*
G54D40*X144457Y176393D02*Y175607D01*
X146543Y199893D02*Y199107D01*
X139457Y199893D02*Y199107D01*
X151543Y176393D02*Y175607D01*
G54D42*X163750Y256660D02*Y254460D01*
X161150Y256660D02*Y254460D01*
X158650Y256660D02*Y254460D01*
X156050Y256660D02*Y254460D01*
G54D40*X147607Y256000D02*X148393D01*
X147607Y263086D02*X148393D01*
X138607Y256000D02*X139393D01*
X138607Y263086D02*X139393D01*
X174500Y265893D02*Y265107D01*
X181586Y265893D02*Y265107D01*
G54D43*X189350Y256660D02*Y254460D01*
G54D42*X186750Y256660D02*Y254460D01*
X184250Y256660D02*Y254460D01*
X181650Y256660D02*Y254460D01*
X179050Y256660D02*Y254460D01*
X176550Y256660D02*Y254460D01*
X173950Y256660D02*Y254460D01*
X171450Y256660D02*Y254460D01*
X168850Y256660D02*Y254460D01*
X166250Y256660D02*Y254460D01*
G54D40*X237543Y264393D02*Y263607D01*
X230457Y264393D02*Y263607D01*
X286457Y263893D02*Y263107D01*
X279371Y263893D02*Y263107D01*
X194607Y160086D02*X195393D01*
X194607Y166000D02*X195393D01*
X194607Y153000D02*X195393D01*
G54D44*X167200Y158620D02*X176200D01*
G54D40*X194607Y173086D02*X195393D01*
G54D45*X180700Y186320D02*Y179720D01*
X171700Y186320D02*Y179720D01*
X162600Y186320D02*Y179720D01*
G54D40*X286086Y211693D02*Y210907D01*
X279000Y211693D02*Y210907D01*
G54D39*X292197Y225824D02*X296803D01*
X268969D02*X273575D01*
G54D46*X292197Y228383D02*X296803D01*
G54D39*X268969D02*X273575D01*
G54D46*X292197Y230941D02*X296803D01*
G54D39*X292197Y233500D02*X296803D01*
X268969D02*X273575D01*
X268969Y230941D02*X273575D01*
G54D42*X166250Y227560D02*Y225360D01*
X168750Y227560D02*Y225360D01*
X171350Y227560D02*Y225360D01*
X173850Y227560D02*Y225360D01*
X176450Y227560D02*Y225360D01*
X179050Y227560D02*Y225360D01*
G54D41*X174250Y199350D02*X174350D01*
X185950Y199250D02*X186050D01*
G54D42*X181550Y227560D02*Y225360D01*
X184150Y227560D02*Y225360D01*
X186650Y227560D02*Y225360D01*
X189250Y227560D02*Y225360D01*
G54D40*X207057Y227993D02*Y227207D01*
X214143Y227993D02*Y227207D01*
X195057Y227993D02*Y227207D01*
X202143Y227993D02*Y227207D01*
G54D22*X251500Y260000D03*
G54D47*X263806Y254894D03*
X257400Y253500D03*
G54D22*X221600Y267200D03*
G54D48*X261600Y228800D03*
X257400Y221600D03*
G54D22*X282900Y247600D03*
G54D48*X266700Y234300D03*
G54D22*X280000Y220500D03*
G54D17*X295500Y238500D03*
X313900Y233500D03*
G54D48*X270000Y261200D03*
G54D17*X308600Y257500D03*
G54D22*X293900Y262900D03*
G54D49*X187000Y174000D03*
G54D50*X195000Y205000D03*
Y246000D03*
G54D22*X149400Y234400D03*
X204200Y216600D03*
X205000Y234000D03*
X226800Y228200D03*
X162000Y204800D03*
G54D51*G54D52*G54D53*G54D52*G54D53*G54D52*G54D53*G54D52*G54D53*G54D54*G54D53*G54D55*G54D56*G54D13*G54D57*G54D58*M02*
