G04 start of page 9 for group -4079 idx -4079 *
G04 Title: (unknown), topsilk *
G04 Creator: pcb 20110918 *
G04 CreationDate: Tue Mar 20 15:17:37 2012 UTC *
G04 For: mldelibero *
G04 Format: Gerber/RS-274X *
G04 PCB-Dimensions: 600000 500000 *
G04 PCB-Coordinate-Origin: lower left *
%MOIN*%
%FSLAX25Y25*%
%LNTOPSILK*%
%ADD503C,0.0060*%
%ADD502C,0.0150*%
%ADD501C,0.0050*%
%ADD500C,0.0080*%
%ADD499C,0.0200*%
%ADD498C,0.0100*%
%ADD497C,0.0010*%
G54D497*X104900Y134000D02*X320800D01*
Y134500D02*X346800Y160500D01*
X346700Y258500D02*X321200Y284000D01*
X346700Y258500D02*Y160500D01*
X105000Y284000D02*X90900Y269900D01*
Y148000D01*
X320700Y284000D02*X105000D01*
X90900Y148000D02*X104900Y134000D01*
G54D498*X301696Y202640D02*X354885D01*
X301775Y253821D02*Y202640D01*
Y253821D02*X354846D01*
X354885D02*Y202640D01*
G54D499*X301500Y263000D02*Y255000D01*
G54D498*X304900Y253900D01*
X322500D01*
Y264100D01*
X304900D01*
X301500Y263000D01*
G54D499*X274500Y264500D02*Y256500D01*
G54D498*X277900Y255400D01*
X295500D01*
Y265600D01*
X277900D01*
X274500Y264500D01*
G54D500*X303150Y273245D02*X303936D01*
X303150Y278755D02*X303936D01*
G54D498*X227820Y226162D02*Y199832D01*
X258952D01*
Y226162D02*Y199832D01*
X227820Y226162D02*X240886D01*
X245886D02*X258952D01*
X240886D02*G75*G03X245886Y226162I2500J0D01*G01*
G54D501*X296666Y215888D02*Y204912D01*
X265534Y215888D02*X296666D01*
X265534D02*Y204912D01*
X283600D02*X296666D01*
X265534D02*X278600D01*
X283600D02*G75*G03X278600Y204912I-2500J0D01*G01*
G54D500*X289264Y218045D02*X290050D01*
X289264Y223555D02*X290050D01*
G54D502*X188500Y199700D02*X223500D01*
X188500Y226700D02*Y199700D01*
Y226700D02*X223500D01*
Y199700D01*
G54D500*X268907Y260045D02*X269693D01*
X268907Y265555D02*X269693D01*
G54D498*X271726Y248728D02*X282702D01*
X271726D02*Y217596D01*
X282702D01*
Y248728D02*Y235662D01*
Y230662D02*Y217596D01*
Y235662D02*G75*G03X282702Y230662I0J-2500D01*G01*
G54D500*X271055Y242250D02*Y241464D01*
X265545Y242250D02*Y241464D01*
X227064Y236755D02*X227850D01*
X227064Y231245D02*X227850D01*
X251655Y247136D02*Y246350D01*
X246145Y247136D02*Y246350D01*
G54D498*X216400Y277300D02*Y235900D01*
X244900D01*
Y277300D02*Y235900D01*
X216400Y277300D02*X244900D01*
G54D500*X253245Y163850D02*Y163064D01*
X258755Y163850D02*Y163064D01*
G54D498*X232600Y144000D02*X245800D01*
X232600Y157900D02*Y144000D01*
Y157900D02*X246000D01*
Y144000D01*
X245400D02*X246000D01*
X247700Y189400D02*Y137700D01*
X208300D02*X247700D01*
X208300Y189400D02*Y137700D01*
Y189400D02*X247700D01*
G54D500*X168245Y266436D02*Y265650D01*
X173755Y266436D02*Y265650D01*
X168302Y252850D02*Y252064D01*
X173812Y252850D02*Y252064D01*
G54D503*X176900Y275900D02*Y239500D01*
X212400Y275900D02*Y239500D01*
X176900D02*X212400D01*
X176900Y275900D02*X212400D01*
X285300Y182300D02*Y145900D01*
X249800Y182300D02*Y145900D01*
Y182300D02*X285300D01*
X249800Y145900D02*X285300D01*
G54D500*X152150Y183831D02*X152936D01*
X152150Y189341D02*X152936D01*
X159755Y241393D02*Y240607D01*
X154245Y241393D02*Y240607D01*
X159755Y254436D02*Y253650D01*
X154245Y254436D02*Y253650D01*
X146755Y253936D02*Y253150D01*
X141245Y253936D02*Y253150D01*
X147055Y238550D02*Y237764D01*
X141545Y238550D02*Y237764D01*
G54D498*X185200Y230500D02*Y215600D01*
Y210600D02*Y195600D01*
X147400D02*X185200D01*
X147400Y230500D02*Y195600D01*
Y230500D02*X185200D01*
Y215600D02*G75*G03X185200Y210600I0J-2500D01*G01*
G54D500*X168150Y183745D02*X168936D01*
X168150Y189255D02*X168936D01*
X160150Y174745D02*X160936D01*
X160150Y180255D02*X160936D01*
G54D498*X129850Y262790D02*Y227990D01*
X63850Y262790D02*X129850D01*
X63850D02*Y192190D01*
X129850D01*
Y228390D02*Y192190D01*
G54D499*X333500Y179000D02*X341500D01*
G54D498*X342600Y182400D01*
Y200000D02*Y182400D01*
X332400Y200000D02*X342600D01*
X332400D02*Y182400D01*
X333500Y179000D01*
G54D500*X321107Y181745D02*X321893D01*
X321107Y187255D02*X321893D01*
G54D499*X295900Y172000D02*X303900D01*
G54D498*X305000Y175400D01*
Y193000D02*Y175400D01*
X294800Y193000D02*X305000D01*
X294800D02*Y175400D01*
X295900Y172000D01*
G54D500*X314607Y179655D02*X315393D01*
X314607Y174145D02*X315393D01*
G54D498*X333200Y229900D02*Y228600D01*
X332500Y227900D02*X333200Y228600D01*
X329900Y227900D02*X332500D01*
X329900D02*X329200Y228600D01*
Y229900D02*Y228600D01*
X329700Y231100D02*X332700D01*
X329700D02*X329200Y231600D01*
Y232600D02*Y231600D01*
Y232600D02*X329700Y233100D01*
X332700D01*
X333200Y232600D02*X332700Y233100D01*
X333200Y232600D02*Y231600D01*
X332700Y231100D02*X333200Y231600D01*
X329200Y234300D02*X333200D01*
X329200D02*X333200Y236800D01*
X329200D02*X333200D01*
X329200Y238000D02*X333200D01*
X329200D02*X333200Y240500D01*
X329200D02*X333200D01*
X329700Y241700D02*X329200Y242200D01*
Y243700D02*Y242200D01*
Y243700D02*X329700Y244200D01*
X330700D01*
X333200Y241700D02*X330700Y244200D01*
X333200D02*Y241700D01*
X304693Y273850D02*X306693D01*
X304693D02*X304193Y274350D01*
Y275350D02*Y274350D01*
X304693Y275850D02*X304193Y275350D01*
X304693Y275850D02*X306193D01*
Y277850D02*Y273850D01*
X305393Y275850D02*X304193Y277850D01*
X302993Y274350D02*X302493Y273850D01*
X300993D02*X302493D01*
X300993D02*X300493Y274350D01*
Y275350D02*Y274350D01*
X302993Y277850D02*X300493Y275350D01*
Y277850D02*X302993D01*
X299293Y274650D02*X298493Y273850D01*
Y277850D02*Y273850D01*
X297793Y277850D02*X299293D01*
X319500Y258500D02*X323500D01*
Y257200D02*X322800Y256500D01*
X320200D02*X322800D01*
X319500Y257200D02*X320200Y256500D01*
X319500Y259000D02*Y257200D01*
X323500Y259000D02*Y257200D01*
X322700Y255300D02*X323500Y254500D01*
X319500D02*X323500D01*
X319500Y255300D02*Y253800D01*
X323000Y252600D02*X323500Y252100D01*
Y250600D01*
X323000Y250100D01*
X322000D02*X323000D01*
X319500Y252600D02*X322000Y250100D01*
X319500Y252600D02*Y250100D01*
X244386Y216997D02*X247886D01*
X248386Y217497D01*
Y218497D02*Y217497D01*
Y218497D02*X247886Y218997D01*
X244386D02*X247886D01*
X244886Y220197D02*X244386Y220697D01*
Y222197D02*Y220697D01*
Y222197D02*X244886Y222697D01*
X245886D01*
X248386Y220197D02*X245886Y222697D01*
X248386D02*Y220197D01*
X228200Y169000D02*Y165500D01*
Y169000D02*X227700Y169500D01*
X226700D02*X227700D01*
X226700D02*X226200Y169000D01*
Y165500D01*
X223500D02*X223000Y166000D01*
X223500Y165500D02*X224500D01*
X225000Y166000D02*X224500Y165500D01*
X225000Y169000D02*Y166000D01*
Y169000D02*X224500Y169500D01*
X223500Y167300D02*X223000Y167800D01*
X223500Y167300D02*X225000D01*
X223500Y169500D02*X224500D01*
X223500D02*X223000Y169000D01*
Y167800D01*
X270450Y260650D02*X272450D01*
X270450D02*X269950Y261150D01*
Y262150D02*Y261150D01*
X270450Y262650D02*X269950Y262150D01*
X270450Y262650D02*X271950D01*
Y264650D02*Y260650D01*
X271150Y262650D02*X269950Y264650D01*
X268750Y261450D02*X267950Y260650D01*
Y264650D02*Y260650D01*
X267250Y264650D02*X268750D01*
X265550D02*X264050Y262650D01*
Y261150D01*
X264550Y260650D02*X264050Y261150D01*
X264550Y260650D02*X265550D01*
X266050Y261150D02*X265550Y260650D01*
X266050Y262150D02*Y261150D01*
Y262150D02*X265550Y262650D01*
X264050D02*X265550D01*
X257850Y162307D02*Y161007D01*
X257150Y160307D02*X257850Y161007D01*
X254550Y160307D02*X257150D01*
X254550D02*X253850Y161007D01*
Y162307D02*Y161007D01*
Y165507D02*Y163507D01*
X255850D01*
X255350Y164007D01*
Y165007D02*Y164007D01*
Y165007D02*X255850Y165507D01*
X257350D01*
X257850Y165007D02*X257350Y165507D01*
X257850Y165007D02*Y164007D01*
X257350Y163507D02*X257850Y164007D01*
X266450Y244307D02*Y243007D01*
X267150Y245007D02*X266450Y244307D01*
X267150Y245007D02*X269750D01*
X270450Y244307D01*
Y243007D01*
X269650Y241807D02*X270450Y241007D01*
X266450D02*X270450D01*
X266450Y241807D02*Y240307D01*
X269650Y239107D02*X270450Y238307D01*
X266450D02*X270450D01*
X266450Y239107D02*Y237607D01*
X292500Y260000D02*X296500D01*
Y258700D02*X295800Y258000D01*
X293200D02*X295800D01*
X292500Y258700D02*X293200Y258000D01*
X292500Y260500D02*Y258700D01*
X296500Y260500D02*Y258700D01*
X295700Y256800D02*X296500Y256000D01*
X292500D02*X296500D01*
X292500Y256800D02*Y255300D01*
X293000Y254100D02*X292500Y253600D01*
X293000Y254100D02*X296000D01*
X296500Y253600D01*
Y252600D01*
X296000Y252100D01*
X293000D02*X296000D01*
X292500Y252600D02*X293000Y252100D01*
X292500Y253600D02*Y252600D01*
X293500Y254100D02*X295500Y252100D01*
X242400Y277300D02*X245900D01*
X242400D02*X241900Y276800D01*
Y275800D01*
X242400Y275300D01*
X245900D01*
Y274100D02*Y272100D01*
X243900Y274100D02*X245900D01*
X243900D02*X244400Y273600D01*
Y272600D01*
X243900Y272100D01*
X242400D02*X243900D01*
X241900Y272600D02*X242400Y272100D01*
X241900Y273600D02*Y272600D01*
X242400Y274100D02*X241900Y273600D01*
X153693Y184436D02*X155693D01*
X153693D02*X153193Y184936D01*
Y185936D02*Y184936D01*
X153693Y186436D02*X153193Y185936D01*
X153693Y186436D02*X155193D01*
Y188436D02*Y184436D01*
X154393Y186436D02*X153193Y188436D01*
X151993Y184936D02*X151493Y184436D01*
X149993D02*X151493D01*
X149993D02*X149493Y184936D01*
Y185936D02*Y184936D01*
X151993Y188436D02*X149493Y185936D01*
Y188436D02*X151993D01*
X171193Y188350D02*Y184350D01*
X169893D02*X169193Y185050D01*
Y187650D02*Y185050D01*
X169893Y188350D02*X169193Y187650D01*
X169893Y188350D02*X171693D01*
X169893Y184350D02*X171693D01*
X167993Y185150D02*X167193Y184350D01*
Y188350D02*Y184350D01*
X166493Y188350D02*X167993D01*
X208000Y200700D02*Y197200D01*
Y200700D02*X207500Y201200D01*
X206500D02*X207500D01*
X206500D02*X206000Y200700D01*
Y197200D01*
X204300Y201200D02*X202300Y197200D01*
X204800D01*
X179200Y215600D02*Y212100D01*
Y215600D02*X178700Y216100D01*
X177700D02*X178700D01*
X177700D02*X177200Y215600D01*
Y212100D01*
X176000Y212900D02*X175200Y212100D01*
Y216100D02*Y212100D01*
X174500Y216100D02*X176000D01*
X182300Y270400D02*Y269100D01*
X181600Y268400D02*X182300Y269100D01*
X179000Y268400D02*X181600D01*
X179000D02*X178300Y269100D01*
Y270400D02*Y269100D01*
X180800Y271600D02*X178300Y273600D01*
X180800Y274100D02*Y271600D01*
X178300Y273600D02*X182300D01*
X161693Y179350D02*X162993D01*
X163693Y178650D02*X162993Y179350D01*
X163693Y178650D02*Y176050D01*
X162993Y175350D01*
X161693D02*X162993D01*
X158993D02*X158493Y175850D01*
X158993Y175350D02*X159993D01*
X160493Y175850D02*X159993Y175350D01*
X160493Y178850D02*Y175850D01*
Y178850D02*X159993Y179350D01*
X158993Y177150D02*X158493Y177650D01*
X158993Y177150D02*X160493D01*
X158993Y179350D02*X159993D01*
X158993D02*X158493Y178850D01*
Y177650D01*
X225007Y232150D02*X226307D01*
X224307Y232850D02*X225007Y232150D01*
X224307Y235450D02*Y232850D01*
Y235450D02*X225007Y236150D01*
X226307D01*
X228007Y232150D02*X230007Y236150D01*
X227507D02*X230007D01*
X246750Y247736D02*Y246436D01*
X247450Y248436D02*X246750Y247736D01*
X247450Y248436D02*X250050D01*
X250750Y247736D01*
Y246436D01*
X250250Y245236D02*X250750Y244736D01*
Y243736D01*
X250250Y243236D01*
X246750Y243736D02*X247250Y243236D01*
X246750Y244736D02*Y243736D01*
X247250Y245236D02*X246750Y244736D01*
X248950D02*Y243736D01*
X249450Y243236D02*X250250D01*
X247250D02*X248450D01*
X248950Y243736D01*
X249450Y243236D02*X248950Y243736D01*
X275714Y236162D02*X279214D01*
X275714D02*X275214Y235662D01*
Y234662D01*
X275714Y234162D01*
X279214D01*
X276714Y232962D02*X279214Y230962D01*
X276714Y232962D02*Y230462D01*
X275214Y230962D02*X279214D01*
X159150Y244150D02*Y242150D01*
X158650Y241650D01*
X157650D02*X158650D01*
X157150Y242150D02*X157650Y241650D01*
X157150Y243650D02*Y242150D01*
X155150Y243650D02*X159150D01*
X157150Y242850D02*X155150Y241650D01*
X159150Y240450D02*Y238450D01*
X157150Y240450D02*X159150D01*
X157150D02*X157650Y239950D01*
Y238950D01*
X157150Y238450D01*
X155650D02*X157150D01*
X155150Y238950D02*X155650Y238450D01*
X155150Y239950D02*Y238950D01*
X155650Y240450D02*X155150Y239950D01*
X146450Y241307D02*Y239307D01*
X145950Y238807D01*
X144950D02*X145950D01*
X144450Y239307D02*X144950Y238807D01*
X144450Y240807D02*Y239307D01*
X142450Y240807D02*X146450D01*
X144450Y240007D02*X142450Y238807D01*
X146450Y236107D02*X145950Y235607D01*
X146450Y237107D02*Y236107D01*
X145950Y237607D02*X146450Y237107D01*
X142950Y237607D02*X145950D01*
X142950D02*X142450Y237107D01*
X144650Y236107D02*X144150Y235607D01*
X144650Y237607D02*Y236107D01*
X142450Y237107D02*Y236107D01*
X142950Y235607D01*
X144150D01*
X155150Y256693D02*X159150D01*
Y255393D02*X158450Y254693D01*
X155850D02*X158450D01*
X155150Y255393D02*X155850Y254693D01*
X155150Y257193D02*Y255393D01*
X159150Y257193D02*Y255393D01*
X156650Y253493D02*X159150Y251493D01*
X156650Y253493D02*Y250993D01*
X155150Y251493D02*X159150D01*
X142150Y256193D02*X146150D01*
Y254893D02*X145450Y254193D01*
X142850D02*X145450D01*
X142150Y254893D02*X142850Y254193D01*
X142150Y256693D02*Y254893D01*
X146150Y256693D02*Y254893D01*
Y252993D02*Y250993D01*
X144150Y252993D02*X146150D01*
X144150D02*X144650Y252493D01*
Y251493D01*
X144150Y250993D01*
X142650D02*X144150D01*
X142150Y251493D02*X142650Y250993D01*
X142150Y252493D02*Y251493D01*
X142650Y252993D02*X142150Y252493D01*
X168850Y264893D02*Y262893D01*
Y264893D02*X169350Y265393D01*
X170350D01*
X170850Y264893D02*X170350Y265393D01*
X170850Y264893D02*Y263393D01*
X168850D02*X172850D01*
X170850Y264193D02*X172850Y265393D01*
Y267093D02*X168850Y269093D01*
Y266593D01*
X168907Y249807D02*X172907D01*
X168907Y251107D02*X169607Y251807D01*
X172207D01*
X172907Y251107D02*X172207Y251807D01*
X172907Y251107D02*Y249307D01*
X168907Y251107D02*Y249307D01*
Y254507D02*X169407Y255007D01*
X168907Y254507D02*Y253507D01*
X169407Y253007D02*X168907Y253507D01*
X169407Y253007D02*X172407D01*
X172907Y253507D01*
X170707Y254507D02*X171207Y255007D01*
X170707Y254507D02*Y253007D01*
X172907Y254507D02*Y253507D01*
Y254507D02*X172407Y255007D01*
X171207D02*X172407D01*
X85950Y227490D02*Y226190D01*
X86650Y228190D02*X85950Y227490D01*
X86650Y228190D02*X89250D01*
X89950Y227490D01*
Y226190D01*
X86450Y224990D02*X89450D01*
X89950Y224490D01*
Y223490D01*
X89450Y222990D01*
X86450D02*X89450D01*
X85950Y223490D02*X86450Y222990D01*
X85950Y224490D02*Y223490D01*
X86450Y224990D02*X85950Y224490D01*
Y221790D02*X89950D01*
X85950Y219290D01*
X89950D01*
X85950Y218090D02*X89950D01*
X85950Y215590D01*
X89950D01*
X89150Y214390D02*X89950Y213590D01*
X85950D02*X89950D01*
X85950Y214390D02*Y212890D01*
X283600Y212400D02*Y208900D01*
Y212400D02*X283100Y212900D01*
X282100D02*X283100D01*
X282100D02*X281600Y212400D01*
Y208900D01*
X280400Y209400D02*X279900Y208900D01*
X278900D02*X279900D01*
X278900D02*X278400Y209400D01*
X278900Y212900D02*X278400Y212400D01*
X278900Y212900D02*X279900D01*
X280400Y212400D02*X279900Y212900D01*
X278900Y210700D02*X279900D01*
X278400Y210200D02*Y209400D01*
Y212400D02*Y211200D01*
X278900Y210700D01*
X278400Y210200D02*X278900Y210700D01*
X290807Y222650D02*X292107D01*
X292807Y221950D02*X292107Y222650D01*
X292807Y221950D02*Y219350D01*
X292107Y218650D01*
X290807D02*X292107D01*
X289107Y222650D02*X287607Y220650D01*
Y219150D01*
X288107Y218650D02*X287607Y219150D01*
X288107Y218650D02*X289107D01*
X289607Y219150D02*X289107Y218650D01*
X289607Y220150D02*Y219150D01*
Y220150D02*X289107Y220650D01*
X287607D02*X289107D01*
X338000Y201000D02*Y197000D01*
X339300Y201000D02*X340000Y200300D01*
Y197700D01*
X339300Y197000D02*X340000Y197700D01*
X337500Y197000D02*X339300D01*
X337500Y201000D02*X339300D01*
X341200Y200200D02*X342000Y201000D01*
Y197000D01*
X341200D02*X342700D01*
X343900Y198500D02*X345900Y201000D01*
X343900Y198500D02*X346400D01*
X345900Y201000D02*Y197000D01*
X322650Y182350D02*X324650D01*
X322650D02*X322150Y182850D01*
Y183850D02*Y182850D01*
X322650Y184350D02*X322150Y183850D01*
X322650Y184350D02*X324150D01*
Y186350D02*Y182350D01*
X323350Y184350D02*X322150Y186350D01*
X320950Y182850D02*X320450Y182350D01*
X318950D02*X320450D01*
X318950D02*X318450Y182850D01*
Y183850D02*Y182850D01*
X320950Y186350D02*X318450Y183850D01*
Y186350D02*X320950D01*
X317250Y182850D02*X316750Y182350D01*
X315750D02*X316750D01*
X315750D02*X315250Y182850D01*
X315750Y186350D02*X315250Y185850D01*
X315750Y186350D02*X316750D01*
X317250Y185850D02*X316750Y186350D01*
X315750Y184150D02*X316750D01*
X315250Y183650D02*Y182850D01*
Y185850D02*Y184650D01*
X315750Y184150D01*
X315250Y183650D02*X315750Y184150D01*
X300400Y194000D02*Y190000D01*
X301700Y194000D02*X302400Y193300D01*
Y190700D01*
X301700Y190000D02*X302400Y190700D01*
X299900Y190000D02*X301700D01*
X299900Y194000D02*X301700D01*
X303600Y190500D02*X304100Y190000D01*
X303600Y191300D02*Y190500D01*
Y191300D02*X304300Y192000D01*
X304900D01*
X305600Y191300D01*
Y190500D01*
X305100Y190000D02*X305600Y190500D01*
X304100Y190000D02*X305100D01*
X303600Y192700D02*X304300Y192000D01*
X303600Y193500D02*Y192700D01*
Y193500D02*X304100Y194000D01*
X305100D01*
X305600Y193500D01*
Y192700D01*
X304900Y192000D02*X305600Y192700D01*
X311850Y179050D02*X313850D01*
X314350Y178550D01*
Y177550D01*
X313850Y177050D02*X314350Y177550D01*
X312350Y177050D02*X313850D01*
X312350Y179050D02*Y175050D01*
X313150Y177050D02*X314350Y175050D01*
X315550Y178250D02*X316350Y179050D01*
Y175050D01*
X315550D02*X317050D01*
X318750D02*X320750Y179050D01*
X318250D02*X320750D01*
X279900Y152700D02*Y151400D01*
X280600Y153400D02*X279900Y152700D01*
X280600Y153400D02*X283200D01*
X283900Y152700D01*
Y151400D01*
X283100Y150200D02*X283900Y149400D01*
X279900D02*X283900D01*
X279900Y150200D02*Y148700D01*
X281400Y147500D02*X283900Y145500D01*
X281400Y147500D02*Y145000D01*
X279900Y145500D02*X283900D01*
M02*
