M48
INCH
T219C0.012
T218C0.032
T217C0.024
T216C0.047
T215C0.118
T214C0.047
T213C0.050
T212C0.118
T211C0.039
%
T219
X027000Y026120
X026381Y025489
X026670Y023430
X025800Y022800
X026150Y023100
X025740Y025350
T217
X029550Y026400
X028000Y022050
X028290Y024760
X031390Y023350
X029550Y023850
X020420Y021660
X020500Y023400
X018700Y021610
X022050Y022720
X022160Y026720
X030860Y025750
X014940Y023440
X017690Y022060
T218
X025150Y026000
T211
X011375Y023299
X011375Y022319
X012355Y023299
X012355Y022319
T216
X019500Y024600
X015230Y016290
X018700Y017400
X019500Y020500
T214
X022400Y020200
X031970Y022818
X031970Y024000
X031970Y021637
X030789Y024000
X030789Y022818
X030789Y021637
X024400Y021200
X024400Y020200
X023400Y020200
X023400Y021200
X022400Y021200
T213
X013657Y017751
X013657Y015651
T212
X010305Y025179
X010305Y020439
T215
X033671Y022818
M30
