M48
INCH
T585C0.047
T584C0.024
T583C0.012
T582C0.032
T581C0.118
T580C0.047
T579C0.050
T578C0.118
T577C0.039
%
T583
X025800Y022800
X026150Y023100
X027000Y026120
X025800Y025400
X026150Y025500
X026670Y023430
T584
X029550Y023850
X022700Y025400
X020500Y023400
X022800Y023950
X020420Y021660
X027850Y025100
X027700Y022500
X029550Y026400
T582
X017180Y022050
X025150Y026000
T577
X012355Y023299
X011375Y023299
X011375Y022319
X012355Y022319
T585
X018700Y017400
X016400Y016900
X019500Y024600
X019500Y020500
T580
X030789Y022818
X022400Y021200
X022400Y020200
X023400Y021200
X023400Y020200
X024400Y020200
X024400Y021200
X030789Y021637
X030789Y024000
X031970Y021637
X031970Y024000
X031970Y022818
T579
X013657Y017751
X013657Y015651
T578
X010305Y020439
X010305Y025179
T581
X033671Y022818
M30
