G04 start of page 2 for group 0 idx 0 *
G04 Title: (unknown), component *
G04 Creator: pcb 20110918 *
G04 CreationDate: Thu Feb 23 21:25:27 2012 UTC *
G04 For: mldelibero *
G04 Format: Gerber/RS-274X *
G04 PCB-Dimensions: 600000 500000 *
G04 PCB-Coordinate-Origin: lower left *
%MOIN*%
%FSLAX25Y25*%
%LNTOP*%
%ADD456C,0.1181*%
%ADD455C,0.0472*%
%ADD454C,0.1181*%
%ADD453C,0.0393*%
%ADD452C,0.0472*%
%ADD451C,0.0236*%
%ADD450C,0.0118*%
%ADD449C,0.0315*%
%ADD448C,0.0600*%
%ADD447C,0.0240*%
%ADD446C,0.0290*%
%ADD445C,0.0400*%
%ADD444R,0.0560X0.0560*%
%ADD443R,0.1220X0.1220*%
%ADD442R,0.0780X0.0780*%
%ADD441R,0.0180X0.0180*%
%ADD440C,0.0012*%
%ADD439C,0.0010*%
%ADD438R,0.0130X0.0130*%
%ADD437R,0.0160X0.0160*%
%ADD436C,0.0160*%
%ADD435R,0.0512X0.0512*%
%ADD434C,0.1378*%
%ADD433C,0.0787*%
%ADD432C,0.0540*%
%ADD431C,0.1500*%
%ADD430C,0.0550*%
%ADD429C,0.0380*%
%ADD428C,0.0280*%
%ADD427C,0.0330*%
%ADD426C,0.0430*%
%ADD425C,0.0250*%
%ADD424C,0.0230*%
%ADD423C,0.0180*%
%ADD422C,0.0300*%
%ADD421C,0.0350*%
%ADD420C,0.0200*%
%ADD419C,0.0150*%
%ADD418C,0.0100*%
%ADD417C,0.0130*%
%ADD416C,0.0500*%
%ADD415C,0.0010*%
G54D415*X91000Y134000D02*Y284000D01*
X346800Y284500D01*
Y134500D02*X91000Y134000D01*
X346800Y284500D02*Y134500D01*
G54D416*X171700Y185000D02*Y198650D01*
X162600Y186320D02*Y217980D01*
X171700Y198650D02*X171650Y198700D01*
X183250D01*
X183350Y198600D01*
X184700Y198700D02*X188700D01*
X195000Y205000D01*
G54D417*X186490Y219000D02*X188280Y217210D01*
G54D416*X171700Y186320D02*Y158620D01*
X180700Y183020D02*X187000Y176720D01*
Y174000D01*
X136570Y156510D02*X171700D01*
X144312Y140000D02*X243461D01*
X195000Y173086D02*X187000D01*
X195000Y166000D02*Y160086D01*
Y153000D02*X177320D01*
X171700Y158620D01*
X162600Y179720D02*X160880Y178000D01*
X151543Y176000D01*
Y176393D02*X152043Y183957D01*
X150000Y186000D01*
X147710Y183710D01*
X144457Y176393D02*X143574Y175510D01*
X136570Y177510D01*
X147710Y183710D02*X128000D01*
Y156312D01*
X144312Y140000D01*
X123550Y223190D02*X132740Y214000D01*
X113750Y223190D02*Y209798D01*
X132548Y191000D01*
X132740Y214000D02*X158540D01*
X132548Y191000D02*X141418D01*
X146543Y196125D01*
X146500Y196168D01*
Y206957D01*
X139457Y199893D02*X139000Y200350D01*
Y206914D01*
G54D417*X159400Y221880D02*Y223110D01*
X158600Y223910D01*
G54D416*X171750Y211600D02*Y220500D01*
G54D418*X158550Y227560D02*X157550Y221000D01*
G54D416*X158540Y214000D02*X165600Y221060D01*
G54D419*X168750Y224139D02*X165892Y221281D01*
G54D420*X168750Y227560D02*Y224139D01*
G54D421*X183000Y222500D02*Y226000D01*
G54D422*X181000Y220500D02*X183000Y222500D01*
G54D417*Y223740D02*X181170D01*
G54D416*X190670Y218920D02*X188520Y221070D01*
G54D417*X186650Y222940D02*X187840Y221750D01*
X187740Y221850D02*Y223350D01*
X186650Y224440D01*
G54D423*Y226460D02*Y222940D01*
G54D418*X171750Y220250D02*X171350Y220650D01*
G54D419*Y229150D01*
G54D416*X171800Y220500D02*X180000D01*
G54D417*X171350Y223450D02*X173070Y221730D01*
X181170Y223740D02*Y220500D01*
X181550Y226460D02*Y224370D01*
X188540Y221050D02*X186490Y219000D01*
G54D416*X223800Y212000D02*X214000D01*
X204450Y216350D01*
G54D419*X214000Y212000D02*X204200Y216600D01*
X237904Y244560D02*X232000Y249000D01*
G54D417*X234700Y244800D02*X234800Y244700D01*
X235767Y245333D02*Y246167D01*
X236400Y244700D02*X235767Y245333D01*
X234800Y244700D02*X236400D01*
G54D416*X234000Y226000D02*Y239000D01*
X236000Y241000D01*
G54D419*X238000D01*
X228000Y239500D02*X227942Y239442D01*
G54D416*X232514Y248614D02*X233100Y249200D01*
X228050Y239550D02*X227800Y239300D01*
X227200D01*
G54D417*X224900Y240000D02*X225700Y240800D01*
X225100Y237600D02*X226500D01*
X224300Y238400D02*X225100Y237600D01*
G54D424*X223300Y239300D02*X227800D01*
G54D416*X225982Y247118D02*X233484D01*
G54D424*X189350Y257070D02*Y255560D01*
G54D425*Y256660D02*X190044Y257354D01*
G54D416*X214340Y254750D02*X198360D01*
X196210Y252600D01*
X193980D01*
G54D425*X191400Y250020D01*
G54D422*X180420D01*
G54D417*X190840Y255900D02*X190750Y255810D01*
X190700D01*
X216200Y244560D02*X213040Y241400D01*
X221177Y254795D02*X221132Y254750D01*
X214340D01*
G54D422*X227000Y254000D02*X225236Y252236D01*
G54D419*X221177D01*
X219882Y247118D02*X212118D01*
X218874D02*X225568D01*
X218874Y242001D02*X217662D01*
G54D420*X217462Y241601D02*X216847Y240986D01*
G54D423*X221177Y244560D02*X216200D01*
G54D416*X195000Y246000D02*X212000D01*
X213000Y247000D01*
G54D419*X212118Y247118D02*X211000Y246000D01*
G54D426*X182900Y231030D02*Y226500D01*
G54D416*X212600Y234700D02*X205700D01*
X205000Y234000D01*
G54D423*X213040Y241400D02*X210810D01*
G54D419*X214500Y239200D02*X215028D01*
G54D420*X215913Y240085D01*
G54D424*X214964Y239136D02*Y236764D01*
G54D427*X212600Y234700D01*
G54D416*X197750Y226000D02*X234000D01*
G54D418*X183350Y211600D02*X185650Y213900D01*
G54D416*X184000Y212250D02*X197750Y226000D01*
X194500Y204500D02*X197000Y202000D01*
X224000D01*
G54D419*Y212000D02*X214000D01*
G54D417*X210810Y241400D02*X209980Y240570D01*
G54D416*X209910Y240500D01*
X202660D01*
X197410Y235250D01*
X187340D01*
X183090Y231000D01*
X182600D01*
X218270Y261510D02*X193790D01*
X190980Y258700D01*
G54D417*X190570Y258290D02*X189350Y257070D01*
X219560Y258140D02*X219700Y258280D01*
X216300Y254750D02*X217000Y255450D01*
X216200Y254750D02*X217100Y253850D01*
X217075Y255525D02*X215700Y256900D01*
X219160Y261510D02*X219560Y261110D01*
X217225Y253725D02*X215800Y252300D01*
X219700Y258280D02*X220480D01*
G54D416*X233100Y249200D02*Y256800D01*
X230457Y259443D01*
Y264000D01*
G54D417*X221177Y257354D02*Y258603D01*
G54D428*X219560Y261110D02*Y258140D01*
G54D429*X221177Y258603D02*X218270Y261510D01*
G54D417*X244700Y262000D02*Y261400D01*
X241800Y258500D01*
G54D419*X242102Y257354D02*X244948Y260200D01*
G54D417*X243800Y257200D02*Y257600D01*
G54D420*X242102Y247118D02*X238882D01*
G54D419*X242102Y244560D02*X237904D01*
X244404Y242000D02*X244405Y242001D01*
X239000Y242000D02*X244404D01*
G54D416*X123550Y232990D02*X135040Y221000D01*
X113750Y232990D02*X119760Y239000D01*
X129000D01*
X103050Y251790D02*X124594D01*
X132540Y243844D01*
G54D418*X132692Y243692D02*X134470Y241914D01*
G54D421*X139086D01*
G54D416*X147607Y263086D02*X151375D01*
X154000Y260461D01*
G54D422*X156050Y258411D02*X154230Y260230D01*
G54D416*X138607Y256000D02*Y249000D01*
X147607Y256000D02*Y249000D01*
G54D419*X156050Y256660D02*Y258411D01*
G54D417*X155200Y256510D02*X155000D01*
X153570Y257940D01*
G54D416*X135040Y221000D02*X157000D01*
X129000Y239000D02*X140500Y227500D01*
X154000D01*
X138607Y241914D02*X148000D01*
G54D419*X158500Y225500D02*Y220000D01*
G54D417*X161050Y228993D02*X159043Y231000D01*
G54D416*X159160Y232150D02*Y245690D01*
X138607Y263086D02*Y265607D01*
X143000Y270000D01*
X152946D01*
X161000Y261946D01*
G54D418*X161150Y261796D01*
G54D419*X163650Y227560D02*Y229650D01*
X164500Y230500D01*
G54D417*X161050Y227560D02*Y228993D01*
G54D422*X164500Y230500D02*X170000D01*
G54D425*X171350Y229150D01*
Y228775D01*
G54D419*X181586Y265893D02*X181650Y265829D01*
X181586Y265500D02*Y267414D01*
G54D420*X181650Y265829D02*Y255560D01*
G54D417*X179050D02*Y252260D01*
G54D427*X181290Y250020D01*
G54D416*X182020Y265460D02*Y268441D01*
X181586Y264750D02*X181650Y264686D01*
Y260450D01*
X182020Y268441D02*X177421Y273040D01*
X171579D01*
X167750Y269211D01*
Y261695D01*
G54D423*X166250Y258170D02*X167750Y259670D01*
G54D422*X170500Y230500D02*X173950Y233950D01*
G54D416*X174185Y234185D02*Y250400D01*
G54D419*X174500Y265893D02*X173950Y265343D01*
G54D425*Y255560D01*
G54D428*Y254850D02*Y251310D01*
G54D419*X166000Y255810D02*X166250Y255560D01*
X161050Y250360D01*
G54D417*X163750Y255560D02*Y251120D01*
X166000Y256220D02*Y251535D01*
X166250Y255560D02*Y251825D01*
X164820Y257020D02*Y252610D01*
G54D420*X161150Y261796D02*Y255560D01*
G54D416*X167750Y261695D02*X166898Y260842D01*
G54D417*X164820Y257000D02*X165563Y257743D01*
Y259507D01*
X164820Y257280D02*X164470Y257630D01*
Y259590D01*
G54D424*X166250Y256660D02*Y258170D01*
G54D430*X159160Y245690D02*X165180Y251710D01*
G54D416*X319705Y228185D02*X313890Y234000D01*
G54D419*X297941Y230941D02*X301000Y234000D01*
G54D416*X307894Y228185D02*X300842D01*
G54D419*X300405Y228412D02*X294500D01*
G54D417*X302500Y232600D02*X300400D01*
X300000Y233000D01*
G54D416*X295500Y238500D02*X294500Y237500D01*
Y235500D01*
G54D417*Y233500D02*X294700D01*
X298200Y237000D01*
Y238400D01*
X296800Y239800D01*
G54D420*X313890Y234000D02*X301000D01*
G54D417*X300000Y234300D02*X299900D01*
X299000Y233400D01*
G54D416*X319705Y239996D02*X305701Y254000D01*
G54D417*X305900Y255600D02*X306000Y255700D01*
G54D419*X304895Y254806D02*X294693D01*
G54D417*X298900Y255600D02*X305900D01*
X299200Y256500D02*X305800D01*
X306700Y255600D01*
X303000Y253800D02*X302200Y254600D01*
X300300Y251600D02*X299400Y252500D01*
X297900D01*
G54D416*X295221Y244969D02*X264221D01*
X287721Y238969D02*X264221D01*
G54D418*X295221Y243469D02*Y249689D01*
X294221Y243469D02*Y249689D01*
X293221Y243469D02*Y249689D01*
X292390D02*Y243469D01*
X297221D02*Y249689D01*
G54D416*X307894Y239996D02*X301500Y246390D01*
Y249716D01*
G54D418*X292390Y252248D02*X298752D01*
X301500Y249500D01*
X296221Y243469D02*Y249469D01*
G54D419*X271465Y249689D02*X277189D01*
X278500Y251000D01*
G54D416*X291233Y224233D02*X294500D01*
X290733D02*X289767D01*
X287000Y227000D01*
X287721Y227721D01*
G54D418*X292197Y230941D02*X297941D01*
G54D416*X287721Y227721D02*Y238969D01*
X286086Y217000D02*X307268D01*
X307894Y216374D01*
X243461Y140000D02*X319705Y216244D01*
X279000Y217000D02*X278000D01*
X271000Y224000D01*
G54D417*X270200Y233200D02*X267500D01*
X266500Y234200D01*
X270100Y234100D02*X269900Y234300D01*
X266800D01*
X266900Y234400D01*
X266700Y234300D02*X267600Y233400D01*
X266900Y234400D02*X272700D01*
X267600Y233400D02*X272900D01*
G54D419*X271213Y231000D02*X261500D01*
G54D420*X258383Y228383D02*X271272D01*
G54D419*X258000Y228000D02*X258383Y228383D01*
G54D420*X269162Y249689D02*X255689D01*
G54D423*X269100Y252200D02*X260000D01*
G54D417*X255500Y249500D02*X254500D01*
G54D424*X256500Y252600D02*X258000Y254100D01*
G54D417*X260100Y251900D02*X258000Y254000D01*
G54D420*Y252248D01*
G54D417*X259900Y252000D02*X256000D01*
X255700Y252300D01*
G54D428*X254100Y249300D02*X250500Y245700D01*
G54D424*X249100Y251800D02*X250000Y250900D01*
G54D417*X251300Y252300D02*X256500D01*
G54D423*X250100Y250800D02*X251400Y252100D01*
G54D428*X248900Y244500D02*X250200Y245800D01*
G54D423*X246100Y244500D02*X248900D01*
G54D417*X246100Y252100D02*X249100D01*
G54D419*X238000Y241000D02*X239000Y242000D01*
G54D417*X249300Y240200D02*X251300Y242200D01*
Y240900D01*
X250600Y240200D01*
X246700Y234000D02*X245800Y233100D01*
X246700Y233500D02*Y234000D01*
X245600Y233300D02*X242000D01*
X245800Y233100D02*X245600Y233300D01*
Y232400D02*X246700Y233500D01*
G54D416*X244000Y212000D02*Y232000D01*
G54D417*X248000Y240000D02*X249700D01*
G54D423*X246100Y239500D02*X251000D01*
G54D417*X246800Y237100D02*X246900Y237000D01*
G54D423*X247100Y236600D02*X248900D01*
X246800Y236900D02*X247100Y236600D01*
X246900Y237000D02*X250300D01*
G54D417*X248900Y255600D02*X253300D01*
Y255900D01*
X248900D01*
X248700Y255700D01*
X245500Y259300D02*X250200D01*
X250100Y258400D02*X250200Y258500D01*
X250000Y258300D01*
X246500D01*
X245700Y258400D02*X250100D01*
X246500Y258300D02*X245500Y257300D01*
G54D419*X242102Y254795D02*X253795D01*
G54D416*X237543Y264393D02*X243150Y270000D01*
G54D422*X238643Y248457D02*Y264000D01*
G54D419*X244948Y260200D02*X251700D01*
G54D417*X251200Y261300D02*X251800Y260700D01*
X245000Y261100D02*X251200D01*
X251900Y260400D01*
X244900Y262100D02*X250700D01*
X252000Y260800D01*
X244500Y257200D02*X245700Y258400D01*
X243800Y257600D02*X245500Y259300D01*
G54D416*X260500Y244900D02*X256700Y241100D01*
X253100D01*
G54D417*X251000Y239500D02*X252300Y240800D01*
G54D416*X259500Y235100D02*X250900D01*
G54D417*X248100Y235900D02*X248600Y235400D01*
X249000D01*
G54D416*X263500Y245100D02*X263300Y244900D01*
X260500D01*
G54D425*X253795Y255295D02*X256500Y257900D01*
G54D419*Y257400D02*X256635Y257365D01*
X271272Y230941D02*X271213Y231000D01*
X261500D02*X261250Y231250D01*
G54D416*X277000Y225000D02*X276000D01*
X273000Y222000D01*
X262800Y238400D02*X259500Y235100D01*
G54D419*X261500Y255000D02*X261694Y254806D01*
X271465D01*
G54D416*X278500Y251000D02*Y262629D01*
X279371Y263500D01*
X286457D02*X291001Y258956D01*
X294693D01*
X295500Y264000D02*X293228Y261728D01*
X288228D01*
X243150Y270000D02*X290000D01*
X294750Y265250D01*
Y263250D01*
G54D419*X256635Y257365D02*X271465Y257565D01*
G54D417*X256300Y259400D02*X271700Y258900D01*
X256100Y260500D02*X271100Y260000D01*
X269700Y258800D02*X269800Y258900D01*
X257000Y258700D02*X269700Y258800D01*
G54D419*X270000Y259500D02*Y257465D01*
G54D417*X271700Y258900D02*X273800Y257900D01*
X271100Y260000D02*X273800Y258400D01*
X272400Y258200D02*X270500Y258300D01*
G54D416*X123550Y223190D03*
Y232990D03*
X113750D03*
Y223190D03*
G54D431*X103050Y251790D03*
Y204390D03*
G54D432*X136570Y156510D03*
Y177510D03*
G54D433*X224000Y212000D03*
Y202000D03*
X234000Y212000D03*
Y202000D03*
X244000D03*
Y212000D03*
X307894Y216374D03*
Y228185D03*
Y239996D03*
X319705Y216374D03*
Y239996D03*
Y228185D03*
G54D434*X336713D03*
G54D435*X174500Y265893D02*Y265107D01*
X181586Y265893D02*Y265107D01*
G54D436*X189350Y256660D02*Y254460D01*
G54D437*X186750Y256660D02*Y254460D01*
X184250Y256660D02*Y254460D01*
X181650Y256660D02*Y254460D01*
X179050Y256660D02*Y254460D01*
X176550Y256660D02*Y254460D01*
X168850Y256660D02*Y254460D01*
X173950Y256660D02*Y254460D01*
X171450Y256660D02*Y254460D01*
G54D438*X242102Y234324D02*X246708D01*
X242102Y236883D02*X246708D01*
G54D439*X242378Y237382D02*Y236382D01*
X242252Y237382D02*X242752D01*
X242878Y237257D01*
Y237007D01*
X242752Y236882D02*X242878Y237007D01*
X242378Y236882D02*X242752D01*
X243178Y236382D02*X243678D01*
X243802Y236507D01*
Y236807D02*Y236507D01*
X243678Y236932D02*X243802Y236807D01*
X243302Y236932D02*X243678D01*
X243302Y237382D02*Y236382D01*
X243178Y237382D02*X243678D01*
X243802Y237257D01*
Y237057D01*
X243678Y236932D02*X243802Y237057D01*
X244478Y237382D02*X244602Y237257D01*
X244228Y237382D02*X244478D01*
X244102Y237257D02*X244228Y237382D01*
X244102Y237257D02*Y236507D01*
X244228Y236382D01*
X244478Y236932D02*X244602Y236807D01*
X244102Y236932D02*X244478D01*
X244228Y236382D02*X244478D01*
X244602Y236507D01*
Y236807D02*Y236507D01*
G54D438*X242102Y239442D02*X246708D01*
X218874Y242001D02*X223480D01*
X218874Y239442D02*X223480D01*
X218874Y236883D02*X223480D01*
X218874Y234324D02*X223480D01*
X242102Y242001D02*X246708D01*
X292390Y249689D02*X296996D01*
X292390Y252248D02*X296996D01*
X292390Y254806D02*X296996D01*
X292390Y257365D02*X296996D01*
X269162D02*X273768D01*
G54D439*X269438Y257864D02*Y256864D01*
X269762Y257864D02*X269938Y257690D01*
Y257040D01*
X269762Y256864D02*X269938Y257040D01*
X269312Y256864D02*X269762D01*
X269312Y257864D02*X269762D01*
G54D440*X270238Y257614D02*Y257590D01*
G54D439*Y257240D02*Y256864D01*
X270612Y257240D02*Y256864D01*
Y257240D02*X270738Y257364D01*
X270862D01*
X270988Y257240D01*
Y256864D01*
X270488Y257364D02*X270612Y257240D01*
G54D438*X269162Y254806D02*X273768D01*
X269162Y252248D02*X273768D01*
X269162Y249689D02*X273768D01*
G54D435*X286457Y263893D02*Y263107D01*
X279371Y263893D02*Y263107D01*
G54D438*X292197Y233500D02*X296803D01*
X268969D02*X273575D01*
G54D439*X269244Y234000D02*Y233000D01*
X269570Y234000D02*X269744Y233824D01*
Y233174D01*
X269570Y233000D02*X269744Y233174D01*
X269120Y233000D02*X269570D01*
X269120Y234000D02*X269570D01*
G54D440*X270044Y233750D02*Y233724D01*
G54D439*Y233374D02*Y233000D01*
X270420Y233374D02*Y233000D01*
Y233374D02*X270544Y233500D01*
X270670D01*
X270794Y233374D01*
Y233000D01*
X270294Y233500D02*X270420Y233374D01*
G54D437*X166250Y256660D02*Y254460D01*
X163750Y256660D02*Y254460D01*
X161150Y256660D02*Y254460D01*
X158650Y256660D02*Y254460D01*
X156050Y256660D02*Y254460D01*
G54D435*X138607Y241914D02*X139393D01*
X138607Y249000D02*X139393D01*
X147607Y241914D02*X148393D01*
X147607Y249000D02*X148393D01*
X147607Y256000D02*X148393D01*
X147607Y263086D02*X148393D01*
X138607Y256000D02*X139393D01*
X138607Y263086D02*X139393D01*
X237543Y264393D02*Y263607D01*
X230457Y264393D02*Y263607D01*
G54D438*X218874Y257354D02*X223480D01*
X218874Y254795D02*X223480D01*
X218874Y252236D02*X223480D01*
X218874Y249677D02*X223480D01*
X218874Y247118D02*X223480D01*
X218874Y244560D02*X223480D01*
X242102D02*X246708D01*
X242102Y247118D02*X246708D01*
X242102Y249677D02*X246708D01*
X242102Y252236D02*X246708D01*
X242102Y254795D02*X246708D01*
G54D439*X242378Y255295D02*Y254295D01*
X242252Y255295D02*X242752D01*
X242878Y255170D01*
Y254920D01*
X242752Y254795D02*X242878Y254920D01*
X242378Y254795D02*X242752D01*
X243352Y254295D02*X243678D01*
X243178Y254470D02*X243352Y254295D01*
X243178Y255120D02*Y254470D01*
Y255120D02*X243352Y255295D01*
X243678D01*
X243978Y254295D02*X244478D01*
X244602Y254420D01*
Y254720D02*Y254420D01*
X244478Y254845D02*X244602Y254720D01*
X244102Y254845D02*X244478D01*
X244102Y255295D02*Y254295D01*
X243978Y255295D02*X244478D01*
X244602Y255170D01*
Y254970D01*
X244478Y254845D02*X244602Y254970D01*
X244902Y255095D02*X245102Y255295D01*
Y254295D01*
X244902D02*X245278D01*
G54D438*X242102Y257354D02*X246708D01*
G54D435*X286086Y217393D02*Y216607D01*
X279000Y217393D02*Y216607D01*
X146107Y206957D02*X146893D01*
X146107Y214043D02*X146893D01*
X138607Y214000D02*X139393D01*
X138607Y206914D02*X139393D01*
G54D438*X292197Y225824D02*X296803D01*
G54D439*X292348Y225324D02*X292848D01*
X293322D02*X293648D01*
X293148Y225498D02*X293322Y225324D01*
X293148Y226148D02*Y225498D01*
Y226148D02*X293322Y226324D01*
X293648D01*
X294448D02*X294572Y226198D01*
X294072Y226324D02*X294448D01*
X293948Y226198D02*X294072Y226324D01*
X293948Y226198D02*Y225948D01*
X294072Y225824D01*
X294448D01*
X294572Y225698D01*
Y225448D01*
X294448Y225324D02*X294572Y225448D01*
X294072Y225324D02*X294448D01*
X293948Y225448D02*X294072Y225324D01*
X294872D02*X295372D01*
X295673Y225448D02*X296423Y226198D01*
X297223Y226324D02*X297348Y226198D01*
X296848Y226324D02*X297223D01*
X296723Y226198D02*X296848Y226324D01*
X296723Y226198D02*Y225948D01*
X296848Y225824D01*
X297223D01*
X297348Y225698D01*
Y225448D01*
X297223Y225324D02*X297348Y225448D01*
X296848Y225324D02*X297223D01*
X296723Y225448D02*X296848Y225324D01*
X297648Y226324D02*Y225324D01*
X298273Y226324D02*Y225324D01*
X297648Y225824D02*X298273D01*
X298698Y226324D02*Y225324D01*
X299023Y226324D02*X299198Y226148D01*
Y225498D01*
X299023Y225324D02*X299198Y225498D01*
X298573Y225324D02*X299023D01*
X298573Y226324D02*X299023D01*
X299498D02*Y225324D01*
Y226324D02*X300123Y225324D01*
Y226324D02*Y225324D01*
G54D441*X292197Y228383D02*X296803D01*
X292197Y230941D02*X296803D01*
G54D438*X268969D02*X273575D01*
X268969Y228383D02*X273575D01*
X268969Y225824D02*X273575D01*
G54D442*X171600Y198700D02*X171700D01*
Y211600D02*X171800D01*
X183300D02*X183400D01*
G54D437*X181550Y227560D02*Y225360D01*
X184150Y227560D02*Y225360D01*
X186650Y227560D02*Y225360D01*
G54D435*X194607Y160086D02*X195393D01*
X194607Y166000D02*X195393D01*
X194607Y153000D02*X195393D01*
G54D443*X167200Y158620D02*X176200D01*
G54D435*X194607Y173086D02*X195393D01*
G54D442*X183300Y198600D02*X183400D01*
G54D444*X180700Y186320D02*Y179720D01*
X171700Y186320D02*Y179720D01*
X162600Y186320D02*Y179720D01*
G54D435*X144457Y176393D02*Y175607D01*
X151543Y176393D02*Y175607D01*
X146543Y199893D02*Y199107D01*
X139457Y199893D02*Y199107D01*
G54D437*X155950Y227560D02*Y225360D01*
X158550Y227560D02*Y225360D01*
X161050Y227560D02*Y225360D01*
X163650Y227560D02*Y225360D01*
X166250Y227560D02*Y225360D01*
X168750Y227560D02*Y225360D01*
X171350Y227560D02*Y225360D01*
X173850Y227560D02*Y225360D01*
X176450Y227560D02*Y225360D01*
X179050Y227560D02*Y225360D01*
X189250Y227560D02*Y225360D01*
G54D445*X251500Y260000D03*
G54D446*X261500Y255000D03*
X258000Y254000D03*
G54D445*X278500Y251000D03*
X227000Y254000D03*
G54D447*X270000Y261200D03*
G54D448*X164000Y169000D03*
X187000Y174000D03*
G54D445*X171800Y220500D03*
G54D448*X195000Y205000D03*
Y246000D03*
G54D445*X205000Y234000D03*
X228000Y239500D03*
X204200Y216600D03*
G54D447*X261500Y231000D03*
X266700Y234300D03*
X258000Y228000D03*
G54D445*X277000Y225000D03*
G54D421*X295500Y238500D03*
Y264000D03*
G54D449*G54D450*G54D451*G54D450*G54D452*G54D449*G54D452*G54D451*G54D450*G54D451*G54D453*G54D454*G54D416*G54D455*G54D456*M02*
