M48
INCH
T154C0.047
T153C0.024
T152C0.135
T151C0.050
T150C0.118
T149C0.039
T148C0.047
%
T153
X026800Y017400
X026600Y014000
X028650Y021950
X024860Y021290
X027200Y020000
X024600Y020750
X027700Y021910
X025190Y022450
X020900Y022500
X021940Y020630
X015200Y020600
X015770Y019980
X018380Y024150
X023080Y023930
X022830Y020600
X014100Y023100
X025880Y015210
T149
X012355Y022319
X011375Y023299
X011375Y022319
X012355Y023299
T154
X017970Y019490
T148
X031985Y022823
X021910Y027280
X022910Y026280
X022910Y025280
X021910Y026280
X021910Y025280
X030804Y021642
X030804Y022823
X030804Y024004
X031985Y021642
X031985Y024004
X022910Y027280
T151
X032590Y018470
X032590Y016370
T150
X010305Y020439
X010305Y025179
T152
X033680Y022820
M30
