M48
INCH
T213C0.012
T212C0.024
T211C0.032
T210C0.047
T209C0.118
T208C0.047
T207C0.050
T206C0.118
T205C0.039
%
T213
X025800Y025400
X026150Y023100
X027000Y026120
X025800Y022800
X026670Y023430
X026150Y025500
T212
X022800Y023950
X020500Y023400
X020420Y021660
X029550Y026400
X022700Y025400
X027850Y025100
X027700Y022500
X029550Y023850
T211
X025150Y026000
X017180Y022050
T205
X011375Y022319
X012355Y022319
X012355Y023299
X011375Y023299
T210
X019500Y020500
X018700Y017400
X016400Y016900
X019500Y024600
T208
X030789Y022818
X022400Y021200
X022400Y020200
X023400Y021200
X023400Y020200
X024400Y020200
X024400Y021200
X030789Y021637
X030789Y024000
X031970Y021637
X031970Y024000
X031970Y022818
T207
X013657Y017751
X013657Y015651
T206
X010305Y020439
X010305Y025179
T209
X033671Y022818
M30
