M48
INCH
T209C0.047
T208C0.024
T207C0.012
T206C0.032
T205C0.135
T204C0.047
T203C0.050
T202C0.118
T201C0.039
%
T207
X026381Y025489
X027000Y026120
X026670Y023430
X025740Y022160
X026160Y022880
X025740Y025350
T208
X029390Y026290
X028290Y024760
X031390Y023350
X029550Y023850
X028000Y022050
X022160Y026720
X022680Y022820
X020500Y023400
X020420Y021660
X014940Y023440
X030860Y025750
T206
X025150Y026000
T201
X012355Y023299
X012355Y022319
X011375Y023299
X011375Y022319
T209
X019500Y024600
X019710Y020650
X017440Y027230
T204
X024400Y020200
X023400Y020200
X023400Y021200
X031985Y024004
X022400Y021200
X022400Y020200
X031985Y022823
X031985Y021642
X030804Y024004
X030804Y022823
X030804Y021642
X024400Y021200
T203
X013657Y015651
X013657Y017751
T202
X010305Y025179
X010305Y020439
T205
X033680Y022820
M30
