G04 start of page 3 for group 1 idx 1 *
G04 Title: (unknown), solder *
G04 Creator: pcb 20110918 *
G04 CreationDate: Fri Feb 24 13:22:54 2012 UTC *
G04 For: mldelibero *
G04 Format: Gerber/RS-274X *
G04 PCB-Dimensions: 600000 500000 *
G04 PCB-Coordinate-Origin: lower left *
%MOIN*%
%FSLAX25Y25*%
%LNBOTTOM*%
%ADD28C,0.0276*%
%ADD27C,0.0280*%
%ADD26C,0.0350*%
%ADD25C,0.0360*%
%ADD24C,0.0600*%
%ADD23C,0.0500*%
%ADD22C,0.0001*%
%ADD21C,0.0010*%
G54D21*X83000Y435500D02*X272000D01*
X257000Y423500D02*X256000D01*
Y420000D01*
X260500D01*
X257000Y435500D02*Y421000D01*
X272000D01*
X260500Y420000D02*Y421000D01*
X98000Y435500D02*Y421000D01*
X83000D01*
X98000Y423500D02*X99000D01*
Y420000D01*
X94500D01*
Y421000D01*
X272000Y435500D02*Y150700D01*
Y165700D02*X257000D01*
Y150700D01*
X259500Y165700D02*Y166700D01*
X272000Y150700D02*X83000D01*
Y435500D01*
Y165700D02*X98000D01*
Y150700D01*
X95500Y165700D02*Y166700D01*
X99000D01*
Y162200D01*
X98000D01*
X259500Y166700D02*X256000D01*
Y162200D01*
X257000D01*
X217000Y150700D02*Y150000D01*
X177000D01*
Y150700D01*
G54D22*G36*
X228995Y441500D02*X277000D01*
Y145000D01*
X228995D01*
Y202490D01*
X229000Y202489D01*
X229549Y202532D01*
X230085Y202661D01*
X230594Y202872D01*
X231064Y203160D01*
X231483Y203517D01*
X231840Y203936D01*
X232128Y204406D01*
X232339Y204915D01*
X232468Y205451D01*
X232500Y206000D01*
X232468Y206549D01*
X232339Y207085D01*
X232128Y207594D01*
X231840Y208064D01*
X231483Y208483D01*
X231064Y208840D01*
X230594Y209128D01*
X230085Y209339D01*
X229549Y209468D01*
X229000Y209511D01*
X228995Y209510D01*
Y441500D01*
G37*
G36*
X217495D02*X228995D01*
Y209510D01*
X228451Y209468D01*
X227915Y209339D01*
X227406Y209128D01*
X226936Y208840D01*
X226517Y208483D01*
X226160Y208064D01*
X225872Y207594D01*
X225661Y207085D01*
X225532Y206549D01*
X225489Y206000D01*
X225532Y205451D01*
X225661Y204915D01*
X225872Y204406D01*
X226160Y203936D01*
X226517Y203517D01*
X226936Y203160D01*
X227406Y202872D01*
X227915Y202661D01*
X228451Y202532D01*
X228995Y202490D01*
Y145000D01*
X217495D01*
Y159990D01*
X217500Y159989D01*
X218049Y160032D01*
X218585Y160161D01*
X219094Y160372D01*
X219564Y160660D01*
X219983Y161017D01*
X220340Y161436D01*
X220628Y161906D01*
X220839Y162415D01*
X220968Y162951D01*
X221000Y163500D01*
X220968Y164049D01*
X220839Y164585D01*
X220628Y165094D01*
X220340Y165564D01*
X219983Y165983D01*
X219564Y166340D01*
X219094Y166628D01*
X218585Y166839D01*
X218049Y166968D01*
X217500Y167011D01*
X217495Y167010D01*
Y171487D01*
X217500Y171486D01*
X218206Y171542D01*
X218895Y171707D01*
X219549Y171978D01*
X220153Y172348D01*
X220692Y172808D01*
X221152Y173347D01*
X221522Y173951D01*
X221793Y174605D01*
X221958Y175294D01*
X222000Y176000D01*
X221958Y176706D01*
X221793Y177395D01*
X221522Y178049D01*
X221152Y178653D01*
X220692Y179192D01*
X220153Y179652D01*
X219549Y180022D01*
X218895Y180293D01*
X218206Y180458D01*
X217500Y180514D01*
X217495Y180513D01*
Y201507D01*
X220735Y201514D01*
X220965Y201569D01*
X221183Y201659D01*
X221384Y201783D01*
X221564Y201936D01*
X221717Y202116D01*
X221841Y202317D01*
X221931Y202535D01*
X221986Y202765D01*
X222000Y203000D01*
X221986Y209235D01*
X221931Y209465D01*
X221841Y209683D01*
X221717Y209884D01*
X221564Y210064D01*
X221384Y210217D01*
X221183Y210341D01*
X220965Y210431D01*
X220735Y210486D01*
X220500Y210500D01*
X217495Y210493D01*
Y248027D01*
X217628Y248037D01*
X218240Y248184D01*
X218822Y248425D01*
X219358Y248754D01*
X219837Y249163D01*
X220246Y249642D01*
X220575Y250178D01*
X220816Y250760D01*
X220963Y251372D01*
X221000Y252000D01*
X220963Y252628D01*
X220816Y253240D01*
X220575Y253822D01*
X220246Y254358D01*
X219837Y254837D01*
X219358Y255246D01*
X218822Y255575D01*
X218240Y255816D01*
X217628Y255963D01*
X217495Y255973D01*
Y441500D01*
G37*
G36*
Y145000D02*X207493D01*
Y171487D01*
X207500Y171486D01*
X208206Y171542D01*
X208895Y171707D01*
X209549Y171978D01*
X210153Y172348D01*
X210692Y172808D01*
X211152Y173347D01*
X211522Y173951D01*
X211793Y174605D01*
X211958Y175294D01*
X212000Y176000D01*
X211958Y176706D01*
X211793Y177395D01*
X211522Y178049D01*
X211152Y178653D01*
X210692Y179192D01*
X210153Y179652D01*
X209549Y180022D01*
X208895Y180293D01*
X208206Y180458D01*
X207500Y180514D01*
X207493Y180513D01*
Y201487D01*
X207500Y201486D01*
X208206Y201542D01*
X208895Y201707D01*
X209549Y201978D01*
X210153Y202348D01*
X210692Y202808D01*
X211152Y203347D01*
X211522Y203951D01*
X211793Y204605D01*
X211958Y205294D01*
X212000Y206000D01*
X211958Y206706D01*
X211793Y207395D01*
X211522Y208049D01*
X211152Y208653D01*
X211000Y208831D01*
Y213363D01*
X211011Y213500D01*
X210968Y214049D01*
X210968Y214049D01*
X210839Y214585D01*
X210628Y215094D01*
X210340Y215564D01*
X209983Y215983D01*
X209878Y216072D01*
X207493Y218457D01*
Y237775D01*
X207511Y238000D01*
X207493Y238225D01*
Y248500D01*
X215056D01*
X215178Y248425D01*
X215760Y248184D01*
X216372Y248037D01*
X217000Y247988D01*
X217495Y248027D01*
Y210493D01*
X214265Y210486D01*
X214035Y210431D01*
X213817Y210341D01*
X213616Y210217D01*
X213436Y210064D01*
X213283Y209884D01*
X213159Y209683D01*
X213069Y209465D01*
X213014Y209235D01*
X213000Y209000D01*
X213014Y202765D01*
X213069Y202535D01*
X213159Y202317D01*
X213283Y202116D01*
X213436Y201936D01*
X213616Y201783D01*
X213817Y201659D01*
X214035Y201569D01*
X214265Y201514D01*
X214500Y201500D01*
X217495Y201507D01*
Y180513D01*
X216794Y180458D01*
X216105Y180293D01*
X215451Y180022D01*
X214847Y179652D01*
X214308Y179192D01*
X213848Y178653D01*
X213478Y178049D01*
X213207Y177395D01*
X213042Y176706D01*
X212986Y176000D01*
X213042Y175294D01*
X213207Y174605D01*
X213478Y173951D01*
X213848Y173347D01*
X214308Y172808D01*
X214847Y172348D01*
X215451Y171978D01*
X216105Y171707D01*
X216794Y171542D01*
X217495Y171487D01*
Y167010D01*
X216951Y166968D01*
X216415Y166839D01*
X215906Y166628D01*
X215436Y166340D01*
X215017Y165983D01*
X214660Y165564D01*
X214372Y165094D01*
X214161Y164585D01*
X214032Y164049D01*
X213989Y163500D01*
X214032Y162951D01*
X214161Y162415D01*
X214372Y161906D01*
X214660Y161436D01*
X215017Y161017D01*
X215436Y160660D01*
X215906Y160372D01*
X216415Y160161D01*
X216951Y160032D01*
X217495Y159990D01*
Y145000D01*
G37*
G36*
X207493Y238225D02*X207468Y238549D01*
X207339Y239085D01*
X207128Y239594D01*
X206840Y240064D01*
X206483Y240483D01*
X206064Y240840D01*
X205594Y241128D01*
X205085Y241339D01*
X204549Y241468D01*
X204000Y241511D01*
X203451Y241468D01*
X202915Y241339D01*
X202406Y241128D01*
X201936Y240840D01*
X201525Y240475D01*
X197493Y236443D01*
Y246543D01*
X199450Y248500D01*
X207493D01*
Y238225D01*
G37*
G36*
Y218457D02*X198450Y227500D01*
X206475Y235525D01*
X206840Y235936D01*
X207128Y236406D01*
X207339Y236915D01*
X207468Y237451D01*
X207493Y237775D01*
Y218457D01*
G37*
G36*
Y145000D02*X197493D01*
Y171487D01*
X197500Y171486D01*
X198206Y171542D01*
X198895Y171707D01*
X199549Y171978D01*
X200153Y172348D01*
X200692Y172808D01*
X201152Y173347D01*
X201522Y173951D01*
X201793Y174605D01*
X201958Y175294D01*
X202000Y176000D01*
X201958Y176706D01*
X201793Y177395D01*
X201522Y178049D01*
X201152Y178653D01*
X200692Y179192D01*
X200153Y179652D01*
X199549Y180022D01*
X198895Y180293D01*
X198206Y180458D01*
X197500Y180514D01*
X197493Y180513D01*
Y201487D01*
X197500Y201486D01*
X198206Y201542D01*
X198895Y201707D01*
X199549Y201978D01*
X200153Y202348D01*
X200692Y202808D01*
X201152Y203347D01*
X201522Y203951D01*
X201793Y204605D01*
X201958Y205294D01*
X202000Y206000D01*
X201958Y206706D01*
X201793Y207395D01*
X201522Y208049D01*
X201152Y208653D01*
X200692Y209192D01*
X200153Y209652D01*
X199549Y210022D01*
X198895Y210293D01*
X198206Y210458D01*
X197500Y210514D01*
X197493Y210513D01*
Y218557D01*
X204000Y212050D01*
Y208831D01*
X203848Y208653D01*
X203478Y208049D01*
X203207Y207395D01*
X203042Y206706D01*
X202986Y206000D01*
X203042Y205294D01*
X203207Y204605D01*
X203478Y203951D01*
X203848Y203347D01*
X204308Y202808D01*
X204847Y202348D01*
X205451Y201978D01*
X206105Y201707D01*
X206794Y201542D01*
X207493Y201487D01*
Y180513D01*
X206794Y180458D01*
X206105Y180293D01*
X205451Y180022D01*
X204847Y179652D01*
X204308Y179192D01*
X203848Y178653D01*
X203478Y178049D01*
X203207Y177395D01*
X203042Y176706D01*
X202986Y176000D01*
X203042Y175294D01*
X203207Y174605D01*
X203478Y173951D01*
X203848Y173347D01*
X204308Y172808D01*
X204847Y172348D01*
X205451Y171978D01*
X206105Y171707D01*
X206794Y171542D01*
X207493Y171487D01*
Y145000D01*
G37*
G36*
X197493Y236443D02*X192524Y231473D01*
X192451Y231468D01*
X191915Y231339D01*
X191406Y231128D01*
X191197Y231000D01*
X187495D01*
Y236545D01*
X197493Y246543D01*
Y236443D01*
G37*
G36*
Y145000D02*X187495D01*
Y171487D01*
X187500Y171486D01*
X188206Y171542D01*
X188895Y171707D01*
X189549Y171978D01*
X190153Y172348D01*
X190692Y172808D01*
X191152Y173347D01*
X191522Y173951D01*
X191793Y174605D01*
X191958Y175294D01*
X192000Y176000D01*
X191958Y176706D01*
X191793Y177395D01*
X191522Y178049D01*
X191152Y178653D01*
X190692Y179192D01*
X190153Y179652D01*
X189549Y180022D01*
X188895Y180293D01*
X188206Y180458D01*
X187500Y180514D01*
X187495Y180513D01*
Y224000D01*
X192050D01*
X197493Y218557D01*
Y210513D01*
X196794Y210458D01*
X196105Y210293D01*
X195451Y210022D01*
X194847Y209652D01*
X194308Y209192D01*
X193848Y208653D01*
X193478Y208049D01*
X193207Y207395D01*
X193042Y206706D01*
X192986Y206000D01*
X193042Y205294D01*
X193207Y204605D01*
X193478Y203951D01*
X193848Y203347D01*
X194308Y202808D01*
X194847Y202348D01*
X195451Y201978D01*
X196105Y201707D01*
X196794Y201542D01*
X197493Y201487D01*
Y180513D01*
X196794Y180458D01*
X196105Y180293D01*
X195451Y180022D01*
X194847Y179652D01*
X194308Y179192D01*
X193848Y178653D01*
X193478Y178049D01*
X193207Y177395D01*
X193042Y176706D01*
X192986Y176000D01*
X193042Y175294D01*
X193207Y174605D01*
X193478Y173951D01*
X193848Y173347D01*
X194308Y172808D01*
X194847Y172348D01*
X195451Y171978D01*
X196105Y171707D01*
X196794Y171542D01*
X197493Y171487D01*
Y145000D01*
G37*
G36*
X187495Y441500D02*X217495D01*
Y255973D01*
X217000Y256012D01*
X216372Y255963D01*
X215760Y255816D01*
X215178Y255575D01*
X215056Y255500D01*
X198137D01*
X198000Y255511D01*
X197451Y255468D01*
X196915Y255339D01*
X196406Y255128D01*
X195936Y254840D01*
X195517Y254483D01*
X195428Y254378D01*
X187495Y246444D01*
Y441500D01*
G37*
G36*
X166995Y227556D02*X169428Y225122D01*
X169517Y225017D01*
X169936Y224660D01*
X170406Y224372D01*
X170915Y224161D01*
X171451Y224032D01*
X172000Y223989D01*
X172137Y224000D01*
X187495D01*
Y180513D01*
X186794Y180458D01*
X186105Y180293D01*
X185451Y180022D01*
X184847Y179652D01*
X184308Y179192D01*
X183848Y178653D01*
X183478Y178049D01*
X183207Y177395D01*
X183042Y176706D01*
X182986Y176000D01*
X183042Y175294D01*
X183207Y174605D01*
X183478Y173951D01*
X183848Y173347D01*
X184308Y172808D01*
X184847Y172348D01*
X185451Y171978D01*
X186105Y171707D01*
X186794Y171542D01*
X187495Y171487D01*
Y145000D01*
X166995D01*
Y185490D01*
X167000Y185489D01*
X167549Y185532D01*
X168085Y185661D01*
X168594Y185872D01*
X169064Y186160D01*
X169483Y186517D01*
X169840Y186936D01*
X170128Y187406D01*
X170339Y187915D01*
X170468Y188451D01*
X170500Y189000D01*
X170468Y189549D01*
X170339Y190085D01*
X170128Y190594D01*
X169840Y191064D01*
X169483Y191483D01*
X169064Y191840D01*
X168594Y192128D01*
X168085Y192339D01*
X167549Y192468D01*
X167000Y192511D01*
X166995Y192510D01*
Y227556D01*
G37*
G36*
Y441500D02*X187495D01*
Y246444D01*
X181525Y240475D01*
X181160Y240064D01*
X180872Y239594D01*
X180661Y239085D01*
X180532Y238549D01*
X180489Y238000D01*
X180532Y237451D01*
X180661Y236915D01*
X180872Y236406D01*
X181160Y235936D01*
X181517Y235517D01*
X181936Y235160D01*
X182406Y234872D01*
X182915Y234661D01*
X183451Y234532D01*
X184000Y234489D01*
X184549Y234532D01*
X185085Y234661D01*
X185594Y234872D01*
X186064Y235160D01*
X186475Y235525D01*
X187495Y236545D01*
Y231000D01*
X173450D01*
X170000Y234450D01*
Y235500D01*
X169968Y236049D01*
X169839Y236585D01*
X169628Y237094D01*
X169340Y237564D01*
X168983Y237983D01*
X168564Y238340D01*
X168094Y238628D01*
X167585Y238839D01*
X167049Y238968D01*
X166995Y238972D01*
Y441500D01*
G37*
G36*
X155995D02*X166995D01*
Y238972D01*
X166500Y239011D01*
X165951Y238968D01*
X165415Y238839D01*
X164906Y238628D01*
X164436Y238340D01*
X164017Y237983D01*
X163660Y237564D01*
X163372Y237094D01*
X163161Y236585D01*
X163032Y236049D01*
X163032Y236049D01*
X162989Y235500D01*
X163000Y235363D01*
Y233137D01*
X162989Y233000D01*
X163032Y232451D01*
Y232451D01*
X163161Y231915D01*
X163372Y231406D01*
X163660Y230936D01*
X164017Y230517D01*
X164122Y230428D01*
X166995Y227556D01*
Y192510D01*
X166451Y192468D01*
X165915Y192339D01*
X165406Y192128D01*
X164936Y191840D01*
X164517Y191483D01*
X164160Y191064D01*
X163872Y190594D01*
X163661Y190085D01*
X163532Y189549D01*
X163489Y189000D01*
X163532Y188451D01*
X163661Y187915D01*
X163872Y187406D01*
X164160Y186936D01*
X164517Y186517D01*
X164936Y186160D01*
X165406Y185872D01*
X165915Y185661D01*
X166451Y185532D01*
X166995Y185490D01*
Y145000D01*
X155995D01*
Y216990D01*
X156000Y216989D01*
X156549Y217032D01*
X157085Y217161D01*
X157594Y217372D01*
X158064Y217660D01*
X158483Y218017D01*
X158840Y218436D01*
X159128Y218906D01*
X159339Y219415D01*
X159468Y219951D01*
X159500Y220500D01*
X159468Y221049D01*
X159339Y221585D01*
X159128Y222094D01*
X158840Y222564D01*
X158483Y222983D01*
X158064Y223340D01*
X157594Y223628D01*
X157085Y223839D01*
X156549Y223968D01*
X156000Y224011D01*
X155995Y224010D01*
Y441500D01*
G37*
G36*
X79000D02*X155995D01*
Y224010D01*
X155451Y223968D01*
X154915Y223839D01*
X154406Y223628D01*
X153936Y223340D01*
X153517Y222983D01*
X153160Y222564D01*
X152872Y222094D01*
X152661Y221585D01*
X152532Y221049D01*
X152489Y220500D01*
X152532Y219951D01*
X152661Y219415D01*
X152872Y218906D01*
X153160Y218436D01*
X153517Y218017D01*
X153936Y217660D01*
X154406Y217372D01*
X154915Y217161D01*
X155451Y217032D01*
X155995Y216990D01*
Y145000D01*
X79000D01*
Y441500D01*
G37*
G54D23*X184000Y238000D02*X198000Y252000D01*
X166500Y233000D02*Y235500D01*
X172000Y227500D02*X166500Y233000D01*
X192500Y227500D02*X172000D01*
X194000Y228000D02*X193000D01*
X198000Y252000D02*X217000D01*
X207500Y213500D02*Y206000D01*
X193000Y228000D02*X207500Y213500D01*
X193000Y228000D02*X192500Y227500D01*
X204000Y238000D02*X194000Y228000D01*
G54D23*X229000Y206000D03*
X217500Y163500D03*
G54D22*G36*
X214500Y209000D02*Y203000D01*
X220500D01*
Y209000D01*
X214500D01*
G37*
G54D24*X217500Y176000D03*
G54D23*X166500Y235500D03*
X156000Y220500D03*
X158000Y205500D03*
X167000Y189000D03*
G54D24*X207500Y206000D03*
X197500D03*
G54D25*X193000Y228000D03*
X204000Y238000D03*
G54D24*X187500Y206000D03*
G54D25*X184000Y238000D03*
G54D24*X187500Y176000D03*
X197500D03*
X207500D03*
X217000Y252000D03*
G54D26*G54D27*G54D26*G54D27*G54D28*G54D27*G54D28*G54D27*M02*
