G04 start of page 3 for group 1 idx 1 *
G04 Title: (unknown), solder *
G04 Creator: pcb 20110918 *
G04 CreationDate: Fri Feb 24 18:38:04 2012 UTC *
G04 For: mldelibero *
G04 Format: Gerber/RS-274X *
G04 PCB-Dimensions: 600000 500000 *
G04 PCB-Coordinate-Origin: lower left *
%MOIN*%
%FSLAX25Y25*%
%LNBOTTOM*%
%ADD32C,0.0276*%
%ADD31C,0.0280*%
%ADD30C,0.0350*%
%ADD29C,0.0354*%
%ADD28C,0.0360*%
%ADD27C,0.0900*%
%ADD26C,0.0750*%
%ADD25C,0.0600*%
%ADD24C,0.0500*%
%ADD23C,0.0001*%
%ADD22C,0.0010*%
G54D22*X257000Y423500D02*X256000D01*
Y420000D01*
X260500D01*
Y421000D01*
X98000Y423500D02*X99000D01*
Y420000D01*
X94500D01*
Y421000D01*
X98000Y435500D02*Y423500D01*
X257000Y435500D02*Y423500D01*
X98000Y435500D02*X257000D01*
X259500Y165700D02*Y166700D01*
X272000Y165700D02*X259500D01*
X260500Y421000D02*X272000D01*
Y165700D01*
X95500D02*Y166700D01*
X99000D01*
Y162200D01*
X98000D01*
X83000Y165700D02*X95500D01*
X98000D02*Y150700D01*
X259500Y166700D02*X256000D01*
Y162200D01*
X257000D01*
Y150700D01*
X217000D02*Y150000D01*
X177000D01*
Y150700D01*
X257000D02*X98000D01*
X83000Y165700D02*Y421000D01*
X94500D02*X83000D01*
G54D23*G36*
X228994Y440000D02*X277000D01*
Y143500D01*
X228994D01*
Y201988D01*
X229000Y201988D01*
X229628Y202037D01*
X230240Y202184D01*
X230822Y202425D01*
X231358Y202754D01*
X231837Y203163D01*
X232246Y203642D01*
X232575Y204178D01*
X232816Y204760D01*
X232963Y205372D01*
X233000Y206000D01*
X232963Y206628D01*
X232816Y207240D01*
X232575Y207822D01*
X232246Y208358D01*
X231837Y208837D01*
X231358Y209246D01*
X230822Y209575D01*
X230240Y209816D01*
X229628Y209963D01*
X229000Y210012D01*
X228994Y210012D01*
Y440000D01*
G37*
G36*
X217494D02*X228994D01*
Y210012D01*
X228372Y209963D01*
X227760Y209816D01*
X227178Y209575D01*
X226642Y209246D01*
X226163Y208837D01*
X225754Y208358D01*
X225425Y207822D01*
X225184Y207240D01*
X225037Y206628D01*
X224988Y206000D01*
X225037Y205372D01*
X225184Y204760D01*
X225425Y204178D01*
X225754Y203642D01*
X226163Y203163D01*
X226642Y202754D01*
X227178Y202425D01*
X227760Y202184D01*
X228372Y202037D01*
X228994Y201988D01*
Y143500D01*
X217494D01*
Y159488D01*
X217500Y159488D01*
X218128Y159537D01*
X218740Y159684D01*
X219322Y159925D01*
X219858Y160254D01*
X220337Y160663D01*
X220746Y161142D01*
X221075Y161678D01*
X221316Y162260D01*
X221463Y162872D01*
X221500Y163500D01*
X221463Y164128D01*
X221316Y164740D01*
X221075Y165322D01*
X220746Y165858D01*
X220337Y166337D01*
X219858Y166746D01*
X219322Y167075D01*
X218740Y167316D01*
X218128Y167463D01*
X217500Y167512D01*
X217494Y167512D01*
Y171487D01*
X217500Y171486D01*
X218206Y171542D01*
X218895Y171707D01*
X219549Y171978D01*
X220153Y172348D01*
X220692Y172808D01*
X221152Y173347D01*
X221522Y173951D01*
X221793Y174605D01*
X221958Y175294D01*
X222000Y176000D01*
X221958Y176706D01*
X221793Y177395D01*
X221522Y178049D01*
X221152Y178653D01*
X220692Y179192D01*
X220153Y179652D01*
X219549Y180022D01*
X218895Y180293D01*
X218206Y180458D01*
X217500Y180514D01*
X217494Y180513D01*
Y201507D01*
X220735Y201514D01*
X220965Y201569D01*
X221183Y201659D01*
X221384Y201783D01*
X221564Y201936D01*
X221717Y202116D01*
X221841Y202317D01*
X221931Y202535D01*
X221986Y202765D01*
X222000Y203000D01*
X221986Y209235D01*
X221931Y209465D01*
X221841Y209683D01*
X221717Y209884D01*
X221564Y210064D01*
X221384Y210217D01*
X221183Y210341D01*
X220965Y210431D01*
X220735Y210486D01*
X220500Y210500D01*
X217494Y210493D01*
Y248027D01*
X217627Y248037D01*
X217628Y248037D01*
X218240Y248184D01*
X218822Y248425D01*
X219358Y248754D01*
X219837Y249163D01*
X220246Y249642D01*
X220575Y250178D01*
X220816Y250760D01*
X220963Y251372D01*
X221012Y252000D01*
X220963Y252628D01*
X220816Y253240D01*
X220575Y253822D01*
X220246Y254358D01*
X219837Y254837D01*
X219358Y255246D01*
X218822Y255575D01*
X218240Y255816D01*
X217628Y255963D01*
X217627Y255963D01*
X217494Y255973D01*
Y440000D01*
G37*
G36*
Y143500D02*X207493D01*
Y171487D01*
X207500Y171486D01*
X208206Y171542D01*
X208895Y171707D01*
X209549Y171978D01*
X210153Y172348D01*
X210692Y172808D01*
X211152Y173347D01*
X211522Y173951D01*
X211793Y174605D01*
X211958Y175294D01*
X212000Y176000D01*
X211958Y176706D01*
X211793Y177395D01*
X211522Y178049D01*
X211152Y178653D01*
X210692Y179192D01*
X210153Y179652D01*
X209549Y180022D01*
X208895Y180293D01*
X208206Y180458D01*
X207500Y180514D01*
X207493Y180513D01*
Y201487D01*
X207500Y201486D01*
X208206Y201542D01*
X208895Y201707D01*
X209549Y201978D01*
X210153Y202348D01*
X210692Y202808D01*
X211152Y203347D01*
X211522Y203951D01*
X211793Y204605D01*
X211958Y205294D01*
X212000Y206000D01*
X211958Y206706D01*
X211793Y207395D01*
X211522Y208049D01*
X211152Y208653D01*
X211000Y208831D01*
Y210284D01*
X211355Y210699D01*
X211745Y211337D01*
X212031Y212028D01*
X212206Y212755D01*
X212265Y213500D01*
X212206Y214245D01*
X212031Y214972D01*
X211745Y215663D01*
X211355Y216301D01*
X210859Y216859D01*
X207493Y220224D01*
Y233715D01*
X207889Y234111D01*
X208463Y234757D01*
X208916Y235495D01*
X209247Y236295D01*
X209449Y237137D01*
X209517Y238000D01*
X209449Y238863D01*
X209247Y239705D01*
X208916Y240505D01*
X208463Y241243D01*
X207901Y241901D01*
X207493Y242250D01*
Y248000D01*
X216843D01*
X217000Y247988D01*
X217494Y248027D01*
Y210493D01*
X214265Y210486D01*
X214035Y210431D01*
X213817Y210341D01*
X213616Y210217D01*
X213436Y210064D01*
X213283Y209884D01*
X213159Y209683D01*
X213069Y209465D01*
X213014Y209235D01*
X213000Y209000D01*
X213014Y202765D01*
X213069Y202535D01*
X213159Y202317D01*
X213283Y202116D01*
X213436Y201936D01*
X213616Y201783D01*
X213817Y201659D01*
X214035Y201569D01*
X214265Y201514D01*
X214500Y201500D01*
X217494Y201507D01*
Y180513D01*
X216794Y180458D01*
X216105Y180293D01*
X215451Y180022D01*
X214847Y179652D01*
X214308Y179192D01*
X213848Y178653D01*
X213478Y178049D01*
X213207Y177395D01*
X213042Y176706D01*
X212986Y176000D01*
X213042Y175294D01*
X213207Y174605D01*
X213478Y173951D01*
X213848Y173347D01*
X214308Y172808D01*
X214847Y172348D01*
X215451Y171978D01*
X216105Y171707D01*
X216794Y171542D01*
X217494Y171487D01*
Y167512D01*
X216872Y167463D01*
X216260Y167316D01*
X215678Y167075D01*
X215142Y166746D01*
X214663Y166337D01*
X214254Y165858D01*
X213925Y165322D01*
X213684Y164740D01*
X213537Y164128D01*
X213488Y163500D01*
X213537Y162872D01*
X213684Y162260D01*
X213925Y161678D01*
X214254Y161142D01*
X214663Y160663D01*
X215142Y160254D01*
X215678Y159925D01*
X216260Y159684D01*
X216872Y159537D01*
X217494Y159488D01*
Y143500D01*
G37*
G36*
X207493Y242250D02*X207243Y242463D01*
X206505Y242916D01*
X205705Y243247D01*
X204863Y243449D01*
X204000Y243517D01*
X203137Y243449D01*
X202295Y243247D01*
X201500Y242918D01*
Y248000D01*
X207493D01*
Y242250D01*
G37*
G36*
Y220224D02*X201500Y226218D01*
Y227722D01*
X207493Y233715D01*
Y220224D01*
G37*
G36*
Y143500D02*X197493D01*
Y171487D01*
X197500Y171486D01*
X198206Y171542D01*
X198895Y171707D01*
X199549Y171978D01*
X200153Y172348D01*
X200692Y172808D01*
X201152Y173347D01*
X201522Y173951D01*
X201793Y174605D01*
X201958Y175294D01*
X202000Y176000D01*
X201958Y176706D01*
X201793Y177395D01*
X201522Y178049D01*
X201152Y178653D01*
X200692Y179192D01*
X200153Y179652D01*
X199549Y180022D01*
X198895Y180293D01*
X198206Y180458D01*
X197500Y180514D01*
X197493Y180513D01*
Y201487D01*
X197500Y201486D01*
X198206Y201542D01*
X198895Y201707D01*
X199549Y201978D01*
X200153Y202348D01*
X200692Y202808D01*
X201152Y203347D01*
X201522Y203951D01*
X201793Y204605D01*
X201958Y205294D01*
X202000Y206000D01*
X201958Y206706D01*
X201793Y207395D01*
X201522Y208049D01*
X201152Y208653D01*
X200692Y209192D01*
X200153Y209652D01*
X199549Y210022D01*
X198895Y210293D01*
X198206Y210458D01*
X197500Y210514D01*
X197493Y210513D01*
Y216789D01*
X204000Y210282D01*
Y208831D01*
X203848Y208653D01*
X203478Y208049D01*
X203207Y207395D01*
X203042Y206706D01*
X202986Y206000D01*
X203042Y205294D01*
X203207Y204605D01*
X203478Y203951D01*
X203848Y203347D01*
X204308Y202808D01*
X204847Y202348D01*
X205451Y201978D01*
X206105Y201707D01*
X206794Y201542D01*
X207493Y201487D01*
Y180513D01*
X206794Y180458D01*
X206105Y180293D01*
X205451Y180022D01*
X204847Y179652D01*
X204308Y179192D01*
X203848Y178653D01*
X203478Y178049D01*
X203207Y177395D01*
X203042Y176706D01*
X202986Y176000D01*
X203042Y175294D01*
X203207Y174605D01*
X203478Y173951D01*
X203848Y173347D01*
X204308Y172808D01*
X204847Y172348D01*
X205451Y171978D01*
X206105Y171707D01*
X206794Y171542D01*
X207493Y171487D01*
Y143500D01*
G37*
G36*
X197493D02*X191750D01*
Y174501D01*
X191793Y174605D01*
X191958Y175294D01*
X192000Y176000D01*
X191958Y176706D01*
X191793Y177395D01*
X191750Y177499D01*
Y222500D01*
X191782D01*
X197493Y216789D01*
Y210513D01*
X196794Y210458D01*
X196105Y210293D01*
X195451Y210022D01*
X194847Y209652D01*
X194308Y209192D01*
X193848Y208653D01*
X193478Y208049D01*
X193207Y207395D01*
X193042Y206706D01*
X192986Y206000D01*
X193042Y205294D01*
X193207Y204605D01*
X193478Y203951D01*
X193848Y203347D01*
X194308Y202808D01*
X194847Y202348D01*
X195451Y201978D01*
X196105Y201707D01*
X196794Y201542D01*
X197493Y201487D01*
Y180513D01*
X196794Y180458D01*
X196105Y180293D01*
X195451Y180022D01*
X194847Y179652D01*
X194308Y179192D01*
X193848Y178653D01*
X193478Y178049D01*
X193207Y177395D01*
X193042Y176706D01*
X192986Y176000D01*
X193042Y175294D01*
X193207Y174605D01*
X193478Y173951D01*
X193848Y173347D01*
X194308Y172808D01*
X194847Y172348D01*
X195451Y171978D01*
X196105Y171707D01*
X196794Y171542D01*
X197493Y171487D01*
Y143500D01*
G37*
G36*
X191750Y440000D02*X217494D01*
Y255973D01*
X217000Y256012D01*
X216843Y256000D01*
X201500D01*
Y256500D01*
X199548D01*
X199472Y256531D01*
X198745Y256706D01*
X198000Y256765D01*
X197255Y256706D01*
X196528Y256531D01*
X196452Y256500D01*
X191750D01*
Y440000D01*
G37*
G36*
X166994Y227556D02*X168151Y226400D01*
X168184Y226260D01*
X168425Y225678D01*
X168754Y225142D01*
X169163Y224663D01*
X169642Y224254D01*
X170178Y223925D01*
X170760Y223684D01*
X171000Y223626D01*
Y222500D01*
X191750D01*
Y177499D01*
X191522Y178049D01*
X191152Y178653D01*
X190692Y179192D01*
X190153Y179652D01*
X189549Y180022D01*
X188895Y180293D01*
X188206Y180458D01*
X187500Y180514D01*
X186794Y180458D01*
X186105Y180293D01*
X185451Y180022D01*
X184847Y179652D01*
X184308Y179192D01*
X183848Y178653D01*
X183478Y178049D01*
X183207Y177395D01*
X183042Y176706D01*
X182986Y176000D01*
X183042Y175294D01*
X183207Y174605D01*
X183478Y173951D01*
X183848Y173347D01*
X184308Y172808D01*
X184847Y172348D01*
X185451Y171978D01*
X186105Y171707D01*
X186794Y171542D01*
X187500Y171486D01*
X188206Y171542D01*
X188895Y171707D01*
X189549Y171978D01*
X190153Y172348D01*
X190692Y172808D01*
X191152Y173347D01*
X191522Y173951D01*
X191750Y174501D01*
Y143500D01*
X166994D01*
Y184988D01*
X167000Y184988D01*
X167628Y185037D01*
X168240Y185184D01*
X168822Y185425D01*
X169358Y185754D01*
X169837Y186163D01*
X170246Y186642D01*
X170575Y187178D01*
X170816Y187760D01*
X170963Y188372D01*
X171000Y189000D01*
X170963Y189628D01*
X170816Y190240D01*
X170575Y190822D01*
X170246Y191358D01*
X169837Y191837D01*
X169358Y192246D01*
X168822Y192575D01*
X168240Y192816D01*
X167628Y192963D01*
X167000Y193012D01*
X166994Y193012D01*
Y227556D01*
G37*
G36*
Y440000D02*X191750D01*
Y256500D01*
X171000D01*
Y233450D01*
X170279Y234171D01*
X170316Y234260D01*
X170463Y234872D01*
X170500Y235500D01*
X170463Y236128D01*
X170316Y236740D01*
X170075Y237322D01*
X169746Y237858D01*
X169337Y238337D01*
X168858Y238746D01*
X168322Y239075D01*
X167740Y239316D01*
X167128Y239463D01*
X166994Y239473D01*
Y440000D01*
G37*
G36*
X157994D02*X166994D01*
Y239473D01*
X166500Y239512D01*
X165872Y239463D01*
X165260Y239316D01*
X164678Y239075D01*
X164142Y238746D01*
X163663Y238337D01*
X163254Y237858D01*
X162925Y237322D01*
X162684Y236740D01*
X162537Y236128D01*
X162488Y235500D01*
X162537Y234872D01*
X162684Y234260D01*
X162925Y233678D01*
X163000Y233556D01*
Y233137D01*
X162989Y233000D01*
X163032Y232451D01*
Y232451D01*
X163161Y231915D01*
X163372Y231406D01*
X163660Y230936D01*
X164017Y230517D01*
X164122Y230428D01*
X166994Y227556D01*
Y193012D01*
X166372Y192963D01*
X165760Y192816D01*
X165178Y192575D01*
X164642Y192246D01*
X164163Y191837D01*
X163754Y191358D01*
X163425Y190822D01*
X163184Y190240D01*
X163037Y189628D01*
X162988Y189000D01*
X163037Y188372D01*
X163184Y187760D01*
X163425Y187178D01*
X163754Y186642D01*
X164163Y186163D01*
X164642Y185754D01*
X165178Y185425D01*
X165760Y185184D01*
X166372Y185037D01*
X166994Y184988D01*
Y143500D01*
X157994D01*
Y201488D01*
X158000Y201488D01*
X158628Y201537D01*
X159240Y201684D01*
X159822Y201925D01*
X160358Y202254D01*
X160837Y202663D01*
X161246Y203142D01*
X161575Y203678D01*
X161816Y204260D01*
X161963Y204872D01*
X162000Y205500D01*
X161963Y206128D01*
X161816Y206740D01*
X161575Y207322D01*
X161246Y207858D01*
X160837Y208337D01*
X160358Y208746D01*
X159822Y209075D01*
X159240Y209316D01*
X158628Y209463D01*
X158000Y209512D01*
X157994Y209512D01*
Y217031D01*
X158358Y217254D01*
X158837Y217663D01*
X159246Y218142D01*
X159575Y218678D01*
X159816Y219260D01*
X159963Y219872D01*
X160000Y220500D01*
X159963Y221128D01*
X159816Y221740D01*
X159575Y222322D01*
X159246Y222858D01*
X158837Y223337D01*
X158358Y223746D01*
X157994Y223969D01*
Y440000D01*
G37*
G36*
X79000D02*X157994D01*
Y223969D01*
X157822Y224075D01*
X157240Y224316D01*
X156628Y224463D01*
X156000Y224512D01*
X155372Y224463D01*
X154760Y224316D01*
X154178Y224075D01*
X153642Y223746D01*
X153163Y223337D01*
X152754Y222858D01*
X152425Y222322D01*
X152184Y221740D01*
X152037Y221128D01*
X151988Y220500D01*
X152037Y219872D01*
X152184Y219260D01*
X152425Y218678D01*
X152754Y218142D01*
X153163Y217663D01*
X153642Y217254D01*
X154178Y216925D01*
X154760Y216684D01*
X155372Y216537D01*
X156000Y216488D01*
X156628Y216537D01*
X157240Y216684D01*
X157822Y216925D01*
X157994Y217031D01*
Y209512D01*
X157372Y209463D01*
X156760Y209316D01*
X156178Y209075D01*
X155642Y208746D01*
X155163Y208337D01*
X154754Y207858D01*
X154425Y207322D01*
X154184Y206740D01*
X154037Y206128D01*
X153988Y205500D01*
X154037Y204872D01*
X154184Y204260D01*
X154425Y203678D01*
X154754Y203142D01*
X155163Y202663D01*
X155642Y202254D01*
X156178Y201925D01*
X156760Y201684D01*
X157372Y201537D01*
X157994Y201488D01*
Y143500D01*
X79000D01*
Y440000D01*
G37*
G54D24*X166500Y233000D02*Y235500D01*
X172000Y227500D02*X166500Y233000D01*
X194000Y228000D02*X193000D01*
G54D25*X192500Y227500D02*X172000D01*
G54D24*X207500Y213500D02*Y206000D01*
X193000Y228000D02*X192500Y227500D01*
G54D26*X193000Y228000D02*X207500Y213500D01*
G54D24*X204000Y238000D02*X199250Y233250D01*
X203750Y237750D02*X199500Y233500D01*
G54D26*X184000Y238000D02*X198000Y252000D01*
G54D25*X217000D01*
G54D27*X204000Y238000D02*X194000Y228000D01*
G54D23*G36*
X214500Y209000D02*Y203000D01*
X220500D01*
Y209000D01*
X214500D01*
G37*
G54D25*X217500Y176000D03*
X207500Y206000D03*
X197500D03*
G54D28*X193000Y228000D03*
X204000Y238000D03*
G54D25*X187500Y206000D03*
G54D28*X184000Y238000D03*
G54D25*X187500Y176000D03*
X197500D03*
X207500D03*
X158000Y205500D03*
X167000Y189000D03*
X229000Y206000D03*
X217500Y163500D03*
X217000Y252000D03*
X156000Y220500D03*
X166500Y235500D03*
G54D29*G54D30*G54D29*G54D31*G54D32*G54D31*G54D32*G54D31*M02*
